<?xml version="1.0" encoding="utf-8"?>
<!-- Generator: Adobe Illustrator 27.5.0, SVG Export Plug-In . SVG Version: 6.00 Build 0)  -->
<svg version="1.1" id="Layer_1" xmlns="http://www.w3.org/2000/svg" xmlns:xlink="http://www.w3.org/1999/xlink" x="0px" y="0px"
	 viewBox="0 0 3404 2000" style="enable-background:new 0 0 3404 2000;" xml:space="preserve">
<rect x="0" style="fill:#FFFFFF;" width="3404" height="2000"/>
<g>
	<path style="fill:#EAFCFC;" d="M1125.552,159.663c0,0,705.625,103.733,639.945,289.83
		c-65.682,186.098,351.146-66.101,517.489,0.995c118.427,47.769,71.086,193.185,128.379,251.779
		c131.362,134.349,265.711-34.831,432.9,66.677s97.669,1050.771,29.595,1050.635l-2578.236-4.707l-30.85,0.995
		c0,0-189.083-272.678-17.913-431.906c171.17-159.228,53.644-232.035,32.841-293.576
		c-23.884-70.657-109.413-272.389,134.235-360.706c176.596-64.012,181.327-287.799,174.155-328.408
		C588.091,401.271,519.79,80.127,1125.552,159.663z"/>
	<path style="fill:#50BFA5;" d="M2725.797,1247.867l17.945-43.367c13.924-31.896,49.553-47.127,79.578-34.021l0,0
		c75.666,33.03,108.561,124.966,73.475,205.345l-25.652,58.765c-11.24,25.745-7.326,54.065,7.828,74.035
		c13.764,18.136,16.012,43.353,6.469,65.216l-13.525,30.981c-14.641,33.541-43.129,58.383-76.917,68.627
		c-19.761,5.991-37.212,20.822-46.442,41.965l-19.148,43.866c-21.17,48.496-75.34,71.655-120.993,51.726l-26.048-11.37
		c-45.652-19.929-65.5-75.398-44.33-123.896l0,0c34.234-57.986,31.504-101.268,19.373-130.621
		c-17.836-43.162-17.63-92.823,1.666-137.027l2.706-6.198c20.366-46.656,59.694-81.489,106.53-96.406
		C2688.986,1298.9,2710.539,1282.82,2725.797,1247.867z"/>
	<path style="fill:#96D9C9;" d="M1641.506,1830c58.835-43.967,41.126-315.747,251.494-355
		c232.21-43.328,353.694,164.989,353.694,164.989s411.933-259.623,563.099-236.218c138.568,21.455,0,182.381,0,182.381
		s156.069-89.111,345.332-89.111c184.199,0-128.688,316.043-145.566,332.959H1641.506z"/>
	<g>
		<g>
			<path style="fill:#3C8F7C;" d="M3004.189,1404.513c-81.033,126.558-140.174,267.147-173.99,416.505l-5.555-1.489
				c33.674-146.231,92.419-286.573,173.317-412.993c18.802-29.381,39.104-64.235,74.308-75.697c0.68-0.221,0.936,0.812,0.289,1.056
				C3040.404,1344.009,3021.781,1377.039,3004.189,1404.513z"/>
		</g>
		<g>
			<path style="fill:#3C8F7C;" d="M2849.735,1826.255c90.552-123.139,200.642-236.954,331.543-335.927
				c1.307-0.988,3.07,1.289,1.755,2.301c-124.15,95.432-233.988,208.124-326.414,335.472L2849.735,1826.255z"/>
		</g>
		<path style="fill:#3C8F7C;" d="M3011.596,1326.026c2.086,3.067,10.07,11.068,12.417,21.581c3.151,9.973,0.663,22.456,0.396,22.018
			c-0.602,0.248,9.239-8.073,12.314-21.308c3.98-12.693,1.194-30.301-3.757-36.135c-8.552-13.188-23.49-14.523-26.393-8.129
			C3003.495,1310.405,3007.4,1319.048,3011.596,1326.026z"/>
		<path style="fill:#3C8F7C;" d="M3030.98,1438.993c-3.025-2.146-10.867-10.287-21.332-12.84c-9.908-3.348-22.438-1.107-22.006-0.83
			c-0.26,0.597,8.254-9.078,21.547-11.892c12.77-3.729,30.317-0.597,36.053,4.469c13.016,8.809,14.059,23.771,7.607,26.546
			C3046.439,1447.4,3037.875,1443.325,3030.98,1438.993z"/>
		<path style="fill:#3C8F7C;" d="M3001.726,1488.504c-3.025-2.146-10.869-10.287-21.332-12.84
			c-9.909-3.347-22.438-1.105-22.007-0.83c-0.26,0.598,8.254-9.078,21.547-11.892c12.77-3.729,30.318-0.597,36.053,4.469
			c13.016,8.81,14.059,23.772,7.607,26.547C3017.184,1496.911,3008.619,1492.836,3001.726,1488.504z"/>
		<path style="fill:#3C8F7C;" d="M3106.078,1603.346c-3.025-2.146-10.867-10.288-21.331-12.841
			c-9.909-3.347-22.438-1.105-22.007-0.829c-0.26,0.597,8.254-9.079,21.547-11.892c12.77-3.729,30.318-0.596,36.053,4.469
			c13.016,8.81,14.059,23.773,7.607,26.547C3121.537,1611.752,3112.973,1607.677,3106.078,1603.346z"/>
		<path style="fill:#3C8F7C;" d="M3159.393,1556.377c-3.025-2.146-10.869-10.287-21.332-12.841
			c-9.908-3.347-22.439-1.106-22.006-0.829c-0.26,0.597,8.253-9.079,21.546-11.893c12.769-3.728,30.317-0.596,36.054,4.469
			c13.016,8.809,14.058,23.772,7.607,26.547C3174.851,1564.783,3166.287,1560.708,3159.393,1556.377z"/>
		<path style="fill:#3C8F7C;" d="M2970.661,1382.051c2.542,2.699,11.69,9.342,15.663,19.353c4.686,9.351,4.195,22.071,3.863,21.681
			c-0.555,0.34,7.852-9.428,8.801-22.982c1.93-13.162-3.598-30.109-9.406-35.09c-10.523-11.675-25.486-10.639-27.344-3.867
			C2960.199,1367.902,2965.418,1375.82,2970.661,1382.051z"/>
		<path style="fill:#3C8F7C;" d="M2927.641,1438.199c3.621,1.921,16.268,5.402,22.631,14.867c7.199,8.424,8.115,22.829,7.635,22.537
			c-0.676,0.618,9.016-13.896,8.598-29.433c0.896-15.519-8.32-32.058-16.444-35.12c-15.042-8.507-34.284-0.919-35.863,7.437
			C2912.378,1426.905,2920.097,1433.5,2927.641,1438.199z"/>
		<path style="fill:#3C8F7C;" d="M2882.361,1523.243c3.893,1.284,16.946,2.589,24.809,10.85
			c8.516,7.092,11.838,21.139,11.318,20.932c-0.564,0.724,6.549-15.216,3.524-30.459c-1.728-15.449-13.593-30.203-22.117-31.854
			c-16.257-5.857-33.95,4.859-34.103,13.361C2865.418,1514.677,2874.135,1519.879,2882.361,1523.243z"/>
		<path style="fill:#3C8F7C;" d="M3016.346,1582.483c2.836,1.768,12.926,5.32,17.561,13.382c5.379,7.262,5.301,19.031,4.93,18.768
			c-0.586,0.464,8.125-10.792,8.668-23.452c1.613-12.573-4.941-26.552-11.377-29.505c-11.75-7.775-27.836-2.699-29.596,4.008
			C3004.572,1572.427,3010.477,1578.23,3016.346,1582.483z"/>
		<path style="fill:#3C8F7C;" d="M3086.1,1345.938c-1.695-1.401-5.979-6.561-12.057-8.529c-5.715-2.413-13.227-1.636-12.982-1.453
			c-0.18,0.342,5.278-5.01,13.267-6.092c7.717-1.647,17.96,0.974,21.132,4.221c7.313,5.78,7.276,14.678,3.339,16.036
			C3094.875,1351.587,3089.988,1348.802,3086.1,1345.938z"/>
		<path style="fill:#3C8F7C;" d="M3069.854,1309.799c0.076,2.199,1.547,8.74-0.605,14.756c-1.578,6-6.779,11.474-6.773,11.17
			c-0.381-0.066,7.19-1.123,12.924-6.788c6.016-5.107,10.193-14.82,9.559-19.315c-0.113-9.322-7.185-14.723-10.664-12.435
			C3070.736,1299.399,3069.959,1304.97,3069.854,1309.799z"/>
		<path style="fill:#3C8F7C;" d="M3197.787,1508.534c-1.697-1.402-5.979-6.562-12.058-8.529c-5.715-2.413-13.226-1.636-12.981-1.454
			c-0.181,0.342,5.279-5.009,13.266-6.092c7.718-1.646,17.961,0.974,21.133,4.221c7.313,5.781,7.275,14.678,3.338,16.037
			C3206.563,1514.184,3201.676,1511.399,3197.787,1508.534z"/>
		<path style="fill:#3C8F7C;" d="M3178.188,1472.084c0.256,2.186,2.258,8.585,0.605,14.757c-1.08,6.108-5.814,11.989-5.836,11.686
			c-0.385-0.035,7.074-1.709,12.324-7.824c5.578-5.582,8.946-15.606,7.944-20.032c-0.876-9.281-8.365-14.085-11.646-11.519
			C3178.217,1461.646,3177.898,1467.263,3178.188,1472.084z"/>
	</g>
	<g>
		<g>
			<path style="fill:#3C8F7C;" d="M3164.549,1707.629c-82.744,9.07-159.809,45.596-233.996,81.212
				c-50.027,24.018-47.504,30.86-57.695,34.436c-1.65,0.58-3.301-1.213-2.497-2.804c3.921-7.765,14.198-13.018,21.35-17.483
				c8.323-5.198,17.021-9.793,25.847-14.078c18.881-9.167,38.258-17.418,57.506-25.781c39.156-17.014,78.95-33.017,120.319-43.849
				c22.678-5.939,45.755-10.222,69.112-12.327C3164.928,1706.916,3164.98,1707.582,3164.549,1707.629L3164.549,1707.629z"/>
		</g>
		<path style="fill:#3C8F7C;" d="M3089.973,1681.977c0.538,3.394,4.074,13.25,1.893,22.987c-1.293,9.602-8.303,19.083-8.354,18.61
			c-0.603-0.029,10.929-3.12,18.728-13c8.344-9.069,12.956-24.926,11.107-31.77c-1.964-14.426-13.959-21.44-18.913-17.226
			C3089.347,1665.688,3089.209,1674.473,3089.973,1681.977z"/>
		<path style="fill:#3C8F7C;" d="M3017.077,1708.076c0.538,3.395,4.074,13.251,1.894,22.987c-1.293,9.603-8.305,19.083-8.355,18.611
			c-0.602-0.029,10.93-3.121,18.727-13.001c8.346-9.068,12.957-24.926,11.107-31.769c-1.963-14.427-13.957-21.44-18.912-17.226
			C3016.451,1691.788,3016.314,1700.572,3017.077,1708.076z"/>
		<path style="fill:#3C8F7C;" d="M2943.008,1741.092c0.539,3.394,4.076,13.25,1.895,22.986c-1.293,9.602-8.304,19.084-8.355,18.611
			c-0.602-0.029,10.929-3.121,18.727-13c8.346-9.069,12.957-24.926,11.109-31.769c-1.965-14.426-13.96-21.441-18.914-17.226
			C2942.383,1724.803,2942.246,1733.587,2943.008,1741.092z"/>
		<path style="fill:#3C8F7C;" d="M3111.734,1750.083c-1.498-2.802-4.395-12.039-11.436-17.997
			c-6.311-6.354-16.769-9.428-16.543-9.052c-0.428,0.358,9.795-3.8,21.057-0.871c11.209,2.026,23.457,11.138,25.916,17.212
			c6.604,11.728,1.678,23.591-4.324,23.249C3120.363,1762.436,3115.359,1756.038,3111.734,1750.083z"/>
		<path style="fill:#3C8F7C;" d="M3035.911,1776.92c-1.497-2.801-4.393-12.038-11.435-17.996
			c-6.312-6.354-16.771-9.429-16.544-9.052c-0.427,0.357,9.796-3.8,21.056-0.872c11.211,2.026,23.46,11.139,25.916,17.213
			c6.604,11.727,1.681,23.59-4.323,23.249C3044.539,1789.274,3039.537,1782.876,3035.911,1776.92z"/>
		<path style="fill:#3C8F7C;" d="M3169.479,1722.456c-1.311-1.561-4.348-6.979-9.557-9.79c-4.803-3.156-11.775-3.705-11.584-3.498
			c-0.222,0.281,5.648-3.681,13.106-3.329c7.306-0.209,16.202,3.895,18.546,7.384c5.697,6.492,4.172,14.592,0.357,15.171
			C3176.529,1729.072,3172.543,1725.717,3169.479,1722.456z"/>
		<path style="fill:#3C8F7C;" d="M3160.729,1686.809c-0.3,2.017-0.055,8.223-3.023,13.344c-2.441,5.202-8.098,9.318-8.041,9.042
			c-0.336-0.124,6.738,0.181,12.91-4.021c6.338-3.646,11.771-11.796,11.944-15.997c1.458-8.513-4.079-14.617-7.634-13.114
			C3163.275,1677.48,3161.634,1682.427,3160.729,1686.809z"/>
	</g>
	<g>
		<path style="fill:#256653;" d="M2959.79,522.723c0,0-45.302,86.706-74.653,122.813c-29.354,36.106-57.318,70.638-84.516,173.613
			s-23.974,113.627-31.336,140.208c-7.361,26.58-51.91,133.52-53.152,153.483c-1.241,19.963-85.629,129.666-108.469,181.859
			c-22.842,52.194-62.377,126.398-62.342,165.204l9.074-1.817c0,0,11.896-89.876,78.672-177.915
			c66.773-88.04,58.764-105.714,131.709-148.975c72.943-43.262,125.104-170.369,125.104-170.369s78.932-136.925,79.313-210.176
			C2969.573,677.399,2991.983,612.461,2959.79,522.723z"/>
		<path style="fill:#256653;" d="M2871.238,381.312c0,0-5.342,58.199-25.918,91.887c-20.576,33.688-37.854,53.905-43.176,91.215
			c-5.324,37.31-22.059,133.345-76.916,177.852c-54.859,44.507-68.756,185.528-110.863,226.258
			c-42.105,40.729-48.885,71.199-45.248,144.918c3.635,73.718,23.516,176.634-41.164,306.355l-11.412-33.665
			c0,0,46.996-107.036,40.219-171.456c-6.779-64.419-36.771-162.763-21.637-208.428c15.135-45.665-31.914-57.129,0.26-125.721
			c32.176-68.593,21.665-93.529,63.693-152.113c0,0,4.139-2.632,16.988-53.354c12.85-50.722,100.18-140.441,139.852-170.555
			C2795.59,474.391,2853.029,425.817,2871.238,381.312z"/>
		<path style="fill:#3C8F7C;" d="M2701.59,662.179c0,0-49.525,75.675-52.729,125.843c-3.204,50.167,0.155,91.278-26.392,158.849
			c-26.547,67.571,16.986,113.358,1.869,150.641c-15.117,37.284-18.425,82.17-19.759,116.267
			c-1.333,34.098-59.657,144.199-70.567,200.896c-10.91,56.695-0.693,57.405-0.693,57.405s12.555-74.948,25.924-99.261
			c13.369-24.313,54.531-108.388,64.818-141.203c10.287-32.815,34.669-52.973,57.631-108.266
			c22.963-55.294,53.943-101.271,55.832-181.293C2739.41,862.035,2775.863,779.329,2701.59,662.179z"/>
		<path style="fill:#3C8F7C;" d="M2566.248,1421.291c0,0,26.285-97.902,116.367-103.227c90.084-5.325,141.805,15.066,208.77-54.028
			c66.966-69.095,109.564-181.984,130.787-200.713c0,0-30.962-17.976-86.342,28.755c-55.381,46.729-94.418,82.326-126.486,109.543
			c-32.07,27.218-55.967,7.191-89.242,24.516c-27.887,14.521-65.242,58.684-81.889,81.967c-5.408,7.563-11.713,14.434-18.857,20.383
			c-6.498,5.412-14.248,12.056-19.252,16.982c-10.01,9.853-40.799,75.823-40.799,75.823L2566.248,1421.291z"/>
		<path style="fill:#3C8F7C;" d="M2535.566,1402.218c0,0,37.734-119.443,19.604-179.759c-18.131-60.315-82.1-107.521-77.547-144.598
			c4.557-37.076,52.178-135.488,21.336-212.134c0,0-16.564,66.123-30.309,80.32c-13.746,14.197-105.941,69.576-94.166,149.511
			s97.494,102.847,117.65,127.229c20.158,24.383,48.973,25.82,48.367,41.319c-0.605,15.499,2.146,72.108-10.252,127.193
			L2535.566,1402.218z"/>
		<path style="fill:#327F6B;" d="M2574.211,1322.966l50.854-125.502c0,0,31.287-101.432,50.752-186.354
			c19.465-84.922,25.773-348.93,25.773-348.93s-49.525,75.675-52.729,125.843c-3.204,50.167,0.155,91.278-26.392,158.849
			c-26.549,67.571,16.986,113.358,1.869,150.641c-15.117,37.284-18.425,82.17-19.759,116.267
			c-1.333,34.098-59.657,144.199-70.567,200.896c-5.977,31.057-5.61,45.297-4.061,51.84
			C2525.381,1416.207,2574.211,1322.966,2574.211,1322.966z"/>
		<path style="fill:#327F6B;" d="M2796.549,1257.981c-39.967,5.888-75.207,1.39-123.954,33.958
			c-48.748,32.569-78.274,68.498-78.274,68.498s-23.033,36.656-32.773,56.104c-1.414,2.976-2.242,4.751-2.242,4.751l6.943-0.001
			c0,0,26.285-97.902,116.367-103.227c90.084-5.325,141.805,15.066,208.77-54.029c66.965-69.094,109.564-181.984,130.787-200.712
			c0,0-69.976,48.937-113.927,93.163C2864.295,1200.714,2836.518,1252.095,2796.549,1257.981z"/>
		<path style="fill:#327F6B;" d="M2468.65,946.048c-13.746,14.196-105.941,69.576-94.166,149.511
			c11.775,79.936,97.494,102.847,117.65,127.229c20.158,24.383,48.973,25.82,48.367,41.319
			c-0.605,15.499,2.146,72.108-10.252,127.193l2.322,4.768c5.779-21.451,13.949-54.148,17.348-79.123
			c5.52-40.557-0.225-57.752-11.637-91.417c-11.412-33.664-89.338-105.01-107.924-141.382
			c-18.586-36.371,44.111-92.397,58.813-120.24c14.699-27.841,9.788-98.179,9.788-98.179S2482.395,931.851,2468.65,946.048z"/>
	</g>
	<g>
		<path style="fill:#3C8F7C;" d="M500.805,1258.257c-1.566-13.829-3.425-27.975-9.845-40.318
			c-7.805-15.007-21.518-25.835-33.498-37.762c-22.385-22.286-39.612-49.743-49.951-79.618
			c-7.994-23.101-11.98-47.712-22.997-69.527c-6.727-13.32-15.901-25.23-23.543-38.045c-18.06-30.292-27.891-66.091-52.382-91.445
			c-4.713,30.74,4.6,63.36,24.827,86.951c6.032,7.035,13.028,13.377,17.623,21.429c8.342,14.614,7.582,32.446,8.56,49.255
			c1.836,31.59,10.739,62.748,25.865,90.524c16.068,29.507,39.261,55.782,47.853,88.275c6.438,24.35,4.525,51.662,18.25,72.766
			c1.487,2.286,3.19,4.584,3.555,7.288c0.205,1.521-0.033,3.061-0.27,4.576c-0.307,1.96-0.615,3.92-0.922,5.881
			c-3.123,19.929-6.349,45.287,10.776,60.202c11.868,10.337,27.144,10.567,35.667-3.163c8.583-13.825,7.822-34.059,7.185-49.619
			C506.496,1309.996,503.721,1284.013,500.805,1258.257z"/>
		<path style="fill:#327F6B;" d="M531.65,1242.227c-6.663-23.069-17.003-45.041-22.185-68.488
			c-5.026-22.744-5.066-46.257-5.082-69.552c-0.019-25.526-0.037-51.052-0.055-76.577c-0.011-15.892-0.029-31.87-2.655-47.542
			c-5.651-33.721-23.176-64.9-26.145-98.963c-1.284-14.729,0.207-29.617-1.413-44.314c-0.926-8.396-3.08-16.966-6.966-24.415
			c-4.18-8.01-15.727-7.657-19.514,0.548c-8.513,18.443-13.911,38.38-10.472,58.141c2.063,11.854,7.197,22.909,11.03,34.311
			c17.07,50.78,8.008,106.992,21.217,158.915c3.986,15.673,10.015,31.043,10.716,47.201c1.679,38.675-27.206,74.002-24.556,112.621
			c2.172,31.664,24.937,57.868,34.492,88.128c5.349,16.94,6.494,35.021,12.225,51.835c4.452,13.065,14.806,28.928,30.889,24.963
			c15.268-3.764,10.655-16.227,9.973-28.131C540.842,1320.64,543.013,1281.567,531.65,1242.227z"/>
		<path style="fill:#3C8F7C;" d="M566.599,1263.366c-0.672-11.986-2.696-24.04-1.02-35.928c1.416-10.04,5.412-19.501,8.266-29.229
			c5.348-18.229,6.674-37.361,7.969-56.316c2.354-34.458,4.708-68.916,7.063-103.374c3.66-53.562,7.338-107.277,17.352-160.018
			c2.781-14.644,5.903-30.511-0.678-43.879c-1.387-2.818-4.117-5.807-7.11-4.869c-2.131,0.668-3.178,3.016-3.951,5.116
			c-21.891,59.494-30.166,123.545-54.601,182.037c-5.853,14.012-12.662,27.796-15.692,42.68c-3.638,17.871-1.64,36.331-1.17,54.565
			c0.674,26.15-1.873,52.5-9.093,77.639c-3.779,13.152-8.837,26.009-10.908,39.537c-2.581,16.869-0.414,34.051,1.202,51.04
			c3.107,32.66,4.159,65.518,3.15,98.31c-0.593,19.28,15.681,18.775,26.462,6.93c7.54-8.283,7.47-17.376,10.052-27.688
			C552.368,1326.066,568.656,1300.07,566.599,1263.366z"/>
		<path style="fill:#327F6B;" d="M464.92,1315.646c-14.391-23.123-43.06-36.27-52.258-61.915c-2.34-6.525-3.254-13.544-6.114-19.859
			c-6.351-14.025-20.79-21.951-34.984-28.404c-1.971-0.896-4.211,0.532-4.241,2.701l0,0c-0.047,3.448,1.587,6.737,4.444,8.661
			c10.935,7.361,19.246,18.615,22.946,31.296c4.385,15.029,2.482,31.506,7.932,46.181c4.575,12.32,13.994,22.392,18.418,34.767
			c4.044,11.314,3.619,23.673,5.521,35.538c1.901,11.864,7.171,24.455,18.066,29.475
			C484.069,1412.25,474.217,1330.584,464.92,1315.646z"/>
		<path style="fill:#3C8F7C;" d="M628.875,1308.016c-0.614,11.179,1.095,22.898-3.279,33.201
			c-2.798,6.592-7.833,11.92-11.966,17.766c-14.51,20.524-19.773,49.606-42.069,61.16c-1.471,0.763-3.112,1.445-4.741,1.142
			c-2.285-0.426-3.782-2.628-4.701-4.768c-5.466-12.735,0.667-27.083,4.299-40.461c0.636-2.341,1.169-4.949,0.053-7.102
			c-1.227-2.368-4.025-3.395-5.936-5.253c-3.81-3.705-3.451-9.836-2.694-15.101c1.89-13.156,4.547-26.201,7.953-39.048
			c1.932-7.284,4.162-14.632,8.359-20.887c4.62-6.885,11.331-12.024,17.612-17.429c27.764-23.885,49.031-55.278,60.935-89.951
			c2.577-7.505,4.875-15.43,10.198-21.309c5.323-5.878,14.812-8.903,21.294-4.342c4.613,3.245-14.281,33.636-16.483,37.279
			c-6.294,10.413-6.378,19.476-9.936,31.04C649.056,1252.291,630.542,1277.653,628.875,1308.016z"/>
		<path style="fill:#327F6B;" d="M606.899,1320.942c4.124-10.665,8.284-21.468,9.642-32.824c1.511-12.624-0.493-25.534,1.663-38.063
			c2.773-16.107,12.164-30.275,16.814-45.942c3.357-11.316,4.182-23.203,6.198-34.833c5.767-33.255,21.402-65.752,16.914-99.205
			c-0.976-7.276-4.26-15.758-11.482-16.999c-6.537-1.123-12.489,4.854-14.19,11.278c-1.7,6.425-0.431,13.201,0.036,19.83
			c1.302,18.49-3.973,37.377-14.663,52.503c-10.271,14.533-25.173,25.476-34.416,40.686c-11.337,18.657-12.88,41.432-18.665,62.493
			c-11.504,41.882-40.358,78.419-45.619,121.538c-2.093,17.157,1.934,38.014,17.769,44.868
			C582.7,1426.098,596.524,1347.771,606.899,1320.942z"/>
		<path style="fill:#ED5F48;" d="M526.837,1374.097h-7.325h-97.779c-7.186,0-12.488,6.724-10.826,13.729l38.314,161.565
			c1.192,5.025,5.672,8.572,10.826,8.572h59.465h7.325h59.465c5.155,0,9.635-3.547,10.827-8.572l38.315-161.565
			c1.661-7.006-3.641-13.729-10.827-13.729H526.837z"/>
	</g>
	<g>
		<path style="fill:#96D9C9;" d="M877.313,1675.667h23.863c-3.904-2.953-8.788-4.72-14.101-4.72H289.262
			c-31.277,0-56.632,24.857-56.632,55.519v35.265c0,30.662,25.355,55.52,56.632,55.52l591.127-0.197L877.313,1675.667z"/>
		<path style="fill:#50BFA5;" d="M537.922,1671.078c-29.911,0-54.158,23.771-54.158,53.094v39.854
			c0,29.322,24.247,53.094,54.158,53.094h372.153v-8.915h-1.538l-94.609-8.783l-19.123-73.545c0,0,36.908-40.64,39.315-41.688
			c2.407-1.049,74.417-4.228,74.417-4.228l1.538-0.017v-8.865H537.922z"/>
		<path style="fill:#FAE0B2;" d="M885.938,1743.836c0-42.999,22.666-63.844,22.666-63.844h-363.06
			c-27.473,0-49.745,21.834-49.745,48.768v30.677c0,26.934,22.272,48.767,49.745,48.767h363.06
			C908.604,1808.204,885.938,1797.979,885.938,1743.836z"/>
		<path style="fill:#DAEEF7;" d="M495.799,1728.76v30.677c0,4.033,0.509,7.948,1.45,11.696
			c12.245-29.371,35.714-57.66,80.389-66.756c104.305-21.238,330.966-24.385,330.966-24.385h-363.06
			C518.071,1679.992,495.799,1701.826,495.799,1728.76z"/>
		<path style="fill:#184655;" d="M212.927,1558.604h-23.873c3.906-2.344,8.792-3.745,14.107-3.745h598.046
			c31.29,0,56.654,19.723,56.654,44.053v27.982c0,24.33-25.365,44.053-56.654,44.053l-591.357-0.156L212.927,1558.604z"/>
		<path style="fill:#13375B;" d="M552.451,1554.963c29.922,0,54.18,18.862,54.18,42.129v31.623c0,23.267-24.257,42.128-54.18,42.128
			H180.152v-7.073h1.538l94.646-6.969l19.13-58.356c0,0-36.922-32.247-39.33-33.079c-2.408-0.832-74.446-3.355-74.446-3.355
			l-1.538-0.013v-7.035H552.451z"/>
		<path style="fill:#FAE0B2;" d="M204.299,1612.695c0-34.119-22.675-50.658-22.675-50.658h363.202
			c27.484,0,49.765,17.324,49.765,38.695v24.342c0,21.371-22.28,38.695-49.765,38.695H181.624
			C181.624,1663.77,204.299,1655.656,204.299,1612.695z"/>
		<path style="fill:#DAEEF7;" d="M594.59,1600.733v24.342c0,3.199-0.509,6.306-1.451,9.28c-12.25-23.306-35.728-45.752-80.42-52.97
			c-104.345-16.851-331.096-19.348-331.096-19.348h363.202C572.31,1562.037,594.59,1579.361,594.59,1600.733z"/>
	</g>
	<polygon style="fill:#184655;" points="1517.065,1705.406 1318.416,1796.968 1318.416,1817.25 2025.873,1817.25 2025.873,1796.968 
		1825.43,1705.406 	"/>
	<rect x="1517.065" y="1312.949" style="fill:#184655;" width="308.49" height="392.623"/>
	<path style="fill:#FF9988;" d="M2604.791,1389.07V471.113c0-24.063-19.506-43.569-43.568-43.569H779.394
		c-24.063,0-43.569,19.507-43.569,43.569v917.958H2604.791z"/>
	<rect x="1318.416" y="1796.968" style="opacity:0.3;fill:#184655;" width="707.457" height="20.282"/>
	<rect x="1517.065" y="1659.333" style="opacity:0.3;fill:#184655;" width="308.365" height="46.073"/>
	<rect x="769.878" y="465.604" style="fill:#ED5F48;" width="1792.847" height="82.13"/>
	<rect x="769.878" y="547.719" style="fill:#DDEAFD;" width="1792.771" height="808.232"/>
	<path style="fill:#ED5F48;" d="M735.824,1389.07v141.876c0,29.511,19.507,53.435,43.569,53.435h1781.829
		c24.063,0,43.568-23.924,43.568-53.435V1389.07H735.824z"/>
	<path style="fill:#FFFFFF;" d="M824.415,507.587c0,7.882-6.391,14.273-14.273,14.273c-7.882,0-14.272-6.391-14.272-14.273
		c0-7.883,6.39-14.273,14.272-14.273C818.024,493.315,824.415,499.705,824.415,507.587z"/>
	<path style="fill:#FFFFFF;" d="M874.878,507.587c0,7.882-6.39,14.273-14.272,14.273c-7.883,0-14.273-6.391-14.273-14.273
		c0-7.883,6.39-14.273,14.273-14.273C868.488,493.315,874.878,499.705,874.878,507.587z"/>
	<path style="fill:#FFFFFF;" d="M925.342,507.587c0,7.882-6.39,14.273-14.272,14.273c-7.883,0-14.272-6.391-14.272-14.273
		c0-7.883,6.389-14.273,14.272-14.273C918.952,493.315,925.342,499.705,925.342,507.587z"/>
	<g>
		<path style="fill:#86B1F2;" d="M2395.469,127.159l8.826,66.503l-47.237-34.497l-144.582-73.862l111.833,10.238
			c0,0,56.972,13.84,60.055,16.631C2387.447,114.963,2395.469,127.159,2395.469,127.159z"/>
		<polygon style="fill:#9BC1F9;" points="2444.99,87 2212.476,85.303 2395.469,127.159 		"/>
		<polygon style="fill:#9BC1F9;" points="2320.725,194.063 2381.648,145.126 2212.476,85.303 		"/>
	</g>
	<g>
		<g>
			<path style="fill:#86B1F2;" d="M2683.039,486.592l-3.066-4.536c4.699-3.178,9.004-7.075,12.797-11.582l4.188,3.525
				C2692.842,478.893,2688.158,483.13,2683.039,486.592z"/>
		</g>
		<g>
			<path style="fill:#86B1F2;" d="M2713.807,441.965l-5.225-1.641c3.172-10.101,5.269-21.569,6.23-34.086l5.459,0.419
				C2719.277,419.59,2717.102,431.469,2713.807,441.965z M2720.088,370.87l-5.448,0.552c-0.151-1.502-0.326-3.003-0.526-4.5
				c-0.678-5.097-1.652-10.245-2.899-15.302c-1.149-4.662-2.558-9.357-4.187-13.956l5.162-1.827
				c1.688,4.767,3.148,9.636,4.341,14.471c1.294,5.252,2.308,10.598,3.011,15.891
				C2719.744,367.713,2719.928,369.285,2720.088,370.87z M2692.002,306.386c-5.854-9.562-12.838-18.971-20.756-27.965l4.107-3.618
				c8.129,9.229,15.301,18.894,21.318,28.724L2692.002,306.386z M2520.922,293.432c-3.729,0.92-13.225,1.129-19.322-2.505
				c-4.559-2.717-8.354-6.984-10.973-12.341l4.918-2.406c2.184,4.462,5.164,7.841,8.857,10.044
				c4.396,2.621,12.238,2.625,15.209,1.892c0.396-0.098,0.551-0.172,0.551-0.173c0.231-0.148,0.506-0.327,0.779-0.509l3.041,4.554
				c-0.314,0.209-0.629,0.415-0.947,0.615C2522.497,292.942,2521.805,293.215,2520.922,293.432z M2646.291,253.983
				c-8.713-7.417-18.146-14.459-28.041-20.931l3-4.583c10.082,6.598,19.703,13.779,28.592,21.343L2646.291,253.983z
				 M2543.707,261.219l-5.357-1.124c0.705-3.374,1.068-6.814,1.078-10.227c0.012-4.807-0.605-9.771-1.834-14.753
				c-0.666-2.705-1.527-5.462-2.553-8.198l5.125-1.926c1.103,2.936,2.025,5.901,2.745,8.813c1.336,5.416,2.005,10.826,1.991,16.079
				C2544.895,253.667,2544.492,257.482,2543.707,261.219z M2495.572,244.369l-4.939-2.361c4.961-10.376,14.285-19.466,25.582-24.938
				l0.754-0.36l2.328,4.957l-0.695,0.331C2508.402,226.938,2500.008,235.093,2495.572,244.369z M2586.414,219.816
				c-9.928-3.032-17.811-4.875-21.629-5.057c-4.379-0.208-8.381-0.253-12.236-0.137l-0.168-5.473c4-0.122,8.145-0.076,12.666,0.14
				c5.82,0.277,16.888,3.433,22.967,5.29L2586.414,219.816z M2517.289,197.652c-7.467-8.745-16.201-16.345-25.962-22.588
				l2.951-4.613c10.216,6.535,19.358,14.49,27.175,23.646L2517.289,197.652z"/>
		</g>
		<g>
			<path style="fill:#86B1F2;" d="M2459.918,161.039c-5.76-1.583-11.575-2.681-17.288-3.26l0.553-5.448
				c6.015,0.61,12.134,1.764,18.187,3.429L2459.918,161.039z"/>
		</g>
	</g>
	<g>
		<path style="fill:#F7CC7F;" d="M695.358,1506.372l2.045-0.022l114.131-1.254c12.409-0.137,22.347,10.248,21.665,22.64
			l-14.984,272.212c-0.499,9.06-6.622,16.835-15.326,19.398c-19.926,5.867-58.962,8.355-103.471,8.845
			c-44.509,0.489-82.591-1.151-102.641-6.579c-8.758-2.37-15.051-10.009-15.748-19.056l-20.965-271.816
			c-0.954-12.373,8.753-22.975,21.162-23.111L695.358,1506.372z"/>
		<path style="fill:#13375B;" d="M552.939,1471.584c2.865-10.98,10.397-18.316,18.9-18.41l122.92-1.352l2.045-0.021l122.92-1.351
			c8.503-0.094,16.194,7.075,19.3,17.989l10.351,36.375c2.904,10.204-4.69,20.376-15.298,20.492l-136.448,1.501l-2.045,0.022
			l-136.448,1.501c-10.609,0.116-18.424-9.887-15.746-20.151L552.939,1471.584z"/>
		<path style="fill:#13375B;" d="M571.804,1433.397c-0.056-5.084,4.02-9.251,9.104-9.307l113.532-1.248l2.046-0.022l113.532-1.248
			c5.084-0.056,9.251,4.021,9.306,9.104l0.304,27.616l-123.845-6.416l-123.674,9.138L571.804,1433.397z"/>
		<path style="fill:#50BFA5;" d="M839.796,1577.462l-9.023,123.763c-0.153,2.104-1.59,3.886-3.62,4.462
			c-13.484,3.827-65.891,17.505-128.38,18.192c-62.489,0.687-115.184-11.836-128.75-15.365c-2.041-0.531-3.518-2.281-3.717-4.381
			l-11.742-123.535c-0.317-3.342,2.656-6.059,5.949-5.401c60.8,12.122,212.7,10.452,273.219-3.004
			C837.008,1571.464,840.041,1574.113,839.796,1577.462z"/>
		<path style="fill:#F3FDFF;" d="M659.68,1642.261c-4.894,26.738,12.814,52.381,39.553,57.274
			c26.738,4.894,52.381-12.814,57.274-39.553c4.894-26.738-12.815-52.381-39.553-57.274
			C690.216,1597.814,664.574,1615.522,659.68,1642.261z"/>
	</g>
	<g>
		<path style="fill:#184655;" d="M2680.796,1557.737c0,0-17.399,20.991-11.548,64.184l10.191,0.215c0,0,1.047-27.664,20.939-56.455
			L2680.796,1557.737z"/>
		<path style="fill:#B75742;" d="M2702.862,1610.507c-22.476,7.747-37.337,7.435-59.465-1.251
			c-22.131-8.686-105.726-5.16-109.745,91.638c-4.021,96.798,79.975,123.226,104.075,121.972
			c13.343-0.694,18.799-2.813,25.174-3.582c2.19-0.21,4.101-0.289,5.828-0.266c1.726,0.049,3.63,0.209,5.81,0.51
			c6.338,1.037,11.699,3.384,25.002,4.639c24.025,2.267,109.059-20.604,109.113-117.486
			C2808.709,1609.798,2725.338,1602.76,2702.862,1610.507z"/>
		<path style="opacity:0.3;fill:#CF283C;" d="M2744.738,1611.594c2.305,9.426,3.594,20.096,3.588,32.164
			c-0.055,96.881-85.088,119.753-109.113,117.486c-13.303-1.256-18.664-3.602-25.001-4.639c-2.181-0.301-4.087-0.461-5.812-0.51
			c-1.727-0.025-3.636,0.056-5.828,0.266c-6.375,0.769-11.83,2.888-25.174,3.582c-7.691,0.4-21.49-2.04-36.574-8.666
			c20.361,55.923,77.674,72.589,96.903,71.588c13.343-0.694,18.799-2.813,25.174-3.582c2.19-0.21,4.101-0.289,5.828-0.266
			c1.726,0.049,3.63,0.209,5.81,0.51c6.338,1.037,11.699,3.384,25.002,4.639c24.025,2.267,109.059-20.604,109.113-117.486
			C2808.689,1645.119,2775.047,1619.861,2744.738,1611.594z"/>
		<path style="fill:#256653;" d="M2682.68,1603.817c0,0,34.945,12.933,62.652-28.148
			C2745.332,1575.669,2694.182,1563.687,2682.68,1603.817z"/>
	</g>
	<path style="fill:#ED5F48;" d="M3228.146,1833.938H223.708c-5.071,0-9.181-4.11-9.181-9.182l0,0c0-5.07,4.11-9.181,9.181-9.181
		h3004.437c5.071,0,9.182,4.11,9.182,9.181l0,0C3237.327,1829.828,3233.217,1833.938,3228.146,1833.938z"/>
	<g>
		<rect x="2178.046" y="1772.535" style="fill:#DAEEF7;" width="304.401" height="16.879"/>
		<path style="fill:#DAEEF7;" d="M2186.537,1641.924l-4.617,21.228c-1.77,8.144,3.427,16.173,11.58,17.894l271.851,57.368
			c8.339,1.761,16.472-3.762,17.911-12.163l2.389-13.944c1.086-6.338-1.982-12.664-7.631-15.736l-81.418-44.279
			c-1.723-0.938-3.613-1.528-5.564-1.739l-186.489-20.149l-1.343-0.179C2195.449,1629.188,2188.199,1634.279,2186.537,1641.924z"/>
		<path style="fill:#F47458;" d="M2461.486,1705.016c0,0,38.824,28.273,10.551,74.904l1.688,12.026l49.796,3.376l45.575-9.283
			l8.44-75.96l-109.299-32.493L2461.486,1705.016z"/>
		<path style="fill:#F7CC7F;" d="M2578.068,1816.985h-428.125c-2.504,0-4.531-2.029-4.531-4.532v-28.002
			c0-2.503,2.027-4.531,4.531-4.531h428.125c2.504,0,4.532,2.028,4.532,4.531v28.002
			C2582.601,1814.956,2580.572,1816.985,2578.068,1816.985z"/>
		<path style="fill:#F7CC7F;" d="M2155.178,1637.048l310.697,73.265c2.487,0.586,5.078,0.508,7.533-0.197
			c12.229-3.511,53.674-12.266,88.554,17.504c8.233,7.027,20.952,3.293,23.913-7.119l5.56-19.544
			c1.801-6.333-0.8-13.089-6.382-16.582c-45.107-28.229-242.596-146.448-372.606-137.452c-12.259,0.849-23.312,7.684-29.556,18.266
			l-33.877,57.404C2145.67,1628.256,2148.775,1635.538,2155.178,1637.048z"/>
		<path style="fill:#F7CC7F;" d="M2539.838,1750.226c0,10.255-8.313,18.568-18.568,18.568c-10.254,0-18.566-8.313-18.566-18.568
			c0-10.255,8.313-18.567,18.566-18.567C2531.525,1731.658,2539.838,1739.971,2539.838,1750.226z"/>
	</g>
	<g>
		<defs>
			<polygon id="SVGID_1_" points="2308.385,1355.951 769.878,1355.951 769.878,547.734 1302.235,343 2404.295,262.72 			"/>
		</defs>
		<clipPath id="SVGID_00000000917621389570759130000017675510652375460741_">
			<use xlink:href="#SVGID_1_"  style="overflow:visible;"/>
		</clipPath>
		<g style="clip-path:url(#SVGID_00000000917621389570759130000017675510652375460741_);">
			<g>
				<path style="fill:#F7A491;" d="M1579.808,789.153c11.268-9.193,110.661,40.337,109.556,53.694
					c-1.105,13.357,48.556,131.672,48.556,131.672l106.989-85.6l0.044,0.027c0.945-3.095,11.089-36.388,11.582-42.344
					c0.518-6.246,18.596-17.178,26.993-15.569c8.397,1.611-7.182,12.18-8.203,14.12c-2.784,5.281,7.979,7.262,7.979,7.262
					s30.913-17.023,31.57-27.035c0.656-10.011,7.037-30.995,13.716-26.607c3.447,2.266,3.415,17.153,2.339,24.217
					c1.986-8.018,4.798-17.074,7.536-17.971c5.001-1.639,7.486,4.745,6.578,7.878c-0.907,3.134-8.982,37.179-11.436,41.012
					c-2.398,3.742-52.32,44.101-59.514,52.861c0,0-138.387,158.739-148.242,162.893c-8.643,3.643-39.471-51.06-68.595-87.379
					C1628.134,945.969,1544.595,817.879,1579.808,789.153z"/>
				<path style="fill:#F48C7F;" d="M1300.575,1956.371c0,0-19.016,18.619-19.449,25.452c-0.43,6.833-1.683,80.033,6.08,86.867
					c7.763,6.832,30.565,11.678,23.234,19.365c-5.539,5.81-48.168,4.566-76.42,3.006c-8.246-0.455-18.589-66.478-21.855-76.182
					c-4.745-14.093-16.28-45.839-11.967-55.661c2.101-4.786,12.155-14.623,26.32-23.804c14.902-9.656,29.158-31.158,29.158-31.158
					L1300.575,1956.371z"/>
				<path style="fill:#F7A491;" d="M1497.566,1999.729c0,0-17.019,48.237-17.038,48.361c-1.265,7.644-6.248,26.524-6.248,33.471
					c0,26.102,117.309-22.154,91.018-33.721c-2.38-1.047-9.844-9.411-10.628-18.294c-1.206-13.687,9.882-30.853,9.882-30.853
					L1497.566,1999.729z"/>
				<g>
					<path style="fill:#355389;" d="M1681.595,1101.467c0,0,8.552,86.477,8.552,87.767c0,139.889,27.637,413.139,22.38,439.437
						c-12.822,64.148-150.816,391.387-150.816,391.387l-74.582-8.945l97.188-391.797l-35.764-157.699l-50.609-311.725
						L1681.595,1101.467z"/>
					<path style="fill:#5375B5;" d="M1431.286,1177.955l-14.153,81.962l-38.288,337.322l-145.817,329.681
						c0,0,20.512,47.972,50.771,54.71l232.077-338.482l144.161-433.117l-5.059-96.224L1431.286,1177.955z"/>
				</g>
				<path style="fill:#F4A658;" d="M1711.339,895.569l-103.42,10.594c0,0-4.745-85.073-4.745-125.655
					c0-49.233,4.181-112.646,10.106-111.283c16.631,3.831,39.104,12.987,52.36,31.427
					C1705.666,756.331,1711.339,895.569,1711.339,895.569z"/>
				<path style="fill:#F7CC7F;" d="M1660.532,771.825c2.167,15.01,41.924,423.099,41.924,423.099
					c-188.307,91.256-292.213,16.256-292.213,16.256s6.162-286.565-1.225-325.569c-4.886-25.808-10.977-197.284,5.689-202.087
					c21.387-6.163,45.909-12.709,72.637-15.492c22.816-2.377,111.446-3.753,127.304,1.591
					C1614.647,669.622,1651.424,708.699,1660.532,771.825z"/>
				<path style="fill:#184655;" d="M1227.442,1934.949c0,0,43.829,123.825,60.983,129.803c4.555,1.587,26.416,5.613,30.539,15.314
					c1.241,2.922,0,12.68,0,12.68h-91.354c0,0-11.555-54.557-16.123-78.529c0,0-24.182-58.567-21.495-63.89
					C1192.68,1945.005,1227.442,1934.949,1227.442,1934.949z"/>
				<path style="fill:#184655;" d="M1467.607,2090.173l13.435-42.58c0,0,28.212,11.975,42.318,9.979
					c14.106-1.997,41.647-9.979,41.647-9.979c56.306,18.594,102.434,27.619,94.043,42.58l0,0H1467.607z"/>
				<g>
					<path style="fill:#F7A491;" d="M1725.852,1069.664c0.426-0.18,1.96-1.39,2.842-2.118c-3.35-39.98-2.744-78.721,9.761-91.819
						c-0.301-0.628-3.034-6.458-5.888-12.504c-14.493,11.248-21.379,41.128-18.677,89.633c0.184,3.337,1.141,5.882,1.911,10.045
						C1719.998,1067.532,1723.813,1070.524,1725.852,1069.664z"/>
				</g>
				<path style="fill:#F8A492;" d="M1223.74,1199.247c-0.117-0.874-0.132-1.751-0.047-2.627
					c2.774-28.263,26.16-265.575,30.099-275.664c3.556-9.108,108.438-159.625,108.438-159.625l51.549,70.471l-100.867,135.003
					c-2.262,8.579-38.654,168.778-38.654,168.778s-7.458,29.2-10.801,46.692c1.525,4.214,3.02,8.194,4.345,11.461
					c3.344,6.978,7.285,12.705,10.868,17.525c4.51,6.063,11.962,19.311,12.882,22.855c1.068,4.121,2.993,12.687,4.083,17.857
					c1.092,5.169,2.584,11.188,2.835,13.993c0.152,1.708,1.908,5.112,3.258,7.518c2.013,3.584-1.421,7.813-5.313,6.517
					c-3.665-1.223-6.517-5.98-8.275-8.948c-4.963-8.371-7.61-23.658-8.844-22.849c-1.235,0.81-5.584,26.743-6.272,29.676
					c-0.688,2.933-5.906,33.046-8.849,38.55c-2.944,5.504-6.84,4.583-7.873,1.137c-0.89-2.966,3.25-45.104,3.25-45.104
					s0.516-5.374-1.829-3.694c-2.346,1.68-6.181,39.929-7.813,45.524c-1.632,5.597-5.351,8.565-8.507,4.066
					c-3.839-5.472,2.763-46.042,2.763-46.042s0.739-5.1-1.433-4.626c-2.171,0.474-4.891,33.073-6.58,35.893
					c-1.69,2.818-5.954,3.831-7.99-0.87c-2.394-5.534,3.81-41.702,3.81-41.702s-0.306-2.879-1.66-1.923
					c-1.353,0.955-5.651,28.578-8.453,31.136c-2.354,2.149-4.313,0.064-4.313,0.064c-5.141-3.52,2.741-29.795,2.662-42.859
					c-0.077-13.065,5.962-27.748,4.162-43.302C1224.258,1203.15,1223.942,1200.755,1223.74,1199.247z"/>
				<path style="fill:#F7CC7F;" d="M1280.29,856.659l89.59,60.357c0,0,50.495-75.395,77.602-102.237
					c33.954-33.626-12.37-136.632-34.247-130.804C1364.301,697.01,1280.29,856.659,1280.29,856.659z"/>
				<path style="fill:#F7A491;" d="M1493.927,579.806l-13.399,88.625c0,0,48.938,105.522,78.152,96.371
					c24.513-7.679,9.433-101.048,9.433-101.048s-13.361-50.142-9.354-75.234C1562.766,563.428,1493.927,579.806,1493.927,579.806z"
					/>
				<path style="fill:#F47458;" d="M1558.76,588.52c4.006-25.091-64.831-8.714-64.831-8.714l-1.112,7.351
					c2.014,4.917,4.476,9.125,7.465,12.351c15.376,16.605,39.41,26.578,60.19,27.333
					C1558.394,613.31,1557.115,598.809,1558.76,588.52z"/>
				<g>
					<path style="fill:#F7A491;" d="M1482.634,454.426c-1.944-0.709-15.596,100.938,10.308,128.905
						c25.903,27.968,76.369,37.122,94.471,15.095c20.023-24.365,19.017-133.611-21.254-162.381
						C1525.885,407.273,1482.634,454.426,1482.634,454.426z"/>
					<path style="fill:#184655;" d="M1550.827,381.67c-31.128,6.369-51.29,25.457-58.699,33.591
						c-14.133,1.675-33.344,9.513-53.182,42.47c-24.392,40.523-6.379,85.419,22.015,107.447c28.396,22.029,28,47.474,28,47.474
						l4.488-13.161c3.312-9.971,4.666-20.542,3.558-31c-0.666-6.274-2.006-13.06-4.594-18.638
						c-6.829-14.71,14.67-24.484,20.698-36.723c4.641-9.425,4.867-30.984,12.18-46.562l8.733-11.892
						c0,0,20.149-15.733,39.862-11.293S1590.765,373.499,1550.827,381.67z"/>
					<path style="fill:#F7A491;" d="M1511.787,531.217c0.205,12.402-5.412,22.553-12.549,22.676
						c-7.136,0.123-13.086-9.832-13.292-22.233c-0.206-12.401,5.411-22.554,12.547-22.676
						C1505.63,508.861,1511.583,518.816,1511.787,531.217z"/>
				</g>
				<path style="fill:#FFFFFF;" d="M1553.853,559.873l39.042-2.028c0,0-0.133,14.926-17.276,16.316
					C1554.714,575.855,1553.853,559.873,1553.853,559.873z"/>
			</g>
			<g>
				<path style="fill:#F47458;" d="M1797.499,554.189c0,0-106.932,15.431-90.591,118.628
					c15.234,96.214,106.931,76.674,130.48,71.852C1860.938,739.847,1797.499,554.189,1797.499,554.189z"/>
				<path style="fill:#B75742;" d="M1837.388,744.669c10.966-2.245,3.07-43.697-8.498-87.358
					c-39.365,7.716-83.218,16.327-120.444,23.676C1727.467,767.893,1814.53,749.349,1837.388,744.669z"/>
				<path style="fill:#96D9C9;" d="M1859.015,762.511c0,0,23.485,83.853,17.302,149.008c-5.768,60.761,2.883,70.887,25.471,68.958
					c22.588-1.929,77.375-15.431,78.337-37.131c0.961-21.7-9.132-133.095-47.098-192.891
					C1895.06,690.659,1859.015,762.511,1859.015,762.511z"/>
				<path style="fill:#50BFA5;" d="M1895.514,727.54c-15.057,10.114-36.499,34.972-36.499,34.972s23.485,83.853,17.302,149.008
					c-5.768,60.761,2.883,70.887,25.471,68.958c8.284-0.708,20.9-2.974,33.603-6.628
					C1944.399,824.515,1905.877,744.437,1895.514,727.54z"/>
				<path style="fill:#96D9C9;" d="M2121.418,350.931c0,0-177.339,129.116-234.649,168.176l-33.52,49.911l23.789,145.392
					l57.311,28.21l280.064,55.335l-6.488-31.465l-50.822-141.051l-25.952-160.582l-7.569-98.736L2121.418,350.931z"/>
				<polygon style="fill:#50BFA5;" points="2157.102,625.438 2150.298,583.338 1866.884,652.357 1877.037,714.409 1934.348,742.619 
					2214.412,797.955 2207.924,766.489 				"/>
				<path style="fill:#3C8F7C;" d="M1886.769,519.107c0,0-23.429,123.33,47.579,223.512c0,0,3.965,9.283-4.686,15.07l-52.865,13.503
					c0,0-24.51,8.68-45.176-26.523c-20.666-35.203-57.19-114.288-35.563-201.571c0,0,5.286-23.629,34.122-27.969l38.447-7.233
					C1868.627,507.896,1885.688,505.243,1886.769,519.107z"/>
				<path style="fill:#256653;" d="M2121.418,350.931c0,0,46.137-33.997,72.809-33.274c26.674,0.723,53.347,36.167,70.647,65.101
					c17.302,28.934,62.718,142.499,67.042,219.172c4.326,76.674,3.604,185.898-33.882,198.919
					c-37.485,13.02-83.622-2.894-83.622-2.894s-60.555-52.08-95.878-214.109C2083.211,421.818,2121.418,350.931,2121.418,350.931z"
					/>
				<path style="fill:#3C8F7C;" d="M2271.482,805.188c0,0,43.123-56.055,21.146-207.407
					c-34.603-238.298-121.829-274.337-121.829-274.337s-64.563,49.199-2.885,279.485
					C2218.737,792.685,2271.482,805.188,2271.482,805.188z"/>
				<path style="fill:#F47458;" d="M2147.271,506.025c4.188,28.056,10.803,60.167,20.643,96.904
					c4.926,18.386,9.867,35.09,14.778,50.298c26.818-9.319,70.19-32.667,51.668-91.892
					C2217.199,506.459,2172.52,503.105,2147.271,506.025z"/>
				<path style="fill:#B75742;" d="M2167.914,602.929c4.926,18.386,9.867,35.09,14.778,50.298
					c26.448-9.19,68.989-32.026,52.396-89.458l-72.892,16.854C2163.971,587.866,2165.869,595.292,2167.914,602.929z"/>
				<path style="opacity:0.3;fill:#3C8F7C;" d="M1934.348,742.619c-22.253-31.396-35.23-65.065-42.561-96.5l-93.689,17.742
					c9.017,34.877,23.234,63.282,33.523,80.808c20.666,35.203,45.176,26.523,45.176,26.523l52.865-13.503
					C1938.313,751.902,1934.348,742.619,1934.348,742.619z"/>
			</g>
			<path style="fill:#F7A491;" d="M1865.073,854.116c0-9.792,1.442-16.967,6.665-20.644c5.223-3.677,16.449-7.969,17.109-6.979
				c0.66,0.991,0.99,11.227-16.18,24.435C1864.413,855.55,1865.073,854.116,1865.073,854.116z"/>
		</g>
	</g>
</g>
</svg>
