<?xml version="1.0" encoding="utf-8"?>
<!-- Generator: Adobe Illustrator 27.5.0, SVG Export Plug-In . SVG Version: 6.00 Build 0)  -->
<svg version="1.1" id="_x3C_Layer_x3E_" xmlns="http://www.w3.org/2000/svg" xmlns:xlink="http://www.w3.org/1999/xlink" x="0px"
	 y="0px" viewBox="0 0 2975 1700" style="enable-background:new 0 0 2975 1700;" xml:space="preserve">
<rect style="fill:#FFFFFF;" width="2975" height="1700"/>
<g>
	<path style="fill:#FCECDB;" d="M1787.209,1087.003c-140.555,129.262-315.422,129.013-493.298,57.339h-0.009
		c-104.103-41.922-214.215-114.676-274.065-208.435c-80.946-125.09-52.713-232.695,9.714-367.275
		c82.852-178.744,216.945-284.705,414.332-262.845c253.261,28.039,413.146,212.239,456.895,456.895
		C1922.824,885.918,1876.333,1005.06,1787.209,1087.003z"/>
	<path style="fill:#FCECDB;" d="M304.944,1459.176c0,0-154.82-522.671,129.294-680.991
		c284.116-158.32,455.388,94.271,555.296,226.118s531.447,392.859,793.131,147.385c275.688-258.609,412.464-332.006,609.159-338.251
		c196.695-6.243,115.52,205.005,280.992,286.71c165.474,81.704,85.175,343.625-68.249,362.527L304.944,1459.176z"/>
	<g>
		<path style="fill:#163560;" d="M2129.428,1403.699c0,0-3.338,53.828-13.752,54.601c-1.385,0.103-52.819,0.103-52.819,0.103
			l-65.659-0.381c0,0,0.43-15.82,19.622-19.165s51.317-16.833,62.943-42.199C2091.993,1369.971,2129.428,1403.699,2129.428,1403.699
			z"/>
		<path style="fill:#ED975D;" d="M2164.471,767.104c0,0-30.997,17.625-39.675,17.622c-8.677-0.001-42.738-6.584-52.232-1.732
			c-9.495,4.852-26.681,24.371-29.905,30.747c-5.799,11.465,23.342,6.401,37.117-3.365c1.998-1.417,4.486-1.943,6.88-1.42
			c7.133,1.556,21.956,4.249,29.112,1.6c9.623-3.563,60.313-7.517,60.313-7.517L2164.471,767.104z"/>
		<path style="fill:#ED7D2B;" d="M2400.302,527.047c0,0-32.132,228.378-85.34,248.834c-26.254,10.094-142.282,32.973-176.604,35.271
			c0,0-8.408-6.821-6.359-34.584c0,0,121.563-44.63,138.834-68.901c25.7-36.12-15.956-147.566,16.294-181.492
			C2319.378,492.25,2373.696,477.668,2400.302,527.047z"/>
		<path style="fill:#599DAD;" d="M2389.473,1008.197c-9.373,15.9-20.214,30.8-31.389,44.909
			c-34.536,43.599-72.129,79.547-78.679,113.526c-1.301,6.771-3.369,14.065-6.07,21.749c-2.735,7.783-6.116,15.967-10.019,24.429
			c-14.655,31.834-36.571,67.504-58.453,99.928c-37.827,56.051-68.786,93.661-68.786,93.661s-9.917,7.736-38.29,7.726
			c-7.895-0.004-34.475-4.325-34.475-4.325c2.612-6.538,33.984-80.951,72.045-175.529c15.455-38.395,31.891-79.235,47.746-118.619
			c2.112-5.259,4.225-10.496,6.315-15.688c4.848-12.054,9.617-23.917,14.276-35.47c35.736-88.809,64.202-159.525,64.202-159.525
			s142.835-54.107,157.668-19.047C2437.797,914.83,2427.834,943.15,2389.473,1008.197z"/>
		<path style="fill:#163560;" d="M2280.477,1249.922c0,0,45.373,29.154,40.97,38.624c-0.586,1.26-25.659,46.168-25.659,46.168
			l-32.341,57.143c0,0-13.604-8.087-7.168-26.475c6.436-18.389,10.319-53.012-6.161-75.529
			C2232.779,1266.165,2280.477,1249.922,2280.477,1249.922z"/>
		<path style="fill:#6BB7BF;" d="M2254.698,1305.819c0,0,31.937-29.662,36.936-48.01c0,0-116.843-139.994-142.188-171.372
			c-1.162-1.438-0.866-3.021,0.67-4.754c19.134-21.576,231.729-65.436,259.515-108.665c9.577-14.893,15-29.036,17.954-41.39
			c6.298-26.378,1.318-44.598,1.318-44.598l-212.32-6.142c0,0-176.775,110.072-196.796,185.123
			C1999.776,1141.064,2254.698,1305.819,2254.698,1305.819z"/>
		<path style="fill:#5AA9AD;" d="M2150.115,1081.684c19.134-21.576,231.729-65.436,259.515-108.665
			c9.577-14.893,15-29.036,17.954-41.39v-26.87l-90.24-14.193c0,0-25.591,78.742-101.381,108.27
			C2164.977,1026.494,2151.531,1075.57,2150.115,1081.684z"/>
		<path style="fill:#FFB27D;" d="M2274.681,512.653c42.954,11.103,114.157-28.692,114.157-28.692s-27.649-18.583-37.896-59.401
			c-0.521-2.057-0.984-4.163-1.407-6.329c-4.498-0.954-12.983-2.756-22.058-4.675l-32.806,29.391c0,0,0.747,12.205,4.852,33.18
			c0.709,3.662,1.526,7.589,2.471,11.772C2284.386,498.804,2274.681,512.653,2274.681,512.653z"/>
		<path style="fill:#F99746;" d="M2434.314,690.691c-6.15,82.745,1.941,208.594-5.037,230.389
			c-6.023,18.805-74.654,7.625-102.049,1.347c-10.139-2.322-22.42-5.642-35.105-9.566c-35.381-10.956-73.932-26.599-78.068-38.212
			c-0.159-0.457-0.297-0.901-0.383-1.337c-0.381-1.687-0.296-3.266,0.075-4.868c1.379-5.918,6.692-12.323,7.317-26.981
			c0.7-16.365,0.595-35.636,1.209-56.359c0.032-2.333,0.064-4.878,0.318-7.201l0.011-0.848c0.012-0.446,0.021-0.881,0.032-1.327
			c0.594-23.109,1.803-47.407,3.203-71.503c0.891-15.135,1.919-30.121,3.107-44.481c3.086-37.067,7.244-70.03,12.748-90.87
			c8.994-33.971,28.826-56.126,46.877-72.363l13.057-11.2c14.571,3.182,31.796,1.072,47.375-6.31
			c16.863-8.007,22.686-13.744,25.624-11.581C2413.57,497.465,2441.58,589.533,2434.314,690.691z"/>
		<path style="fill:#ED7D2B;" d="M2292.123,912.86c-35.381-10.956-73.932-26.599-78.068-38.212
			c-0.159-0.457-0.297-0.901-0.383-1.337c0.021-1.622,0.044-3.245,0.075-4.868c1.379-5.918,6.692-12.323,7.317-26.981
			c0.7-16.365,0.595-35.636,1.209-56.359c0.032-2.333,0.064-4.878,0.318-7.201l0.011-0.848c0.012-0.446,0.021-0.881,0.032-1.327
			l143.035-182.228C2365.67,593.499,2461.816,793.714,2292.123,912.86z"/>
		<path style="fill:#ED975D;" d="M2294.672,442.946c0,0,0.747,12.205,4.852,33.18c32.039-10.354,46.566-39.292,51.419-51.566
			c-0.521-2.057-0.984-4.163-1.407-6.329c-4.498-0.954-12.983-2.756-22.058-4.675L2294.672,442.946z"/>
		<path style="fill:#FFB27D;" d="M2290.361,461.443c0,0,69.864-11.66,61.934-55.057c-7.93-43.396-4.254-74.128-49.196-68.518
			c-44.942,5.609-50.559,23.748-51.435,38.877C2250.788,391.874,2271.983,463.357,2290.361,461.443z"/>
		<polygon style="fill:#4A75CB;" points="2186.932,820.309 2012.521,824.033 1962.936,671.427 1956.775,673.429 2009.194,834.756 
			2187.158,830.955 		"/>
		<path style="fill:#FFB27D;" d="M2183.596,839.453c0,0-57.183,15.076-78.626,13.494c-21.443-1.581-39.278-11.781-41.977-17.106
			s-8.367-14.767,6.232-13.023c14.599,1.743,34.529,4.846,35.148,2.041c0.618-2.805-11.901-2.537-11.901-2.537
			s-3.783-5.504,0.981-5.703c4.765-0.197,18.663-3.97,23.825-1.39c5.162,2.582,9.928,12.112,13.701,11.715
			c3.771-0.397,47.85-19.854,47.85-19.854L2183.596,839.453z"/>
		<path style="fill:#F99746;" d="M2386.121,536.418c0,0-6.759,230.529-57.387,256.726c-24.98,12.926-137.779,48.458-171.639,54.525
			c0,0-9.108-5.852-10.134-33.672c0,0,115.902-57.759,130.391-83.787c21.563-38.734-32.127-144.908-3.813-182.182
			C2301.854,510.756,2354.234,490.275,2386.121,536.418z"/>
		<path style="fill:#2B478B;" d="M2350.942,424.56c0,0,0.801-14.889-8.386-23.419c0,0,3.199-14.929-2.707-17.39
			c-5.905-2.46-7.136,10.09-9.843,8.12c-2.707-1.968-14.764-11.318-19.932-25.099c-5.167-13.779-52.46,2.91-57.974,5.393
			c-5.513,2.482-23.229-6.623-26.675-14.005c0,0,9.843-7.874,14.272-13.78c4.43-5.906,35.434-45.77,78.742-34.45
			c43.309,11.319,49.214,31.989,46.754,49.706C2362.734,377.353,2368.68,418.614,2350.942,424.56z"/>
	</g>
	<path style="fill:#2E3552;" d="M2793.808,1465.282H205.975c-1.616,0-2.939-1.322-2.939-2.938v-1.003
		c0-1.616,1.323-2.938,2.939-2.938h2587.833c1.616,0,2.938,1.322,2.938,2.938v1.003
		C2796.746,1463.96,2795.424,1465.282,2793.808,1465.282z"/>
	<g>
		<g>
			<path style="fill:#82B378;" d="M1028.473,1284.392c0,0-27.928-32.581-1.723-53.275c0,0,19.142-11.589,34.749-10.647
				c0,0-22.115,37.085-14.961,40.773c7.155,3.689,21.664-43.1,21.664-43.1s43.558-4.224,57.571,2.513
				c0,0-37.237,30.473-29.395,32.287c7.843,1.813,48.063-28.096,48.063-28.096s40.541,6.899,38.379,31.63
				c-2.161,24.731-16.131,32.368-22.271,31.71c-6.14-0.657-42.055-14.367-42.837-9.337c-0.782,5.031,20.836,21.472,35.976,22.24
				c0,0-28.582,31.521-47.579,22.425c-18.995-9.098-20.616-23.518-32.457-28.927c-11.843-5.407-21.95-5.395-17.062,0.121
				c4.889,5.518,26.32,10.878,33.092,22.855c6.771,11.979,12.846,20.057-6.807,17.1c-19.653-2.957-51.6-17.338-53.002-33.806
				C1028.473,1284.392,1028.473,1284.392,1028.473,1284.392z"/>
			<g>
				<path style="fill:#82B378;" d="M1162.901,1257.145c0,0-110.111-4.244-134.429,27.247c0,0-5.378,16.106-21.927,30.772
					l-2.579,7.031c0,0,19.08-20.119,25.908-21.337C1029.875,1300.858,1019.197,1261.845,1162.901,1257.145z"/>
				<path style="fill:#82B378;" d="M1006.546,1315.164c0,0-23.635,17.48-25.275,48.711l4.289,0.383c0,0,7.548-32.292,21.191-44.92
					C1020.396,1306.709,1006.546,1315.164,1006.546,1315.164z"/>
			</g>
		</g>
		<g>
			<path style="fill:#A8D29F;" d="M930.83,1243.418c0,0,44.426-24.878,23.693-58.641c0,0-16.585-20.731-34.355-26.063
				c0,0,9.478,50.348,0,51.532c-9.477,1.186-6.516-56.862-6.516-56.862s-46.793-22.509-65.155-20.732
				c0,0,29.023,49.163,19.546,47.979c-9.477-1.185-42.055-50.94-42.055-50.94s-47.978-8.884-55.679,19.548
				c-7.7,28.432,4.738,42.646,11.847,44.424c7.107,1.777,52.717,1.185,51.533,7.108c-1.186,5.923-31.986,15.4-49.164,10.069
				c0,0,18.955,46.794,43.833,44.424c24.877-2.369,32.577-17.77,47.979-18.953c15.399-1.185,26.653,2.961,18.954,7.107
				c-7.7,4.146-33.763,1.359-46.202,11.934c-12.439,10.575-22.509,17.09,0.593,21.829c23.101,4.739,64.564,1.777,72.856-15.993
				C930.83,1243.418,930.83,1243.418,930.83,1243.418z"/>
			<g>
				<path style="fill:#82B378;" d="M792.226,1158.123c0,0,124.389,40.278,138.604,85.295c0,0-0.592,20.14,11.847,43.239v8.886
					c0,0-13.03-30.209-20.14-34.355C922.537,1261.188,950.377,1222.094,792.226,1158.123z"/>
				<path style="fill:#82B378;" d="M942.677,1286.657c0,0,19.183,29.13,8.247,64.591l-4.936-1.327c0,0,4.791-39.056-5.246-58.698
					C930.707,1271.578,942.677,1286.657,942.677,1286.657z"/>
			</g>
		</g>
		<g>
			<path style="fill:#A8D29F;" d="M1001.506,1209.108c0,0-58.56-32.794-31.232-77.3c0,0,21.862-27.327,45.286-34.354
				c0,0-12.492,66.368,0,67.929c12.493,1.563,8.589-74.956,8.589-74.956s61.684-29.67,85.888-27.327
				c0,0-38.259,64.806-25.766,63.244c12.492-1.562,55.436-67.149,55.436-67.149s63.245-11.711,73.396,25.767
				c10.15,37.479-6.246,56.218-15.616,58.56c-9.369,2.343-69.49,1.563-67.93,9.37c1.563,7.808,42.163,20.301,64.807,13.273
				c0,0-24.985,61.684-57.779,58.56c-32.793-3.122-42.943-23.424-63.245-24.985c-20.3-1.562-35.136,3.904-24.985,9.37
				c10.15,5.465,44.506,1.79,60.903,15.729c16.396,13.94,29.67,22.529-0.781,28.776c-30.451,6.246-85.107,2.342-96.038-21.082
				C1001.506,1209.108,1001.506,1209.108,1001.506,1209.108z"/>
			<g>
				<path style="fill:#82B378;" d="M1184.213,1096.674c0,0-163.967,53.094-182.707,112.435c0,0,0.781,26.547-15.615,56.998v11.712
					c0,0,17.178-39.82,26.547-45.286C1012.438,1232.532,975.74,1181,1184.213,1096.674z"/>
				<path style="fill:#82B378;" d="M985.891,1266.106c0,0-25.287,38.398-10.871,85.141l6.506-1.747c0,0-6.315-51.483,6.915-77.377
					C1001.67,1246.229,985.891,1266.106,985.891,1266.106z"/>
			</g>
		</g>
		<path style="fill:#F1A34F;" d="M999.533,1452.609c63.352,0,114.709-51.357,114.709-114.709H884.823
			C884.823,1401.252,936.182,1452.609,999.533,1452.609z"/>
		<path style="fill:#FFB973;" d="M1027.76,1451.732c-4.665,0.582-9.423,0.878-14.252,0.878c-63.351,0-114.704-51.36-114.704-114.711
			h28.498C927.302,1396.428,971.132,1444.714,1027.76,1451.732z"/>
		<path style="fill:#F1A34F;" d="M1115.827,1458.446H883.24l0,0c0-7.815,6.336-14.151,14.151-14.151h204.283
			C1109.49,1444.295,1115.827,1450.631,1115.827,1458.446L1115.827,1458.446z"/>
		<rect x="881.052" y="1337.899" style="fill:#D86713;" width="235.8" height="3.519"/>
	</g>
	<g>
		<path style="fill:#D39E7A;" d="M2562.271,1452.202c-27.284-27.872-75.35-47.059-130.874-49.316v-92.16h85.785
			c2.124,0,4.023-1.854,5.227-4.711c0.838-2.005,1.341-4.494,1.341-7.193v-4.156c0-6.547-2.955-11.903-6.567-11.903h-85.785
			v-219.505c0-6.062-4.959-11.021-11.021-11.021l0,0c-6.063,0-11.021,4.96-11.021,11.021v219.505h-85.785
			c-3.612,0-6.567,5.356-6.567,11.903v4.156c0,2.788,0.536,5.357,1.429,7.392c1.204,2.747,3.064,4.513,5.139,4.513h85.785v92.16
			c-55.524,2.258-103.59,21.444-130.874,49.316c-1.983,2.024-3.85,4.087-5.603,6.2h294.996
			C2566.129,1456.289,2564.254,1454.227,2562.271,1452.202z"/>
		<path style="fill:#E0B594;" d="M2431.396,1403.295c-38.738,3.585-72.035,22.286-91.31,48.908
			c-1.469,2.026-2.848,4.088-4.146,6.199h-27.294c1.298-2.111,2.677-4.173,4.146-6.199c21.505-29.705,60.464-49.539,104.954-49.539
			C2422.364,1402.664,2426.918,1402.877,2431.396,1403.295z"/>
	</g>
	<path style="fill:#ED7D2B;" d="M2562.624,978.44H2270.5c-7.279,0-13.234,5.955-13.234,13.234v55.367
		c0,7.278,5.955,13.234,13.234,13.234h292.124c7.278,0,13.233-5.956,13.233-13.234v-55.367
		C2575.857,984.396,2569.902,978.44,2562.624,978.44z"/>
	<g>
		<g id="man_4_">
			<path style="fill:#FFB27D;" d="M945.54,557.237c-4.898,13.171-13.389,28.458-22.299,32.259
				c-10.103,4.31-14.316,10.398-14.316,10.398l-8.158-4.735l-9.742-5.663c0,0,0.229-1.081,0.707-2.844
				c0.468-1.754,1.2-4.199,2.189-6.906c0,0,2.988-3.841,1.158-8.671c-1.831-4.819-1.465-12.271,1.66-16.818
				c3.126-4.539,6.141-15.729,8.022-15.396c4.557,0.782-2.239,16.163-0.288,19.016c1.763,2.58,3.968,1.694,4.377,1.499
				c0.025-0.017,0.051-0.025,0.076-0.043c12.783-5.62,28.285-35.918,35.148-31.83C946.637,529.035,947.627,551.627,945.54,557.237z"
				/>
			<g>
				<path style="fill:#2B478B;" d="M901.32,575.579l16.013,11.255c1.13,0.794,2.706,0.52,3.501-0.612l41.02-58.366
					c0.795-1.13,0.519-2.707-0.611-3.502l-16.012-11.252c-1.131-0.796-2.707-0.52-3.502,0.61l-41.02,58.366
					C899.914,573.209,900.19,574.785,901.32,575.579z"/>
				<path style="fill:#233862;" d="M915.979,585.883l9.387,6.597c0.86,0.604,2.061,0.396,2.665-0.466l41.709-59.349
					c0.606-0.86,0.397-2.059-0.465-2.665l-9.387-6.596c-0.86-0.606-2.06-0.396-2.665,0.465l-41.709,59.349
					C914.91,584.078,915.119,585.277,915.979,585.883z"/>
			</g>
			<path style="fill:#233862;" d="M671.606,491.828c0,0,81.478,142.111,111.037,168.26l108.384-80.805
				c0,0,15.727,4.823,22.614,20.611c0,0-65.816,134.092-130.619,139.776c-64.803,5.685-155.755-160.724-155.755-160.724
				L671.606,491.828z"/>
			<g>
				<path style="fill:#233862;" d="M487.225,1458.4h-47.077c-5.927-3.22-11.206-10.586-12.876-21.571
					c-2.299-15.167-19.297-23.437-22.977-35.845c-3.67-12.398,15.167-29.857,15.167-29.857l3.151-4.063l3.278-4.215l31.246,7.357
					c0,0,0.774,7.443,1.243,16.922c0.34,6.839,0.52,14.741,0.136,21.673c-0.919,16.539,4.625,34.354,19.323,37.573
					C488.707,1448.751,488.222,1455.198,487.225,1458.4z"/>
				<path style="fill:#233862;" d="M760.438,1458.4h-107.66c-5.177-6.319-3.27-29.637-2.486-37.249
					c0.161-1.533,0.272-2.428,0.272-2.428s36.765-29.406,41.814-6.89c0.153,0.707,0.341,1.396,0.545,2.078
					c6.361,21.061,34.898,30.632,51.378,33.298C755.014,1448.947,758.974,1454.517,760.438,1458.4z"/>
				<path style="fill:#F99746;" d="M739.925,857.45c0,0-5.583,69.649-12.144,153.371c-8.918,113.729-19.642,253.428-20.702,279.892
					c-1.834,45.955-9.194,119.464-9.194,119.464s-17.45,17.463-52.378,10.103c0,0-31.124-104.935-40.015-215.962
					c-0.138-1.819-0.275-3.653-0.413-5.486c-8.271-113.026-21.131-351.029-21.131-351.029L739.925,857.45z"/>
				<path style="fill:#ED7D2B;" d="M739.925,857.45c0,0-5.583,69.649-12.144,153.371l-122.289,193.496
					c-0.138-1.819-0.275-3.653-0.413-5.486c-8.271-113.026-21.131-351.029-21.131-351.029L739.925,857.45z"/>
				<path style="fill:#F99746;" d="M714.432,865.722c0,0-100.62,252.241-166.782,370.781
					c-66.163,118.54-86.838,151.62-86.838,151.62s-37.905-15.162-41.351-25.5c0,0,25.3-228.847,69.608-284.633
					c25.035-31.522,54.445-126.121,55.824-159.201c1.379-33.082,8.959-98.554,8.959-98.554L714.432,865.722z"/>
			</g>
			<path style="fill:#FFB27D;" d="M689.383,498.006c-39.318,12.407-107.353-21.078-107.353-21.078s36.253-27.208,34.353-83.781
				l30.402,24.502l20.652,16.641c0,0-0.085,9.81-2.343,27.004c-0.596,4.522-1.336,9.563-2.273,15.074
				C679.7,485.632,689.383,498.006,689.383,498.006z"/>
			<path style="fill:#ED975D;" d="M667.438,434.289c0,0-0.085,9.81-2.343,27.004c-22.882-3.927-48.839-40.911-48.839-40.911
				c11.65-3.364,21.852-3.969,30.529-2.733L667.438,434.289z"/>
			<path style="fill:#FFB27D;" d="M679.462,433.357c0,0-64.946,10.789-71.045-29.76c-6.096-40.55-18.585-66.466,22.625-75.07
				c41.21-8.604,51.611,5.655,56.938,18.695C693.308,360.262,696.2,429.505,679.462,433.357z"/>
			<path style="fill:#2B478B;" d="M744.263,863.252c-1.183,0.983-2.558,1.575-4.132,1.575c-14.766-0.201-57.823,8-94.256,4.259
				c-30.714-2.949-57.899-12.047-87.092-25.134c-3.878-1.737-12.799-6.5-12.6-10.833c0.131-4.744,0.602-11.626,1.194-20.293
				c2.065-30.132,5.667-81.962,2.156-141.756c-0.632-11.134-0.963-22.179-1.004-33.052c-0.3-81.039,15.77-152.318,48.059-176.442
				c2.759-1.977,19.691,6.299,35.248,13.973c14.375,7.092,28.749,7.874,42.331,5.125l13.582,12.008
				c16.541,15.357,34.656,36.23,42.53,67.928c6.701,26.974,10.633,75.614,12.8,126.019c0.982,22.841,1.775,45.881,1.977,67.739
				v0.782c0.19,2.167,0.19,4.534,0.19,6.7C746.039,817.962,745.247,862.459,744.263,863.252z"/>
			<path style="fill:#233862;" d="M547.378,812.826c2.065-30.132,5.667-81.962,2.156-141.756
				c-0.632-11.134-0.963-22.179-1.004-33.052c13.452-32.63,24.446-56.293,24.446-56.293h33.904
				C606.881,581.726,631.737,751.508,547.378,812.826z"/>
			<g>
				<path style="fill:#233862;" d="M536.986,894.756l-144.601-20.604c-18.819-2.683-36.411,10.52-39.093,29.341l-8.93,62.663
					c-2.682,18.819,10.522,36.411,29.341,39.093l144.6,20.606c18.82,2.682,36.411-10.522,39.094-29.342l8.929-62.663
					C569.009,915.029,555.805,897.438,536.986,894.756z"/>
				<path style="fill:#2B478B;" d="M545.151,913.438v-0.008c-4.062-10.168-12.834-18.199-23.955-20.924h-0.01
					c-0.008,0-0.017,0-0.025-0.009c-1.09-0.265-2.196-0.485-3.339-0.647l-28.792-4.096l1.925-13.523
					c0.435-3.016-0.341-6.03-2.18-8.483c-1.84-2.444-4.523-4.036-7.537-4.462l-7.511-1.073l-30.233-4.31l-5.45-0.775
					c-6.242-0.886-12.058,3.467-12.944,9.717l-1.924,13.524l-49.7-7.086c-18.889-2.691-36.543,10.561-39.242,29.449l-9.027,63.394
					c-2.69,18.89,10.56,36.542,29.449,39.233l144.339,20.575c2.546,0.366,5.067,0.435,7.527,0.238h0.01c0.008,0,0.008,0,0.017,0
					c3.952-0.298,7.749-1.286,11.267-2.844c10.611-4.685,18.668-14.58,20.422-26.852l9.036-63.385
					C548.148,924.91,547.323,918.871,545.151,913.438z M432.203,865.858c0.271-1.891,1.754-3.321,3.551-3.61
					c0.417-0.068,0.842-0.076,1.285-0.017l6.422,0.91l23.793,3.398l12.971,1.848c2.333,0.332,3.96,2.504,3.628,4.829l-1.924,13.523
					l-51.651-7.366L432.203,865.858z"/>
			</g>
			<path style="fill:#FFB27D;" d="M475.624,835.195c0.036-0.772,0.084-1.564,0.144-2.378c0.302-4.041,7.896-14.157,7.896-14.157
				l-19.038-9.883l-7.538,12.459c-11.385,9.06-11.594,9.221-9.518,26.565c1.798,15.037-8.039,15.216-7.803,25.954
				c0.234,10.739,14.069,5.463,14.069,5.463c21.442-10.067,23.218-15.135,22.557-25.344c2.032,2.886,4.31,4.568,6.244,3.31
				c1.704-1.106-1.695-5.504-3.177-15.685C479.237,839.979,477.435,837.435,475.624,835.195z"/>
			<path style="fill:#2B478B;" d="M464.352,826.414c12.209,2.381,25.443,1.416,25.443,1.416s36.245-111.969,40.911-122.197
				c4.665-10.229,107.661-131.29,107.661-131.29l-42.906-107.378c0,0-111.401,186.084-122.714,212.231
				c-18.692,43.207-25.18,140.081-25.18,140.081S454.763,824.545,464.352,826.414z"/>
			<path style="fill:#2B478B;" d="M608.365,399.694c0,0,6.664-1.114,5.59-10.294c-1.075-9.18-1.062-21.18,6.402-18.942
				c7.464,2.235,7.835,8.212,10.902,4.722c3.066-3.489,3.122-18.191,25.33-19.215c22.208-1.024,31.233,6.706,41.561,2.165
				c10.328-4.54,10.873-20.171,10.873-20.171s-2.938,5.582-7.373,7.356c0,0,17.228-23.566-2.719-39.726
				c-19.947-16.159-40.288-5.581-51.834-4.881c-25.434,1.54-41.864,3.066-50.174,19.779
				C588.615,337.201,592.044,383.607,608.365,399.694z"/>
		</g>
	</g>
	<g>
		<defs>
			<path id="SVGID_1_" d="M1787.209,1087.003c-140.555,129.262-315.422,129.013-493.298,57.339h-0.009
				c-104.103-41.922-214.215-114.676-274.065-208.435c-80.946-125.09-52.713-232.695,9.714-367.275
				c82.852-178.744,216.945-284.705,414.332-262.845c253.261,28.039,413.146,212.239,456.895,456.895
				C1922.824,885.918,1876.333,1005.06,1787.209,1087.003z"/>
		</defs>
		<clipPath id="SVGID_00000044176153706582919750000006938047078599688125_">
			<use xlink:href="#SVGID_1_"  style="overflow:visible;"/>
		</clipPath>
		<g style="clip-path:url(#SVGID_00000044176153706582919750000006938047078599688125_);">
			<g>
				<g>
					<path style="fill:#ED975D;" d="M1528.16,840.32c0,0-65.717-13.228-76.695-12.184c-10.979,1.044-49.016,18.138-49.444,21.266
						c-0.429,3.129,1.461,5.619,8.115,5.894c6.655,0.274,28.46-3.109,27.142-0.422c-1.319,2.688-63.998,16.722-64.363,29.419
						c-0.363,12.697,34.772,35.362,63.98,36.179c29.208,0.817,85.664-34.571,90.569-35.129
						C1569.061,880.611,1528.16,840.32,1528.16,840.32z"/>
					<g>
						<path style="fill:#ED7D2B;" d="M1887.124,694.264c-25.671,31.969-47.073,56.756-58.353,65.766
							c-8.959,7.165-20.307,14.492-33.313,21.828c-93.695,52.877-273.903,106.53-273.903,106.53s-0.128-0.085-0.356-0.256
							c-2.262-1.648-14.654-11.177-22.5-27.046c-6.859-13.881-5.448-22.491-3.409-27.005c1.241-2.746,2.712-3.986,2.712-3.986
							s215.951-138.015,233.223-152.388c9.792-8.152,45.263-90.729,74.154-160.736c4.037,5.857,7.947,11.808,11.738,17.842
							C1847.429,582.932,1870.82,636.66,1887.124,694.264z"/>
					</g>
					<g>
						<path style="fill:#6BB7BF;" d="M1888.602,938.656c-1.359,3.859-2.787,7.701-4.283,11.51
							c-7.004,17.875-15.453,35.155-25.229,51.697v0.008c-5.797,9.843-12.07,19.422-18.784,28.713
							c-15.063,20.876-32.334,40.298-51.527,57.944c0.103-1.444,0.213-2.89,0.315-4.327c0.152-2.226,0.314-4.437,0.467-6.629
							c0.349-4.862,0.689-9.64,1.02-14.322c0.136-1.819,0.264-3.622,0.392-5.406c0.824-11.594,1.606-22.585,2.337-32.896
							c0.213-2.966,0.417-5.873,0.621-8.729c0.06-0.85,0.119-1.692,0.178-2.533c0.128-1.674,0.238-3.34,0.357-4.98
							c0.111-1.487,0.213-2.949,0.314-4.403c0.009-0.153,0.018-0.298,0.034-0.441c0.102-1.479,0.204-2.942,0.306-4.387
							c0.179-2.439,0.35-4.819,0.51-7.157c0.103-1.453,0.205-2.881,0.307-4.292c0.152-2.201,0.306-4.344,0.451-6.435
							c0.042-0.502,0.076-1.012,0.109-1.514c0.077-0.994,0.145-1.988,0.213-2.957c0.034-0.493,0.068-0.978,0.103-1.453
							c0.008-0.06,0.008-0.12,0.008-0.179c0.136-1.87,0.263-3.698,0.392-5.466c0.008-0.094,0.016-0.188,0.016-0.281
							c0.094-1.291,0.188-2.559,0.273-3.79c0.025-0.417,0.059-0.825,0.084-1.225c0.052-0.705,0.104-1.402,0.145-2.091
							c0.043-0.561,0.086-1.122,0.119-1.674c0.272-3.859,0.527-7.387,0.748-10.549c0.034-0.451,0.068-0.901,0.094-1.335
							c0.034-0.45,0.068-0.892,0.094-1.325c0.059-0.834,0.119-1.642,0.17-2.414c0.398-5.585,0.68-9.656,0.85-12.045
							c0.018-0.247,0.034-0.477,0.051-0.689c0.009-0.068,0.009-0.136,0.018-0.204c0.018-0.221,0.025-0.417,0.033-0.586
							c0.051-0.672,0.077-1.021,0.077-1.021L1888.602,938.656z"/>
						<path style="fill:#599DAD;" d="M1888.602,938.656c-1.359,3.859-2.787,7.701-4.283,11.51
							c-7.004,17.875-15.453,35.155-25.229,51.697v0.008c-5.797,9.843-12.07,19.422-18.784,28.713
							c-15.063,20.876-32.334,40.298-51.527,57.944c0.103-1.444,0.213-2.89,0.315-4.327c0.152-2.226,0.314-4.437,0.467-6.629
							c0.349-4.862,0.689-9.64,1.02-14.322c0.136-1.819,0.264-3.622,0.392-5.406c0.824-11.594,1.606-22.585,2.337-32.896
							c0.213-2.966,0.417-5.873,0.621-8.729c0.06-0.85,0.119-1.692,0.178-2.533c0.128-1.674,0.238-3.34,0.357-4.98
							c0.111-1.487,0.213-2.949,0.314-4.403c0.009-0.153,0.018-0.298,0.034-0.441c0.102-1.479,0.204-2.942,0.306-4.387
							c0.179-2.439,0.35-4.819,0.51-7.157c0.103-1.453,0.205-2.881,0.307-4.292c0.152-2.201,0.306-4.344,0.451-6.435
							c0.042-0.502,0.076-1.012,0.109-1.514c0.077-0.994,0.145-1.988,0.213-2.957c0.034-0.493,0.068-0.978,0.103-1.453
							c0.008-0.06,0.008-0.12,0.008-0.179c0.136-1.87,0.263-3.698,0.392-5.466c0.008-0.094,0.016-0.188,0.016-0.281
							c0.094-1.291,0.188-2.559,0.273-3.79c0.025-0.417,0.059-0.825,0.084-1.225c0.052-0.705,0.104-1.402,0.145-2.091
							c0.043-0.561,0.086-1.122,0.119-1.674c0.272-3.859,0.527-7.387,0.748-10.549c0.034-0.451,0.068-0.901,0.094-1.335
							c0.034-0.45,0.068-0.892,0.094-1.325c0.059-0.834,0.119-1.642,0.17-2.414c0.398-5.585,0.68-9.656,0.85-12.045
							c0.018-0.247,0.034-0.477,0.051-0.689c0.009-0.068,0.009-0.136,0.018-0.204c0.018-0.221,0.025-0.417,0.033-0.586
							c0.051-0.672,0.077-1.021,0.077-1.021L1888.602,938.656z"/>
					</g>
					<path style="fill:#F99746;" d="M1902.857,762.749c10.964,61.284,5.04,121.177-14.256,175.907
						c-1.359,3.859-2.787,7.701-4.283,11.51c-7.004,17.875-15.453,35.155-25.229,51.697v0.008
						c-5.797,9.843-12.07,19.422-18.784,28.713c-19.253-2.779-34.918-5.058-44.574-5.304c-0.842-0.034-1.648-0.145-2.423-0.332
						c-2.158-0.501-4.063-1.581-5.721-3.103c-1.912-1.657-0.102-90.61,5.764-202.648c0.17-4.318,0.34-9.069,0.9-13.362l0.043-1.581
						c0.365-7.395,0.748-14.866,1.164-22.396c0.246-4.344,0.493-8.704,0.757-13.091c1.811-29.878,4.054-60.442,6.494-90.924
						c0.238-2.925,0.468-5.848,0.697-8.755c3.851-46.912,8.372-93.024,13.71-134.275c30.312,48.119,53.703,101.848,70.007,159.451
						C1893.439,716.543,1898.684,739.408,1902.857,762.749z"/>
				</g>
				<g>
					<path style="fill:#2A4E96;" d="M1096.505,928.269c-1.071-31.365-2.669-68.723-4.778-109.072
						c-0.169-4.318-0.356-9.069-0.9-13.362l-0.067-1.581c-0.171-3.578-0.34-7.173-0.527-10.785c-0.102-2.041-0.213-4.081-0.323-6.13
						c-0.322-6.145-0.68-12.342-1.063-18.572c-1.811-29.878-4.063-60.442-6.477-90.924c-0.255-2.925-0.485-5.848-0.723-8.755
						c-3.553-43.461-7.693-86.232-12.537-125.086v-0.018c-0.034-0.221-0.061-0.434-0.085-0.654
						c-0.604-4.879-1.242-9.725-1.871-14.476c-1.266-9.579-2.583-18.887-3.952-27.854c-1.87,3.06-3.715,6.154-5.524,9.265
						c-10.711,18.31-20.681,37.536-29.963,57.562c-18.93,40.809-34.977,84.958-48.407,131.437c-0.085,0.297-0.17,0.586-0.255,0.884
						c-4.369,15.173-7.396,30.158-9.172,44.948v0.009c-0.264,2.099-0.493,4.206-0.697,6.307v0.008
						c-6.451,66.861,12.598,129.43,48.773,185.334c1.232,1.931,2.507,3.852,3.8,5.764c2.55,3.799,5.193,7.573,7.913,11.305
						c1.912,2.644,3.868,5.271,5.873,7.88c0.409,0.552,0.834,1.096,1.267,1.648c13.813,17.893,29.377,34.995,46.385,51.23
						c2.755,2.627,5.542,5.236,8.373,7.82c0.697,0.637,1.411,1.284,2.116,1.921c1.386-0.587,2.651-1.429,3.808-2.474
						C1098.715,1020.775,1098.418,983.979,1096.505,928.269z"/>
					<path style="fill:#1E3D70;" d="M1096.505,928.269c-50.38-52.794-92.369-117.589-126.625-183.166v-0.009
						c1.776-14.79,4.803-29.775,9.172-44.948c0.085-0.298,0.17-0.587,0.255-0.884c13.431-46.479,29.478-90.628,48.407-131.437
						c30.923,44.2,52.598,84.882,53.933,101.262c0.237,2.907,0.468,5.83,0.723,8.755c2.413,30.481,4.666,61.046,6.477,90.924
						c0.383,6.23,0.74,12.428,1.063,18.572c0.11,2.049,0.222,4.089,0.323,6.13c0.188,3.612,0.356,7.207,0.527,10.785l0.067,1.581
						c0.544,4.293,0.731,9.044,0.9,13.362C1093.836,859.547,1095.434,896.904,1096.505,928.269z"/>
					<g>
						<path style="fill:#FFB27D;" d="M1325.276,844.264c0,0,67.035,0.065,77.589,3.266s44.445,27.497,44.246,30.648
							c-0.2,3.151-2.546,5.218-9.123,4.167c-6.576-1.05-27.279-8.69-26.519-5.795c0.76,2.895,59.412,29.08,57.251,41.598
							c-2.16,12.518-41.093,27.764-69.883,22.773c-28.79-4.99-77.108-50.87-81.806-52.391
							C1277.199,875.644,1325.276,844.264,1325.276,844.264z"/>
						<g>
							<path style="fill:#2A4E96;" d="M1337.42,867.146c-6.111,10.488-14.161,17.85-19.381,21.921
								c-3.178,2.482-5.303,3.739-5.303,3.739s-128.997-48.297-222.505-99.338c-30.905-16.873-57.937-34.044-75.148-49.861
								c-7.777-7.148-20.392-23.103-35.776-44.345c13.431-46.479,29.478-90.628,48.407-131.437
								c9.282-20.025,19.252-39.252,29.963-57.562c3.73,11.11,7.573,22.466,11.433,33.72v0.018
								c20.484,59.755,41.479,117.036,48.959,124.185c16.235,15.538,222.174,168.087,222.174,168.087s2.66,2.576,3.392,8.127
								C1344.305,849.433,1343.379,856.92,1337.42,867.146z"/>
						</g>
					</g>
				</g>
			</g>
			<rect x="1239.378" y="393.147" style="fill:#DDEBFD;" width="351.717" height="319.018"/>
			<rect x="1239.378" y="374.012" style="fill:#739AF0;" width="351.717" height="19.135"/>
			<g>
				<path style="fill:#DDEBFD;" d="M1251.178,379.75c-2.115,0-3.83,1.715-3.83,3.829c0,2.116,1.715,3.83,3.83,3.83
					s3.83-1.714,3.83-3.83C1255.008,381.465,1253.293,379.75,1251.178,379.75z"/>
				<path style="fill:#DDEBFD;" d="M1266.166,379.75c-2.115,0-3.83,1.715-3.83,3.829c0,2.116,1.715,3.83,3.83,3.83
					c2.116,0,3.83-1.714,3.83-3.83C1269.996,381.465,1268.282,379.75,1266.166,379.75z"/>
				<path style="fill:#DDEBFD;" d="M1281.262,379.75c-2.114,0-3.83,1.715-3.83,3.829c0,2.116,1.716,3.83,3.83,3.83
					c2.115,0,3.83-1.714,3.83-3.83C1285.092,381.465,1283.377,379.75,1281.262,379.75z"/>
			</g>
			<g>
				<path style="fill:#A8C3F7;" d="M1345.003,434.707h134.37c3.509,0,6.379-2.87,6.379-6.379l0,0c0-3.508-2.87-6.378-6.379-6.378
					h-134.37c-3.509,0-6.378,2.87-6.378,6.378l0,0C1338.625,431.837,1341.494,434.707,1345.003,434.707z"/>
				<path style="fill:#A8C3F7;" d="M1314.386,456.603h195.605c3.508,0,6.378-2.87,6.378-6.378c0-3.508-2.87-6.379-6.378-6.379
					h-195.605c-3.508,0-6.378,2.871-6.378,6.379C1308.008,453.732,1310.878,456.603,1314.386,456.603z"/>
				<path style="fill:#A8C3F7;" d="M1297.849,514.222H1533.6c2.574,0,4.679-2.104,4.679-4.678c0-2.572-2.104-4.677-4.679-4.677
					h-235.751c-2.572,0-4.678,2.105-4.678,4.677C1293.171,512.117,1295.276,514.222,1297.849,514.222z"/>
				<path style="fill:#A8C3F7;" d="M1533.6,526.447h-235.751c-2.572,0-4.678,2.105-4.678,4.677v0.001
					c0,2.572,2.105,4.677,4.678,4.677H1533.6c2.574,0,4.679-2.104,4.679-4.677v-0.001
					C1538.278,528.553,1536.174,526.447,1533.6,526.447z"/>
				<path style="fill:#A8C3F7;" d="M1533.6,548.027h-235.751c-2.572,0-4.678,2.104-4.678,4.677c0,2.573,2.105,4.679,4.678,4.679
					H1533.6c2.574,0,4.679-2.106,4.679-4.679C1538.278,550.132,1536.174,548.027,1533.6,548.027z"/>
			</g>
			<g>
				<path style="fill:#A8C3F7;" d="M1321.52,626.481h-23.671c-2.572,0-4.678,2.106-4.678,4.678c0,2.572,2.105,4.678,4.678,4.678
					h23.671c2.572,0,4.678-2.106,4.678-4.678C1326.197,628.587,1324.092,626.481,1321.52,626.481z"/>
				<path style="fill:#A8C3F7;" d="M1361.065,626.481h-23.671c-2.572,0-4.678,2.106-4.678,4.678c0,2.572,2.105,4.678,4.678,4.678
					h23.671c2.572,0,4.677-2.106,4.677-4.678C1365.742,628.587,1363.638,626.481,1361.065,626.481z"/>
			</g>
			<g>
				<path style="fill:#A8C3F7;" d="M1494.055,626.481h-23.67c-2.572,0-4.678,2.106-4.678,4.678c0,2.572,2.105,4.678,4.678,4.678
					h23.67c2.573,0,4.678-2.106,4.678-4.678C1498.732,628.587,1496.628,626.481,1494.055,626.481z"/>
				<path style="fill:#A8C3F7;" d="M1533.6,626.481h-23.669c-2.573,0-4.679,2.106-4.679,4.678c0,2.572,2.105,4.678,4.679,4.678
					h23.669c2.574,0,4.679-2.106,4.679-4.678C1538.278,628.587,1536.174,626.481,1533.6,626.481z"/>
			</g>
			<g>
				<path style="fill:#A8C3F7;" d="M1328.075,641.525c-13.749,0-24.935,11.185-24.935,24.935c0,13.747,11.186,24.934,24.935,24.934
					c13.748,0,24.934-11.187,24.934-24.934C1353.009,652.71,1341.823,641.525,1328.075,641.525z M1328.075,690.136
					c-13.056,0-23.677-10.62-23.677-23.676c0-13.056,10.621-23.678,23.677-23.678s23.677,10.622,23.677,23.678
					C1351.752,679.516,1341.131,690.136,1328.075,690.136z"/>
				<path style="fill:#A8C3F7;" d="M1328.075,646.368c-11.078,0-20.091,9.013-20.091,20.092c0,11.078,9.013,20.091,20.091,20.091
					s20.091-9.013,20.091-20.091C1348.166,655.381,1339.153,646.368,1328.075,646.368z M1328.075,685.293
					c-10.385,0-18.835-8.449-18.835-18.833c0-10.386,8.45-18.835,18.835-18.835c10.384,0,18.834,8.449,18.834,18.835
					C1346.909,676.844,1338.459,685.293,1328.075,685.293z"/>
				<path style="fill:#A8C3F7;" d="M1321.247,674.68c-2.676-0.223-4.062-1.482-4.12-3.741c-0.045-1.726,0.589-3.23,1.888-4.501
					c0.516,2.606,1.891,4.805,3.411,5.281c0.858,0.268,1.689-0.027,2.341-0.83c0.641-0.79,1.285-1.848,1.798-2.958
					c0.284,0.274,0.621,0.426,1,0.443c0.928,0.045,1.851-0.695,2.671-2.135c0.217-0.381,0.418-0.801,0.598-1.235
					c0.062,0.065,0.127,0.118,0.197,0.157c0.136,0.077,0.499,0.216,0.912-0.132c0.449-0.376,1.021-1.263,1.545-2.3
					c0.11,0.216,0.249,0.382,0.42,0.481c0.202,0.116,0.622,0.237,1.146-0.245c0.276-0.255,0.263-0.548,0.158-0.735
					c-0.14-0.252-0.58-0.432-1.229-0.541c-0.001-0.003-0.002-0.007-0.002-0.009c0.693-1.595,1.172-3.258,0.916-3.873
					c-0.108-0.262-0.347-0.409-0.621-0.384c-0.456,0.044-0.781,0.504-0.979,1.41c-0.154,0.707-0.235,1.802-0.12,2.729
					c-0.006,0.011-0.01,0.019-0.014,0.03c-0.468-0.034-0.995-0.044-1.564-0.031c-0.014-0.395-0.09-0.723-0.239-0.952
					c-0.233-0.357-0.497-0.36-0.633-0.33c-0.356,0.085-0.483,0.511-0.537,0.875c-0.02,0.134-0.035,0.299-0.045,0.484
					c-1.649,0.134-3.474,0.429-5.111,0.873c-2.216,0.599-4.034,1.421-5.427,2.428c-0.049-0.787,0.019-1.757,0.581-2.108
					c0.651-0.411,1.829,0.097,2.226,0.327l0.397-0.676c-0.075-0.044-1.846-1.061-3.037-0.317c-0.737,0.46-1.054,1.444-0.94,2.927
					c0.01,0.144,0.024,0.287,0.04,0.43c-1.71,1.494-2.583,3.335-2.528,5.437c0.068,2.649,1.786,4.248,4.839,4.503
					c2.002,0.166,4.548-0.275,7.157-1.12c5.801-1.88,11.193-5.893,12.27-9.531C1339.057,669.373,1327.774,675.224,1321.247,674.68z
					 M1334.182,658.508c-0.028,0.217-0.094,0.498-0.186,0.82C1334.047,658.994,1334.112,658.709,1334.182,658.508z
					 M1331.559,662.354c0.458-0.012,0.877-0.011,1.249,0.004c-0.456,0.929-0.956,1.744-1.394,2.12
					c-0.001-0.001-0.11-0.072-0.232-0.441C1331.364,663.457,1331.496,662.877,1331.559,662.354z M1327.352,662.794
					c0.977-0.176,1.923-0.294,2.792-0.363c0.022,0.528,0.09,1.102,0.22,1.594c-0.202,0.604-0.472,1.235-0.809,1.826
					c-0.646,1.133-1.36,1.766-1.954,1.74c-0.298-0.014-0.521-0.213-0.689-0.47C1327.565,665.455,1327.86,663.783,1327.352,662.794z
					 M1326.581,663.031c0.374,0.508,0.293,1.632-0.101,2.931C1326.238,664.778,1326.382,663.446,1326.581,663.031z M1322.027,664.43
					c1.17-0.555,2.434-0.976,3.695-1.287c-0.223,0.854-0.192,2.097-0.003,3.004c0.081,0.388,0.19,0.731,0.325,1.022
					c-0.471,1.129-1.127,2.287-1.888,3.226c-0.446,0.552-0.95,0.747-1.498,0.576c-1.168-0.365-2.544-2.386-2.956-5.135
					C1320.354,665.322,1321.13,664.852,1322.027,664.43z"/>
				<path style="fill:#A8C3F7;" d="M1340.609,664.81c0.053-0.156,0.097-0.312,0.126-0.465
					C1340.706,664.499,1340.655,664.654,1340.609,664.81z"/>
			</g>
			<g>
				<path style="fill:#A8C3F7;" d="M1501.314,642.19c-14.082,0-25.538,11.457-25.538,25.539c0,14.081,11.456,25.538,25.538,25.538
					c14.081,0,25.538-11.457,25.538-25.538C1526.853,653.646,1515.396,642.19,1501.314,642.19z M1501.314,691.979
					c-13.372,0-24.251-10.878-24.251-24.25c0-13.371,10.879-24.25,24.251-24.25c13.371,0,24.25,10.879,24.25,24.25
					C1525.564,681.101,1514.686,691.979,1501.314,691.979z"/>
				<path style="fill:#A8C3F7;" d="M1501.314,647.15c-11.348,0-20.578,9.231-20.578,20.578c0,11.347,9.23,20.578,20.578,20.578
					c11.346,0,20.577-9.231,20.577-20.578C1521.892,656.382,1512.66,647.15,1501.314,647.15z M1501.314,687.019
					c-10.637,0-19.29-8.654-19.29-19.291c0-10.636,8.653-19.29,19.29-19.29s19.29,8.654,19.29,19.29
					C1520.604,678.365,1511.951,687.019,1501.314,687.019z"/>
				<path style="fill:#A8C3F7;" d="M1514.152,666.038c0.055-0.159,0.099-0.318,0.129-0.475
					C1514.251,665.721,1514.199,665.88,1514.152,666.038z"/>
				<path style="fill:#A8C3F7;" d="M1494.32,676.148c-2.739-0.229-4.159-1.517-4.22-3.832c-0.045-1.768,0.604-3.309,1.935-4.609
					c0.526,2.668,1.936,4.922,3.492,5.407c0.88,0.275,1.731-0.027,2.398-0.85c0.656-0.81,1.316-1.891,1.841-3.029
					c0.292,0.281,0.636,0.436,1.024,0.454c0.951,0.046,1.896-0.713,2.736-2.188c0.222-0.388,0.428-0.818,0.611-1.265
					c0.063,0.066,0.131,0.122,0.203,0.163c0.139,0.078,0.51,0.221,0.935-0.137c0.459-0.384,1.045-1.293,1.582-2.355
					c0.112,0.221,0.254,0.392,0.43,0.493c0.208,0.118,0.637,0.242,1.174-0.253c0.283-0.26,0.27-0.559,0.162-0.752
					c-0.142-0.259-0.595-0.443-1.26-0.555c-0.001-0.003-0.001-0.006-0.001-0.01c0.709-1.633,1.2-3.335,0.938-3.966
					c-0.112-0.268-0.356-0.418-0.637-0.393c-0.468,0.046-0.801,0.517-1.003,1.445c-0.159,0.724-0.241,1.844-0.124,2.796
					c-0.005,0.011-0.009,0.02-0.014,0.03c-0.479-0.035-1.021-0.045-1.601-0.032c-0.016-0.403-0.094-0.74-0.247-0.976
					c-0.239-0.365-0.509-0.368-0.647-0.338c-0.366,0.088-0.495,0.523-0.551,0.897c-0.021,0.138-0.036,0.307-0.045,0.496
					c-1.689,0.137-3.558,0.44-5.236,0.894c-2.271,0.612-4.131,1.456-5.558,2.487c-0.051-0.808,0.02-1.801,0.595-2.162
					c0.667-0.42,1.874,0.101,2.281,0.337l0.404-0.692c-0.076-0.045-1.889-1.086-3.109-0.325c-0.755,0.471-1.079,1.479-0.964,2.998
					c0.011,0.146,0.025,0.294,0.042,0.44c-1.752,1.529-2.646,3.415-2.59,5.568c0.069,2.714,1.829,4.351,4.955,4.611
					c2.051,0.171,4.659-0.282,7.332-1.147c5.941-1.925,11.464-6.035,12.566-9.763
					C1512.563,670.713,1501.007,676.705,1494.32,676.148z M1507.568,659.585c-0.028,0.223-0.095,0.51-0.189,0.84
					C1507.43,660.082,1507.498,659.791,1507.568,659.585z M1504.883,663.523c0.468-0.012,0.897-0.01,1.279,0.005
					c-0.467,0.951-0.979,1.786-1.428,2.171c0,0-0.113-0.073-0.238-0.451C1504.683,664.652,1504.818,664.06,1504.883,663.523z
					 M1500.574,663.975c0.998-0.181,1.969-0.302,2.858-0.373c0.023,0.541,0.092,1.129,0.226,1.633
					c-0.207,0.619-0.482,1.266-0.828,1.871c-0.662,1.16-1.394,1.808-2.002,1.782c-0.305-0.014-0.534-0.219-0.706-0.48
					C1500.793,666.7,1501.094,664.988,1500.574,663.975z M1499.783,664.217c0.384,0.521,0.301,1.672-0.102,3.002
					C1499.434,666.007,1499.58,664.643,1499.783,664.217z M1495.119,665.648c1.199-0.566,2.494-0.998,3.786-1.317
					c-0.229,0.874-0.197,2.147-0.004,3.077c0.084,0.398,0.195,0.747,0.334,1.047c-0.481,1.156-1.154,2.343-1.934,3.304
					c-0.457,0.565-0.974,0.766-1.535,0.59c-1.196-0.374-2.605-2.442-3.027-5.259
					C1493.407,666.565,1494.201,666.083,1495.119,665.648z"/>
			</g>
			<g>
				<g>
					<path style="fill:#A8D29F;" d="M1622.017,961.386l-30.608,41.302l-3.009,4.063l-1.47,1.972l-3.767,5.092l-2.049,2.763
						l-3.773,5.092l-3.97,5.354l-3.714,5.006l-0.06,0.068v0.018l-3.485,4.7l-0.042,0.06l-0.519,0.697l-0.06,0.076
						c0,0.009,0,0.009-0.009,0.017l-0.654,0.876v0.008l-3.766,4.675v0.4l-3.519,4.76c-0.009,0-0.009,0-0.009,0l-4.548,6.146
						c-0.008,0-0.008,0-0.008,0l-3.435,4.632v0.01l-3.766,5.074v0.008l-6.298,8.492v0.008h-0.009l-0.621,0.842l-2.142,2.89v0.009
						l-4.955,6.681l-6.571,8.458v0.408l-3.408,4.599l-0.356,0.476v0.009l-4.735,6.392h-0.008l-4.412,5.959l-0.042,0.06h-0.009
						l-10.931,14.756c0,0.008,0,0.008,0,0.008l-16.277,21.956l-27.26,36.779l-3.391,4.581l-1.998,2.694
						c1.045,0.154,2.082,0.299,3.119,0.434c0.008,0.01,0.025,0.01,0.034,0.01c3.62,0.483,7.241,0.926,10.846,1.309
						c1.012,0.119,2.032,0.229,3.043,0.331c0.638,0.068,1.274,0.128,1.904,0.187c1.529,0.154,3.06,0.289,4.581,0.417
						c0.646,0.06,1.284,0.12,1.93,0.17c0.297,0.026,0.595,0.051,0.901,0.077c1.012,0.085,2.03,0.161,3.043,0.229
						c0.194,0.017,0.382,0.024,0.578,0.042c2.227,0.171,4.463,0.307,6.681,0.434c1.012,0.06,2.032,0.11,3.043,0.152
						c0.79,0.052,1.581,0.086,2.371,0.12c0.153,0.008,0.298,0.017,0.451,0.017c1.317,0.06,2.635,0.118,3.943,0.153
						c1.021,0.033,2.031,0.068,3.043,0.085c1.147,0.042,2.296,0.068,3.442,0.084c1.013,0.026,2.032,0.034,3.044,0.052
						c1.07,0.009,2.142,0.017,3.213,0.017c1.02,0.009,2.031,0.009,3.043,0c0.561,0.009,1.113,0,1.666-0.008
						c0.62,0,1.232,0,1.844-0.017c0.399,0,0.799-0.01,1.199-0.018c0.399,0,0.79-0.009,1.189-0.018
						c0.562-0.009,1.122-0.017,1.684-0.033c0.145,0,0.28,0,0.416-0.009c0.289,0,0.57-0.009,0.858-0.017
						c0.408-0.009,0.808-0.018,1.216-0.034c7.88-0.213,15.699-0.638,23.451-1.292h0.018c8.934-0.731,17.773-1.76,26.52-3.052
						c9.461-1.402,18.811-3.128,28.033-5.159c0.152-0.034,0.314-0.068,0.467-0.103c-0.008,0.043-0.017,0.077-0.033,0.119
						l8.678-2.133c1.208-0.289,2.415-0.587,3.613-0.893c11.398-2.891,22.584-6.248,33.541-10.064
						c1.836-0.638,3.663-1.284,5.482-1.946c0.45-0.162,0.909-0.332,1.36-0.502c3.408-1.241,6.791-2.532,10.14-3.876
						c0.91-0.356,1.819-0.722,2.729-1.088v-0.009c0.188-0.067,0.375-0.144,0.553-0.212v-0.009c1.071-0.434,2.134-0.876,3.188-1.317
						c0.799-0.332,1.59-0.663,2.381-1.003c0.934-0.392,1.86-0.79,2.787-1.199c0.595-0.255,1.19-0.518,1.785-0.781l0.009-0.009
						c1.036-0.459,2.074-0.918,3.11-1.386l0.009-0.008c10.174-4.574,20.111-9.555,29.775-14.918c1.021-0.561,2.04-1.131,3.052-1.709
						l0.008-0.008l53.27-71.885L1622.017,961.386z"/>
					<g>
						<path style="fill:#82B378;" d="M1541.463,1109.489v4.25l3.102-4.183l0.043-0.059v-0.009H1541.463z M1535.631,1115.1
							c-1.155,0.476-2.218,0.986-3.161,1.556l-6.8,9.171l-5.211,7.021l-0.008,9.23l6.17-8.313l14.824-20.009
							C1539.566,1113.841,1537.62,1114.292,1535.631,1115.1z M1510.514,1146.27l-0.773,1.045l-2.966,4.004l-13.396,18.07
							l-0.009,9.23l9.469-12.774l7.582-10.226l3.97-5.355l2.95-3.986h0.008v-0.008H1510.514z M1623.776,993.447l-31.875,43.01
							l-0.28,0.383l-1.93,2.601l-2.481,3.341l-1.292,1.717v0.025l-5.908,7.982l-2.456,2.907v0.399l-1.606,2.175l-2.159,2.907
							l-8.798,11.866v0.009l-0.187,0.246l-0.441,0.595v0.01l-2.798,3.773v0.399l-8.363,10.88l-3.238,4.369l-0.535,0.722
							l-8.977,12.113l-2.678,3.612l-0.042,0.06l-5.262,7.106l-6.8,9.171l-5.211,7.021l-3.766,5.092l-6.18,8.33l-0.773,1.045
							l-2.966,4.004l-13.396,18.07l-3.757,5.075l-6.366,8.584l-7.37,9.945c0.646,0.06,1.284,0.12,1.93,0.17
							c0.297,0.026,0.595,0.051,0.901,0.077c1.012,0.085,2.03,0.161,3.043,0.229c0.194,0.017,0.382,0.024,0.578,0.042l7.743-10.454
							h0.008l3.281-4.438l9.469-12.774l7.582-10.226l3.97-5.355l2.95-3.986h0.008v-0.008l3.104-4.191l6.17-8.313l14.824-20.009
							l0.018-0.018l3.102-4.183l0.043-0.059v-0.009l4.82-6.095v-0.399l3.765-5.082l3.001-4.056l5.363-7.232l3.766-5.084l4.25-5.729
							l1.623-2.192l0.629-0.842v-0.009l1.955-2.644l3.774-5.083l3.978-5.372l3.987-5.38l0.399-0.52v-0.017l3.765-5.083l2.891-3.901
							l1.351-1.794l0.009-0.033l3.468-4.684l0.299-0.399l0.756-1.021l14.526-19.601c6.596-8.9,19.15-10.77,28.05-4.174
							l74.214,55.004c9.8,7.267,11.856,21.088,4.59,30.889l-44.778,60.418l-2.635,3.562c0.799-0.332,1.59-0.663,2.381-1.003
							c0.934-0.392,1.86-0.79,2.787-1.199c0.595-0.255,1.19-0.518,1.785-0.781l0.009-0.009c1.036-0.459,2.074-0.918,3.11-1.386
							l0.009-0.008l58.166-78.473L1623.776,993.447z M1510.514,1146.27l-0.773,1.045l-2.966,4.004l-13.396,18.07l-0.009,9.23
							l9.469-12.774l7.582-10.226l3.97-5.355l2.95-3.986h0.008v-0.008H1510.514z M1535.631,1115.1
							c-1.155,0.476-2.218,0.986-3.161,1.556l-6.8,9.171l-5.211,7.021l-0.008,9.23l6.17-8.313l14.824-20.009
							C1539.566,1113.841,1537.62,1114.292,1535.631,1115.1z M1541.463,1109.489v4.25l3.102-4.183l0.043-0.059v-0.009H1541.463z"/>
					</g>
					<path style="fill:#82B378;" d="M1603.139,1184.986c0.017-0.042,0.025-0.076,0.033-0.119c-0.152,0.034-0.314,0.068-0.467,0.103
						c-9.223,2.031-18.572,3.757-28.033,5.159c-8.746,1.292-17.586,2.32-26.52,3.052h-0.018c-7.752,0.654-15.571,1.079-23.451,1.292
						c-0.408,0.017-0.808,0.025-1.216,0.034c-0.288,0.008-0.569,0.017-0.858,0.017c-0.136,0.009-0.271,0.009-0.416,0.009
						c-0.076-1.139-0.103-2.278-0.086-3.417c0.026-2.687,0.298-5.372,0.817-8.033c1.239-6.451,3.909-12.725,8.083-18.359
						c0.034-0.043,0.059-0.076,0.093-0.12c2.007-2.685,4.25-5.091,6.689-7.199c1.207-1.045,2.457-2.015,3.757-2.915
						c3.579-2.49,7.464-4.42,11.518-5.763c1.242-0.417,2.5-0.774,3.767-1.071c2.94-0.714,5.941-1.122,8.967-1.224
						c1.259-0.052,2.517-0.043,3.766,0.017c2.806,0.128,5.601,0.527,8.363,1.182c1.267,0.298,2.517,0.654,3.758,1.071
						c1.437,0.476,2.855,1.027,4.25,1.657c1.275,0.569,2.524,1.207,3.757,1.904c1.352,0.765,2.669,1.606,3.961,2.533
						c0.238,0.161,0.477,0.331,0.715,0.51c1.002,0.739,1.963,1.513,2.881,2.32v0.009c0.06,0.042,0.119,0.093,0.17,0.145
						c0.714,0.629,1.394,1.267,2.057,1.929c1.36,1.36,2.567,2.737,3.766,4.233v0.051c0.511,0.646,0.994,1.309,1.453,1.989v0.06
						c1.445,2.04,2.704,4.233,3.758,6.451v0.052c0.492,1.053,0.936,2.125,1.343,3.204v0.009c0.867,2.312,1.547,4.684,2.022,7.098
						L1603.139,1184.986z"/>
				</g>
				<path style="opacity:0.5;fill:#82B378;" d="M1564.829,1038.54v0.008l-3.766,4.727v0.349l-3.527,4.76l-4.548,6.146
					c-0.008,0-0.008,0-0.008,0l-3.435,4.632v0.01l-3.766,5.074v0.008l-6.298,8.492v0.008h-0.009l-0.621,0.842l-2.142,2.89v0.009
					l-4.955,6.681l-6.571,8.518v0.349l-3.408,4.599l-0.356,0.476v0.009l-4.743,6.392l-4.412,5.959l-0.042,0.06h-0.009
					l-10.931,14.756c0,0.008,0,0.008,0,0.008l-16.277,21.956l-27.26,36.779l-3.391,4.581l-1.998,2.694
					c1.045,0.154,2.082,0.299,3.119,0.434c0.008,0.01,0.025,0.01,0.034,0.01c3.62,0.483,7.241,0.926,10.846,1.309
					c1.012,0.119,2.032,0.229,3.043,0.331c0.638,0.068,1.274,0.128,1.904,0.187c1.529,0.154,3.06,0.289,4.581,0.417
					c0.646,0.06,1.284,0.12,1.93,0.17c0.297,0.026,0.595,0.051,0.901,0.077c1.012,0.085,2.03,0.161,3.043,0.229
					c0.194,0.017,0.382,0.024,0.578,0.042c2.227,0.171,4.463,0.307,6.681,0.434c1.012,0.06,2.032,0.11,3.043,0.152
					c0.79,0.052,1.581,0.086,2.371,0.12c0.153,0.008,0.298,0.017,0.451,0.017c0.782-3.689,1.683-7.42,2.694-11.177
					c1.53-5.695,3.298-11.45,5.261-17.213c1.505-4.438,3.129-8.874,4.837-13.295c0.672-1.75,1.36-3.492,2.065-5.235
					c0.137-0.349,0.28-0.697,0.417-1.045h0.008c2.083-5.151,4.276-10.26,6.528-15.301v-0.34c1.241-2.763,2.499-5.168,3.774-7.889
					c2.099-4.487,4.233-8.89,6.375-13.199c0.008-0.018,0.017-0.043,0.025-0.061c2.907-5.848,5.831-11.509,8.695-16.932
					c0.383-0.714,0.757-1.164,1.139-1.793v-0.34c1.267-2.39,2.525-4.735,3.766-7.013c1.845-3.4,3.647-6.673,5.39-9.801
					c0.161-0.28,0.314-0.569,0.476-0.851c1.097-1.971,2.168-3.553,3.213-5.396v-0.341c2.533-4.505,4.871-8.627,6.944-12.299
					c1.249-2.219,2.397-4.259,3.434-6.129c0.4-0.714,0.782-1.402,1.14-2.065c1.657-3.026,2.94-5.482,3.766-7.284
					c0.271-0.596,0.493-1.122,0.654-1.573L1564.829,1038.54z"/>
			</g>
			<g>
				<g>
					<path style="fill:#FFB93E;" d="M1609.837,1154.344l-0.018,20.783c0,0.212-0.008,0.416-0.025,0.62v0.009
						c-0.11,1.42-0.586,2.72-1.352,3.842c-0.909,1.343-2.218,2.405-3.757,2.991c-0.357,0.145-0.723,0.256-1.104,0.341
						c-0.119,0.025-0.238,0.051-0.357,0.076c-0.238,0.042-0.468,0.076-0.705,0.094c-0.23,0.025-0.468,0.034-0.714,0.034
						l-2.347-0.009h-9.792l-8.007-0.009h-3.757l-8.364-0.009h-3.766l-8.968-0.008h-3.765l-11.51-0.009h-3.757l-14.849-0.009
						l-4.804-0.008h-3.756l-16.788-0.017h-7.965l-6.357-0.01l-25.509-0.017h-6.077l-4.395-0.008h-1.785l-10.362-0.01l-15.231-0.008
						h-7.395v-0.009h-0.009c-4.25-0.918-8.509-1.887-12.768-2.898c-1.012-0.246-2.022-0.484-3.043-0.739
						c-2.83-0.68-5.669-1.386-8.508-2.116c-1.249-0.315-2.508-0.638-3.758-0.97c-2.15-0.553-4.3-1.122-6.451-1.708
						c-2.328-0.629-4.658-1.267-6.986-1.921c-1.021-0.289-2.032-0.578-3.044-0.867c-5.771-1.649-11.542-3.374-17.306-5.177h-0.009
						c-0.229-0.067-0.441-0.136-0.671-0.212c-1.743-0.535-3.477-1.089-5.211-1.658c-1.02-0.314-2.031-0.646-3.043-0.978
						c-16.26-5.295-32.444-11.186-48.433-17.628h4.616l86.555,0.059h3.766l23.29,0.018h5.219v0.008h11.203v0.01h14.195l0.009,0.008
						h12.188l0.008,0.009h1.14l18.896,0.008h4.395l3.765,0.009h2.5l18.87,0.009l6.281,0.009h7.19l3.104,0.008l17.349,0.008h3.637
						l3.766,0.01l7.862,0.008h15.548l11.508,0.009h0.417c0.008,0,0.008,0,0.008,0l3.332,0.008h8.977l3.766,0.009h5.21
						c0.009,0,0.018,0.009,0.018,0.009h0.341c0.356,0.017,0.713,0.06,1.063,0.127c0.501,0.086,0.994,0.222,1.461,0.408
						c1.538,0.596,2.848,1.658,3.757,3.001C1609.335,1151.156,1609.837,1152.687,1609.837,1154.344z"/>
					<path style="fill:#FFA412;" d="M1447.274,1183.023h-1.785l-10.362-0.01l-15.231-0.008h-3.757l-3.638-0.009h-0.009
						c-4.25-0.918-8.509-1.887-12.768-2.898c-1.012-0.246-2.022-0.484-3.043-0.739c-2.83-0.68-5.669-1.386-8.508-2.116
						c-1.249-0.315-2.508-0.638-3.758-0.97c-2.15-0.553-4.3-1.122-6.451-1.708c-2.328-0.629-4.658-1.267-6.986-1.921
						c-1.021-0.289-2.032-0.578-3.044-0.867c-5.771-1.649-11.542-3.374-17.306-5.177h-0.009c-0.229-0.067-0.441-0.136-0.671-0.212
						c-1.743-0.535-3.477-1.089-5.211-1.658c-1.02-0.314-2.031-0.646-3.043-0.978c-16.26-5.295-32.444-11.186-48.433-17.628h4.616
						l86.555,0.059h3.766l23.29,0.018h5.117l0.102,0.008h8.814c1.198,5.219,3.146,11.398,6.366,17.63
						c3.053,5.924,7.242,11.892,12.997,17.127c0.349,0.323,0.714,0.637,1.079,0.952c0.068,0.067,0.145,0.127,0.222,0.195
						C1446.543,1182.42,1446.908,1182.726,1447.274,1183.023z"/>
					<g>
						<rect x="1565.789" y="1146.31" style="fill:#FFA412;" width="3.762" height="36.798"/>
						<rect x="1553.055" y="1146.301" style="fill:#FFA412;" width="3.762" height="36.798"/>
						
							<rect x="1537.784" y="1146.291" transform="matrix(1 0.001 -0.001 1 1.2083 -1.5956)" style="fill:#FFA412;" width="3.762" height="36.798"/>
						<rect x="1514.376" y="1146.274" style="fill:#FFA412;" width="3.762" height="36.798"/>
						<rect x="1489.624" y="1146.258" style="fill:#FFA412;" width="3.762" height="36.798"/>
						<rect x="1451.677" y="1146.232" style="fill:#FFA412;" width="3.762" height="36.797"/>
						<rect x="1416.147" y="1146.207" style="fill:#FFA412;" width="3.762" height="36.798"/>
						<path style="fill:#FFA412;" d="M1388.199,1146.184l-0.025,31.06c-1.249-0.315-2.508-0.638-3.758-0.97l0.018-30.09H1388.199z"
							/>
						<rect x="1577.911" y="1146.318" style="fill:#FFA412;" width="3.762" height="36.798"/>
						<rect x="1585.919" y="1146.323" style="fill:#FFA412;" width="3.763" height="36.798"/>
						
							<rect x="1593.652" y="1146.329" transform="matrix(1 0.001 -0.001 1 1.2084 -1.6535)" style="fill:#FFA412;" width="3.762" height="36.798"/>
						<path style="fill:#FFA412;" d="M1603.245,1146.462l-0.024,36.54c-0.461,0.085-0.93,0.128-1.413,0.128l-2.351-0.001
							l0.025-36.799l2.351,0.002C1602.315,1146.332,1602.785,1146.377,1603.245,1146.462z"/>
						<path style="fill:#FFA412;" d="M1608.467,1149.874l-0.021,29.724c-0.913,1.346-2.224,2.402-3.761,2.995l0.025-35.719
							C1606.246,1147.469,1607.556,1148.527,1608.467,1149.874z"/>
					</g>
				</g>
				<g>
					<path style="fill:#FFB93E;" d="M1636.911,1117.565l-0.015,20.781c-0.001,1.656-0.507,3.191-1.375,4.471
						c-0.913,1.345-2.224,2.402-3.762,2.994c-0.469,0.187-0.96,0.323-1.465,0.411c-0.461,0.084-0.93,0.128-1.412,0.128
						l-331.008-0.228c-4.268-0.003-7.781-3.388-7.995-7.602c-0.004-0.139-0.008-0.275-0.008-0.413l0.014-20.78
						c0-0.138,0.004-0.274,0.009-0.411c0.203-3.896,3.228-7.082,7.058-7.535c0.311-0.04,0.629-0.058,0.948-0.058l331.008,0.228
						c0.482,0,0.951,0.045,1.412,0.129c0.504,0.089,0.996,0.227,1.465,0.413c1.535,0.594,2.846,1.653,3.756,3
						C1636.408,1114.373,1636.912,1115.91,1636.911,1117.565z"/>
					<path style="fill:#FFA412;" d="M1474.35,1146.244l-177.334-0.121c-3.807-0.004-6.943-3.388-7.136-7.602
						c-0.004-0.139-0.008-0.275-0.008-0.413l0.014-20.78c0-0.138,0.004-0.274,0.009-0.411c0.18-3.896,2.883-7.082,6.301-7.536
						c0.274-0.039,0.558-0.057,0.846-0.057l155.556,0.106c0.005,0.018,0.01,0.04,0.014,0.058
						C1455.096,1120.319,1460.876,1135.269,1474.35,1146.244z"/>
					<g>
						<rect x="1592.866" y="1109.529" style="fill:#FFA412;" width="3.762" height="36.798"/>
						<rect x="1580.131" y="1109.52" style="fill:#FFA412;" width="3.762" height="36.798"/>
						<rect x="1564.86" y="1109.51" style="fill:#FFA412;" width="3.762" height="36.798"/>
						<rect x="1541.453" y="1109.494" style="fill:#FFA412;" width="3.762" height="36.798"/>
						<rect x="1516.7" y="1109.477" style="fill:#FFA412;" width="3.762" height="36.798"/>
						<rect x="1478.753" y="1109.451" style="fill:#FFA412;" width="3.762" height="36.798"/>
						<rect x="1443.224" y="1109.426" style="fill:#FFA412;" width="3.762" height="36.798"/>
						<rect x="1411.498" y="1109.405" style="fill:#FFA412;" width="3.762" height="36.798"/>
						<rect x="1604.987" y="1109.538" style="fill:#FFA412;" width="3.762" height="36.798"/>
						<rect x="1612.995" y="1109.542" style="fill:#FFA412;" width="3.762" height="36.798"/>
						<rect x="1620.729" y="1109.548" style="fill:#FFA412;" width="3.762" height="36.798"/>
						<path style="fill:#FFA412;" d="M1630.321,1109.681l-0.024,36.542c-0.461,0.084-0.931,0.128-1.413,0.127l-2.351-0.002
							l0.025-36.798l2.352,0.002C1629.392,1109.552,1629.861,1109.596,1630.321,1109.681z"/>
						<path style="fill:#FFA412;" d="M1635.543,1113.094l-0.02,29.723c-0.914,1.346-2.225,2.402-3.762,2.995l0.025-35.718
							C1633.322,1110.688,1634.632,1111.747,1635.543,1113.094z"/>
					</g>
				</g>
				<g>
					<path style="fill:#FFB93E;" d="M1593.479,1080.795l-0.015,20.781c-0.001,1.656-0.507,3.191-1.375,4.471
						c-0.913,1.346-2.225,2.402-3.761,2.994c-0.47,0.186-0.961,0.322-1.466,0.411c-0.154,0.026-0.311,0.053-0.465,0.07
						c-0.124,0.019-0.248,0.026-0.372,0.035c-0.062,0.005-0.124,0.009-0.187,0.013c-0.127,0.005-0.256,0.01-0.389,0.01
						l-331.008-0.228c-4.268-0.003-7.78-3.388-7.995-7.603c-0.005-0.137-0.008-0.274-0.008-0.411l0.013-20.781
						c0.001-0.137,0.006-0.274,0.011-0.412c0.219-4.214,3.736-7.594,8.005-7.592l331.007,0.228c0.143,0,0.284,0.004,0.425,0.014
						c0.338,0.018,0.664,0.058,0.988,0.116c0.505,0.089,0.996,0.226,1.465,0.412c0.238,0.093,0.474,0.195,0.695,0.311
						c0.141,0.07,0.278,0.142,0.41,0.222c0.015,0.004,0.032,0.014,0.045,0.026c0.137,0.08,0.27,0.164,0.402,0.253
						c0.027,0.013,0.05,0.03,0.066,0.045c0.124,0.079,0.244,0.167,0.359,0.26c0.283,0.214,0.549,0.443,0.796,0.696
						c0.079,0.075,0.155,0.155,0.226,0.234c0.014,0.014,0.026,0.026,0.04,0.045c0.049,0.048,0.093,0.098,0.137,0.15
						c0.009,0.009,0.018,0.022,0.026,0.03c0.08,0.094,0.16,0.191,0.234,0.293c0.111,0.142,0.218,0.283,0.318,0.435
						C1592.977,1077.604,1593.48,1079.14,1593.479,1080.795z"/>
					<path style="fill:#FFA412;" d="M1430.917,1109.474l-177.333-0.121c-3.807-0.003-6.943-3.388-7.136-7.603
						c-0.005-0.137-0.008-0.274-0.008-0.411l0.013-20.781c0.001-0.137,0.006-0.274,0.011-0.412c0.197-4.214,3.338-7.594,7.146-7.592
						l155.557,0.106c0.061,0.279,0.127,0.563,0.203,0.85c2.573,10.738,8.381,25.201,21.479,35.906
						C1430.869,1109.434,1430.896,1109.456,1430.917,1109.474z"/>
					<g>
						<rect x="1549.433" y="1072.759" style="fill:#FFA412;" width="3.762" height="36.797"/>
						<rect x="1536.698" y="1072.75" style="fill:#FFA412;" width="3.762" height="36.798"/>
						<rect x="1521.427" y="1072.74" style="fill:#FFA412;" width="3.762" height="36.798"/>
						<rect x="1498.02" y="1072.724" style="fill:#FFA412;" width="3.762" height="36.798"/>
						<rect x="1473.267" y="1072.707" style="fill:#FFA412;" width="3.762" height="36.798"/>
						<rect x="1435.321" y="1072.681" style="fill:#FFA412;" width="3.762" height="36.798"/>
						<rect x="1399.791" y="1072.657" style="fill:#FFA412;" width="3.762" height="36.798"/>
						
							<rect x="1368.065" y="1072.635" transform="matrix(1 0.001 -0.001 1 1.1319 -1.4197)" style="fill:#FFA412;" width="3.762" height="36.798"/>
						<rect x="1561.555" y="1072.767" style="fill:#FFA412;" width="3.762" height="36.798"/>
						<rect x="1569.563" y="1072.772" style="fill:#FFA412;" width="3.762" height="36.798"/>
						<rect x="1577.295" y="1072.778" style="fill:#FFA412;" width="3.762" height="36.798"/>
						<path style="fill:#FFA412;" d="M1586.889,1072.911l-0.025,36.541c-0.46,0.083-0.93,0.128-1.412,0.128l-2.352-0.002
							l0.026-36.799l2.351,0.002C1585.959,1072.781,1586.428,1072.826,1586.889,1072.911z"/>
						<path style="fill:#FFA412;" d="M1592.109,1076.323l-0.02,29.724c-0.913,1.346-2.224,2.402-3.761,2.994l0.024-35.718
							C1589.89,1073.918,1591.199,1074.977,1592.109,1076.323z"/>
					</g>
				</g>
				<g>
					<path style="fill:#FFB93E;" d="M1617.84,1044.863l-0.014,20.781c-0.001,1.656-0.508,3.191-1.376,4.471
						c-0.913,1.345-2.224,2.402-3.761,2.995c-0.47,0.185-0.961,0.321-1.466,0.41c-0.46,0.083-0.93,0.128-1.412,0.128l-331.008-0.228
						c-1.283,0-2.501-0.308-3.576-0.853c-2.412-1.21-4.138-3.615-4.396-6.423c-0.009-0.106-0.018-0.217-0.022-0.327
						c-0.004-0.138-0.008-0.274-0.008-0.411l0.014-20.781c0-0.137,0.005-0.274,0.01-0.412c0.201-3.9,3.228-7.081,7.058-7.534
						c0.31-0.04,0.624-0.058,0.947-0.057l331.008,0.227c0.482,0,0.951,0.045,1.412,0.129c0.505,0.09,0.996,0.227,1.465,0.413
						c1.536,0.595,2.846,1.653,3.757,3C1617.338,1041.672,1617.841,1043.208,1617.84,1044.863z"/>
					<path style="fill:#FFA412;" d="M1455.278,1073.542l-177.333-0.121c-1.147-0.001-2.231-0.308-3.191-0.853
						c-2.156-1.211-3.69-3.615-3.923-6.423c-0.009-0.106-0.018-0.217-0.022-0.327c-0.004-0.138-0.008-0.274-0.008-0.411
						l0.014-20.781c0-0.137,0.005-0.274,0.01-0.412c0.18-3.896,2.883-7.081,6.301-7.535c0.273-0.039,0.558-0.058,0.845-0.057
						l155.556,0.106c0.005,0.018,0.01,0.04,0.014,0.058c2.419,10.552,7.975,25.02,20.722,35.905
						C1454.593,1072.979,1454.933,1073.263,1455.278,1073.542z"/>
					<g>
						<rect x="1573.793" y="1036.826" style="fill:#FFA412;" width="3.762" height="36.798"/>
						<rect x="1561.058" y="1036.818" style="fill:#FFA412;" width="3.762" height="36.797"/>
						<rect x="1545.788" y="1036.807" style="fill:#FFA412;" width="3.762" height="36.798"/>
						<rect x="1522.38" y="1036.792" style="fill:#FFA412;" width="3.762" height="36.797"/>
						<rect x="1497.627" y="1036.774" style="fill:#FFA412;" width="3.762" height="36.798"/>
						<rect x="1459.681" y="1036.748" style="fill:#FFA412;" width="3.762" height="36.798"/>
						<rect x="1424.151" y="1036.724" style="fill:#FFA412;" width="3.762" height="36.798"/>
						<rect x="1392.425" y="1036.702" style="fill:#FFA412;" width="3.762" height="36.797"/>
						<rect x="1585.915" y="1036.834" style="fill:#FFA412;" width="3.762" height="36.798"/>
						<rect x="1593.923" y="1036.84" style="fill:#FFA412;" width="3.762" height="36.798"/>
						<rect x="1601.656" y="1036.845" style="fill:#FFA412;" width="3.762" height="36.798"/>
						<path style="fill:#FFA412;" d="M1611.249,1036.978l-0.025,36.542c-0.46,0.084-0.93,0.128-1.412,0.127l-2.351-0.001
							l0.025-36.799l2.351,0.001C1610.319,1036.849,1610.788,1036.894,1611.249,1036.978z"/>
						<path style="fill:#FFA412;" d="M1616.471,1040.39l-0.021,29.725c-0.913,1.345-2.224,2.402-3.761,2.994l0.024-35.718
							C1614.25,1037.984,1615.56,1039.044,1616.471,1040.39z"/>
					</g>
				</g>
				<g>
					<path style="fill:#FFB93E;" d="M1593.529,1008.106l-0.014,20.78c-0.002,1.656-0.508,3.191-1.376,4.471
						c-0.913,1.346-2.225,2.402-3.761,2.995c-0.469,0.186-0.961,0.322-1.466,0.41c-0.155,0.026-0.31,0.053-0.465,0.07
						c-0.084,0.009-0.173,0.018-0.261,0.026c-0.085,0.01-0.173,0.014-0.262,0.018c-0.142,0.01-0.283,0.014-0.425,0.014
						l-331.008-0.227c-4.268-0.004-7.78-3.388-7.995-7.603c-0.005-0.138-0.008-0.275-0.008-0.412l0.014-20.781
						c0-0.137,0.005-0.274,0.01-0.411c0.219-4.215,3.736-7.595,8.005-7.592l331.007,0.227c0.483,0,0.952,0.045,1.413,0.13
						c0.505,0.089,0.995,0.227,1.465,0.413c1.536,0.594,2.846,1.653,3.757,3C1593.027,1004.914,1593.53,1006.451,1593.529,1008.106z
						"/>
					<path style="fill:#FFA412;" d="M1430.967,1036.784l-177.333-0.121c-3.807-0.003-6.943-3.387-7.136-7.602
						c-0.005-0.138-0.008-0.275-0.008-0.412l0.014-20.781c0-0.137,0.005-0.274,0.01-0.411c0.197-4.215,3.338-7.595,7.146-7.592
						l155.556,0.106c2.473,10.818,8.234,25.768,21.682,36.756C1430.919,1036.744,1430.945,1036.767,1430.967,1036.784z"/>
					<g>
						
							<rect x="1549.482" y="1000.069" transform="matrix(1 0.001 -0.001 1 1.0567 -1.6079)" style="fill:#FFA412;" width="3.762" height="36.798"/>
						<rect x="1536.748" y="1000.06" style="fill:#FFA412;" width="3.762" height="36.798"/>
						<rect x="1521.477" y="1000.05" style="fill:#FFA412;" width="3.762" height="36.797"/>
						<rect x="1498.069" y="1000.034" style="fill:#FFA412;" width="3.762" height="36.798"/>
						<rect x="1473.316" y="1000.017" style="fill:#FFA412;" width="3.762" height="36.798"/>
						<rect x="1435.37" y="999.991" style="fill:#FFA412;" width="3.762" height="36.798"/>
						<rect x="1399.841" y="999.966" style="fill:#FFA412;" width="3.762" height="36.798"/>
						<rect x="1368.114" y="999.944" style="fill:#FFA412;" width="3.764" height="36.798"/>
						<rect x="1561.604" y="1000.078" style="fill:#FFA412;" width="3.762" height="36.798"/>
						<rect x="1569.612" y="1000.083" style="fill:#FFA412;" width="3.762" height="36.798"/>
						<rect x="1577.345" y="1000.088" style="fill:#FFA412;" width="3.762" height="36.798"/>
						<path style="fill:#FFA412;" d="M1586.938,1000.221l-0.024,36.542c-0.461,0.083-0.93,0.127-1.413,0.127l-2.351-0.002
							l0.025-36.798l2.351,0.002C1586.009,1000.092,1586.478,1000.137,1586.938,1000.221z"/>
						<path style="fill:#FFA412;" d="M1592.16,1003.633l-0.021,29.724c-0.913,1.346-2.224,2.402-3.761,2.995l0.024-35.718
							C1589.939,1001.227,1591.249,1002.286,1592.16,1003.633z"/>
					</g>
				</g>
			</g>
			<path style="fill:#E2810E;" d="M1638.269,1175.449c-7.514,2.389-15.13,4.557-22.839,6.512c-1.198,0.306-2.405,0.604-3.613,0.893
				c-2.864,0.705-5.745,1.377-8.645,2.014c-0.152,0.034-0.314,0.068-0.467,0.103c-9.223,2.031-18.572,3.757-28.033,5.159
				c-8.746,1.292-17.586,2.32-26.52,3.052h-0.018c-7.752,0.654-15.571,1.079-23.451,1.292c-0.408,0.017-0.808,0.025-1.216,0.034
				c-0.288,0.008-0.569,0.017-0.858,0.017c-0.136,0.009-0.271,0.009-0.416,0.009c-0.562,0.017-1.122,0.024-1.684,0.033
				c-0.399,0.009-0.79,0.018-1.189,0.018c-0.4,0.008-0.8,0.018-1.199,0.018c-0.611,0.017-1.224,0.017-1.844,0.017
				c-0.553,0.008-1.105,0.017-1.666,0.008c-1.012,0.009-2.023,0.009-3.043,0c-1.071,0-2.143-0.008-3.213-0.017
				c-1.012-0.018-2.031-0.025-3.044-0.052c-1.146-0.016-2.295-0.042-3.442-0.084c-1.012-0.017-2.022-0.052-3.043-0.085
				c-1.309-0.035-2.626-0.094-3.943-0.153c-0.153,0-0.298-0.009-0.451-0.017c-0.79-0.034-1.581-0.068-2.371-0.12
				c-1.011-0.042-2.031-0.093-3.043-0.152c-2.218-0.127-4.454-0.263-6.681-0.434c-0.196-0.018-0.384-0.025-0.578-0.042
				c-1.013-0.068-2.031-0.145-3.043-0.229c-0.307-0.026-0.604-0.051-0.901-0.077c-0.646-0.05-1.283-0.11-1.93-0.17
				c-1.521-0.128-3.052-0.263-4.581-0.417c-0.63-0.059-1.267-0.118-1.904-0.187c-1.011-0.102-2.031-0.212-3.043-0.331
				c-3.604-0.383-7.226-0.825-10.846-1.309c-0.009,0-0.026,0-0.034-0.01c-1.037-0.135-2.074-0.279-3.119-0.434
				c-0.349-0.05-0.697-0.101-1.045-0.152c-0.281-0.025-0.57-0.068-0.851-0.118c-0.715-0.095-1.437-0.204-2.15-0.315
				c-0.204-0.025-0.399-0.06-0.596-0.094c-0.042-0.008-0.076-0.008-0.119-0.017l-0.009-0.009c-0.06,0-0.118-0.008-0.178-0.025
				c-2.703-0.399-5.406-0.841-8.117-1.309c-0.943-0.162-1.888-0.323-2.84-0.493c-0.943-0.17-1.887-0.34-2.838-0.519
				c-1.063-0.195-2.125-0.399-3.188-0.604c-1.012-0.187-2.032-0.383-3.044-0.578c-4.955-0.969-9.911-1.988-14.875-3.068h-0.008
				v-0.009h-0.009c-4.25-0.918-8.509-1.887-12.768-2.898c-1.012-0.246-2.022-0.484-3.043-0.739
				c-0.484-0.119-0.977-0.238-1.461-0.357c-3.852-44.88,18.428-89.913,60.418-113.041c1.504-0.824,3.025-1.615,4.547-2.372
				c1.453-0.883,2.933-1.742,4.437-2.575c56.857-31.305,128.325-10.591,159.63,46.258
				C1636.152,1128.887,1640.538,1152.618,1638.269,1175.449z"/>
			<g>
				<path style="fill:#E2810E;" d="M1660.93,1092.294c-10.515-19.108-25.576-34.136-43.086-44.472
					c-0.459-0.271-0.918-0.536-1.377-0.799c-1.241-0.715-2.491-1.403-3.757-2.058c-0.485-0.264-0.978-0.519-1.471-0.757
					c-1.241-0.637-2.49-1.249-3.757-1.827c-0.68-0.314-1.36-0.629-2.049-0.926c-1.25-0.553-2.499-1.08-3.766-1.581
					c-1.317-0.527-2.635-1.029-3.969-1.514c-0.103-0.034-0.196-0.068-0.299-0.102c-1.146-0.408-2.303-0.799-3.468-1.174
					c-0.263-0.084-0.526-0.17-0.799-0.246h-0.34c-0.289-0.136-0.484-0.264-0.893-0.383c-0.773-0.237-1.556-0.459-2.337-0.68
					c-0.392-0.11-0.791-0.221-1.182-0.323c-0.493-0.136-0.978-0.264-1.471-0.382c-1.25-0.323-2.508-0.621-3.766-0.893
					c-0.68-0.153-1.359-0.298-2.049-0.426c-1.249-0.254-2.508-0.492-3.765-0.697c-1.318-0.221-2.644-0.425-3.97-0.603
					c-1.232-0.161-2.465-0.306-3.706-0.426c-0.018-0.008-0.042-0.008-0.06-0.008c-1.41-0.145-2.822-0.255-4.241-0.349
					c-1.25-0.076-2.508-0.137-3.767-0.179c-2.778-0.085-5.566-0.076-8.355,0.034c-1.249,0.051-2.508,0.119-3.765,0.213
					c-2.993,0.212-5.984,0.543-8.976,1.003c-1.25,0.178-2.508,0.391-3.757,0.62c-3.86,0.706-7.702,1.614-11.511,2.729
					c-0.764,0.221-1.529,0.451-2.294,0.697c-0.008,0-0.008,0-0.008,0c-0.068,0.017-0.128,0.043-0.188,0.059
					c-0.118,0.034-0.236,0.078-0.348,0.111c-7.149,2.278-14.178,5.279-20.995,9.026c-0.025,0.018-0.06,0.034-0.085,0.052
					c-1.241,0.688-2.474,1.394-3.681,2.116c-0.221,0.128-0.441,0.264-0.654,0.399c-10.974,6.647-20.485,14.85-28.416,24.148
					c-0.245,0.281-0.483,0.57-0.714,0.851c-8.993,10.743-15.886,22.916-20.519,35.878c-0.009,0.018-0.018,0.043-0.018,0.06
					c-0.102,0.289-0.204,0.578-0.306,0.867c-1.521,4.36-2.779,8.814-3.773,13.328v0.34c-1.633,7.378-2.559,14.586-2.737,22.194
					v0.008c-0.289,11.576,1.139,23.281,4.395,34.739c0.187,0.688,0.391,1.368,0.604,2.058c0.671,2.209,1.411,4.411,2.227,6.604
					c0.196,0.034,0.392,0.068,0.596,0.094c0.714,0.111,1.436,0.221,2.15,0.315c0.28,0.05,0.569,0.093,0.851,0.118
					c0.348,0.052,0.696,0.103,1.045,0.152c1.045,0.154,2.082,0.299,3.119,0.434c0.008,0.01,0.025,0.01,0.034,0.01
					c3.62,0.483,7.241,0.926,10.846,1.309c1.012,0.119,2.032,0.229,3.043,0.331c0.638,0.068,1.274,0.128,1.904,0.187
					c1.529,0.154,3.06,0.289,4.581,0.417c0.646,0.06,1.284,0.12,1.93,0.17c0.297,0.026,0.595,0.051,0.901,0.077
					c1.012,0.085,2.03,0.161,3.043,0.229c0.194,0.017,0.382,0.024,0.578,0.042c2.227,0.171,4.463,0.307,6.681,0.434
					c1.012,0.06,2.032,0.11,3.043,0.152c0.79,0.052,1.581,0.086,2.371,0.12c0.153,0.008,0.298,0.017,0.451,0.017
					c1.317,0.06,2.635,0.118,3.943,0.153c1.021,0.033,2.031,0.068,3.043,0.085c1.147,0.042,2.296,0.068,3.442,0.084
					c1.013,0.026,2.032,0.034,3.044,0.052c1.07,0.009,2.142,0.017,3.213,0.017c1.02,0.009,2.031,0.009,3.043,0
					c0.561,0.009,1.113,0,1.666-0.008c0.62,0,1.232,0,1.844-0.017c0.399,0,0.799-0.01,1.199-0.018c0.399,0,0.79-0.009,1.189-0.018
					c0.562-0.009,1.122-0.017,1.684-0.033c0.145,0,0.28,0,0.416-0.009c0.289,0,0.57-0.009,0.858-0.017
					c0.408-0.009,0.808-0.018,1.216-0.034c7.88-0.213,15.699-0.638,23.451-1.292h0.018c8.934-0.731,17.773-1.76,26.52-3.052
					c9.461-1.402,18.811-3.128,28.033-5.159c0.152-0.034,0.314-0.068,0.467-0.103c-0.008,0.043-0.017,0.077-0.033,0.119l8.678-2.133
					c1.208-0.289,2.415-0.587,3.613-0.893c11.398-2.891,22.584-6.248,33.541-10.064c1.836-0.638,3.663-1.284,5.482-1.946
					c0.45-0.162,0.909-0.332,1.36-0.502c3.408-1.241,6.791-2.532,10.14-3.876c0.91-0.356,1.819-0.722,2.729-1.088v-0.009
					c0.188-0.067,0.375-0.144,0.553-0.212v-0.009c1.071-0.434,2.134-0.876,3.188-1.317c0.799-0.332,1.59-0.663,2.381-1.003
					c0.093-0.851,0.187-1.7,0.254-2.559C1677.08,1136.885,1672.644,1113.569,1660.93,1092.294z"/>
				<path style="fill:#FFB93E;" d="M1651.953,1097.232c-8.678-15.76-20.433-28.738-34.118-38.599
					c-0.45-0.331-0.909-0.654-1.377-0.978c-1.232-0.867-2.482-1.708-3.748-2.524c-0.493-0.314-0.978-0.62-1.471-0.935
					c-1.241-0.765-2.5-1.514-3.766-2.236c-0.68-0.391-1.36-0.773-2.049-1.139c-1.241-0.688-2.499-1.343-3.765-1.98
					c-1.31-0.654-2.636-1.283-3.971-1.887c-1.249-0.569-2.498-1.114-3.766-1.632c-0.449-0.188-0.9-0.374-1.351-0.553
					c-0.961-0.383-1.921-0.748-2.891-1.104c-0.824-0.307-1.648-0.596-2.473-0.885c-0.425-0.145-0.859-0.289-1.284-0.425
					c-2.754-0.918-5.542-1.726-8.355-2.432c-1.249-0.314-2.507-0.603-3.766-0.874c-2.729-0.596-5.482-1.089-8.253-1.479
					c-0.238-0.043-0.485-0.076-0.723-0.103c-1.25-0.178-2.499-0.322-3.757-0.45c-0.493-0.06-0.986-0.103-1.487-0.145h-0.366
					c-0.085-0.026-0.145-0.042-0.28-0.06c-0.009,0-0.009,0-0.017,0c-0.009,0-0.009,0-0.018,0s-0.009,0-0.017,0
					c-0.009,0-0.009,0-0.018,0s-0.009,0-0.017,0s-0.008,0-0.017,0s-0.009,0-0.018,0c-0.008,0-0.008,0-0.018,0
					c-0.008,0-0.008,0-0.017,0c-0.008,0-0.008,0-0.017,0s-0.009,0-0.017,0c-0.009,0-0.009,0-0.018,0s-0.009,0-0.017,0
					c-0.009,0-0.009,0-0.017,0c-0.01,0-0.01,0-0.018,0c-0.009,0-0.009,0-0.017,0c-0.009,0-0.009,0-0.018,0s-0.009,0-0.017,0
					s-0.008,0-0.018,0c-0.008,0-0.008,0-0.017,0s-0.009,0-0.018,0c-0.008,0-0.008,0-0.017,0c-0.008,0-0.008,0-0.018,0
					c-0.008,0-0.008,0-0.017,0c-0.008,0-0.008,0-0.017,0s-0.009,0-0.018,0c-0.008,0-0.008,0-0.017,0s-0.009,0-0.017,0
					c-0.009,0-0.009,0-0.018,0s-0.009,0-0.017,0c-0.009,0-0.009,0-0.017,0c-0.01,0-0.01,0-0.018,0s-0.008,0-0.018,0
					c-0.008,0-0.008,0-0.017,0c-0.008,0-0.008,0-0.017,0s-0.009,0-0.018,0c-0.008,0-0.008,0-0.017,0s-0.009,0-0.017,0
					c-0.009,0-0.009,0-0.018,0s-0.009,0-0.017,0c-0.009,0-0.009,0-0.017,0c-0.01,0-0.01,0-0.018,0c-0.009,0-0.009,0-0.017,0
					c-1.599-0.17-3.435-0.281-4.974-0.349c-1.257-0.051-2.508-0.077-3.765-0.077c-2.983-0.024-5.976,0.077-8.976,0.299
					c-0.469,0.033-0.936,0.067-1.411,0.11h-0.026c-0.008,0-0.008,0-0.018,0c-0.008,0-0.008,0-0.016,0c-0.009,0-0.009,0-0.018,0
					h-0.025c-0.008,0-0.008,0-0.018,0c-0.008,0-0.008,0-0.017,0c-0.008,0-0.008,0-0.017,0s-0.009,0-0.018,0
					c-0.008,0-0.008,0-0.017,0s-0.009,0-0.017,0h-0.009c-0.008,0-0.008,0-0.018,0h-0.008c-0.009,0-0.009,0-0.018,0h-0.009
					c-0.008,0-0.008,0-0.016,0c-0.009,0-0.009,0-0.018,0h-0.009c-0.008,0-0.008,0-0.017,0h-0.162
					c-0.06,0.017-0.102,0.034-0.195,0.06c-0.009,0-0.017,0-0.017,0c-0.009,0-0.009,0-0.017,0c-0.01,0-0.01,0-0.018,0
					c-0.009,0-0.009,0-0.017,0c-0.009,0-0.009,0-0.018,0s-0.009,0-0.017,0c-0.009,0-0.009,0-0.018,0c-0.008,0-0.008,0-0.017,0
					s-0.009,0-0.018,0c-0.008,0-0.008,0-0.017,0h-0.289c-4.012,0.365-7.803,0.951-11.789,1.759
					c-1.259,0.246-2.508,0.519-3.766,0.815c-7.098,1.65-14.127,3.987-20.995,7.047c-1.258,0.553-2.517,1.14-3.766,1.752
					c-0.221,0.102-0.434,0.212-0.654,0.322c-1.563,0.766-3.111,1.572-4.649,2.423c-10.761,5.925-20.223,13.285-28.288,21.718
					c-0.204,0.213-0.407,0.425-0.604,0.638c-0.067,0.067-0.136,0.145-0.204,0.212v0.009c-9.902,10.565-17.638,22.754-22.984,35.869
					c-0.008,0.018-0.018,0.035-0.025,0.06c-4.768,11.688-7.642,24.098-8.482,36.738c-0.399,5.838-0.349,11.729,0.152,17.62
					c0.535,6.417,1.606,12.834,3.238,19.175c0.4,1.6,0.842,3.18,1.326,4.761c0.952,0.17,1.896,0.331,2.84,0.493
					c2.711,0.468,5.414,0.909,8.117,1.309c0.06,0.018,0.118,0.025,0.178,0.025l0.009,0.009c0.043,0.009,0.077,0.009,0.119,0.017
					c0.196,0.034,0.392,0.068,0.596,0.094c0.714,0.111,1.436,0.221,2.15,0.315c0.28,0.05,0.569,0.093,0.851,0.118
					c0.348,0.052,0.696,0.103,1.045,0.152c1.045,0.154,2.082,0.299,3.119,0.434c0.008,0.01,0.025,0.01,0.034,0.01
					c3.62,0.483,7.241,0.926,10.846,1.309c1.012,0.119,2.032,0.229,3.043,0.331c0.638,0.068,1.274,0.128,1.904,0.187
					c1.529,0.154,3.06,0.289,4.581,0.417c0.646,0.06,1.284,0.12,1.93,0.17c0.297,0.026,0.595,0.051,0.901,0.077
					c1.012,0.085,2.03,0.161,3.043,0.229c0.194,0.017,0.382,0.024,0.578,0.042c2.227,0.171,4.463,0.307,6.681,0.434
					c1.012,0.06,2.032,0.11,3.043,0.152c0.79,0.052,1.581,0.086,2.371,0.12c0.153,0.008,0.298,0.017,0.451,0.017
					c1.317,0.06,2.635,0.118,3.943,0.153c1.021,0.033,2.031,0.068,3.043,0.085c1.147,0.042,2.296,0.068,3.442,0.084
					c1.013,0.026,2.032,0.034,3.044,0.052c1.07,0.009,2.142,0.017,3.213,0.017c1.02,0.009,2.031,0.009,3.043,0
					c0.561,0.009,1.113,0,1.666-0.008c0.62,0,1.232,0,1.844-0.017c0.399,0,0.799-0.01,1.199-0.018c0.399,0,0.79-0.009,1.189-0.018
					c0.562-0.009,1.122-0.017,1.684-0.033c0.145,0,0.28,0,0.416-0.009c0.289,0,0.57-0.009,0.858-0.017
					c0.408-0.009,0.808-0.018,1.216-0.034c7.88-0.213,15.699-0.638,23.451-1.292h0.018c8.934-0.731,17.773-1.76,26.52-3.052
					c9.461-1.402,18.811-3.128,28.033-5.159c0.152-0.034,0.314-0.068,0.467-0.103c-0.008,0.043-0.017,0.077-0.033,0.119l8.678-2.133
					c1.208-0.289,2.415-0.587,3.613-0.893c11.398-2.891,22.584-6.248,33.541-10.064c1.836-0.638,3.663-1.284,5.482-1.946
					c0.45-0.162,0.909-0.332,1.36-0.502c3.408-1.241,6.791-2.532,10.14-3.876C1668.257,1142.69,1663.889,1118.898,1651.953,1097.232
					z"/>
				<g>
					<path style="fill:#FFA412;" d="M1643.471,1103.488c-7.156-13.005-16.651-23.936-27.659-32.555
						c-1.028-0.808-2.065-1.59-3.119-2.354c-0.484-0.357-0.978-0.706-1.47-1.037c-1.232-0.876-2.491-1.717-3.758-2.524
						c-0.68-0.434-1.359-0.859-2.048-1.275c-1.241-0.757-2.499-1.487-3.767-2.185c-1.309-0.731-2.635-1.428-3.969-2.091
						c-1.25-0.629-2.499-1.224-3.766-1.794c-1.402-0.638-2.814-1.241-4.242-1.802c-1.24-0.51-2.498-0.985-3.756-1.437
						c-0.137-0.051-0.264-0.102-0.399-0.144c-1.819-0.646-3.655-1.241-5.509-1.785c-0.816-0.247-1.632-0.477-2.448-0.697
						c-1.249-0.34-2.498-0.655-3.765-0.943c-2.967-0.688-5.959-1.25-8.977-1.692c-1.249-0.179-2.499-0.331-3.757-0.467
						c-0.374-0.043-0.757-0.085-1.14-0.119c-0.79-0.076-1.589-0.145-2.379-0.204c-0.009,0-0.009,0-0.009,0
						c-2.652-0.204-5.313-0.307-7.981-0.307c-1.258,0-2.517,0.026-3.766,0.068c-6.562,0.221-13.133,1.063-19.644,2.525
						c-1.258,0.28-2.517,0.586-3.766,0.926c-7.131,1.879-14.169,4.531-20.995,7.981c-1.121,0.569-2.235,1.156-3.349,1.769
						c-0.136,0.076-0.28,0.152-0.417,0.238c-5.822,3.238-11.271,6.952-16.303,11.126c-0.349,0.272-0.688,0.553-1.028,0.85
						c-1.105,0.927-2.185,1.888-3.247,2.865c-1.291,1.181-2.542,2.388-3.766,3.638c-8.406,8.525-15.317,18.428-20.442,29.367
						c-0.017,0.018-0.025,0.043-0.025,0.06c-0.052,0.094-0.094,0.179-0.128,0.272c-2.253,4.827-4.156,9.859-5.686,15.07v0.221
						c-0.052,0.085-0.104,0.145-0.153,0.281c-1.743,5.627-2.958,11.712-3.63,17.425c0,0.008,0,0.008,0,0.017
						c0,0.008,0,0.008,0,0.018c0,0.008,0,0.008,0,0.017s0,0.009,0,0.017c0,0.009,0,0.009,0,0.018c0,0.008,0,0.008,0,0.017
						s0,0.009,0,0.017c0,0.009,0,0.009,0,0.018s0,0.009,0,0.017c0,0.009,0,0.009,0,0.017c0,0.01,0,0.01,0,0.018
						c0,0.009,0,0.009,0,0.018c0,0.008,0,0.008,0,0.017c0,0.008,0,0.008,0,0.017s0,0.009,0,0.018c0,0.008,0,0.008,0,0.018
						c0,0.008,0,0.008,0,0.017c0,0.008,0,0.008,0,0.017s0,0.009,0,0.018c0,0.008,0,0.008,0,0.016c0,0.01,0,0.01,0,0.018
						c0,0.009,0,0.009,0,0.017c0,0.009,0,0.009,0,0.018s0,0.009,0,0.017c0,0.01,0,0.01,0,0.018s0,0.008,0,0.017s0,0.009,0,0.018
						c0,0.008,0,0.008,0,0.017s0,0.009,0,0.018c0,0.008,0,0.008,0,0.017c0,0.008,0,0.008,0,0.018c0,0.008,0,0.008,0,0.017
						c0,0.008,0,0.008,0,0.017s0,0.009,0,0.017c0,0.009,0,0.009,0,0.017c0,0.01,0,0.01,0,0.018c0,0.009,0,0.009,0,0.018
						s0,0.009,0,0.017c0,0.009,0,0.009,0,0.017c0,0.009,0,0.009,0,0.018s0,0.009,0,0.018c0,0.008,0,0.008,0,0.017
						c0,0.008,0,0.008,0,0.017s0,0.009,0,0.018c0,0.008,0,0.008,0,0.017s0,0.009,0,0.018c0,0.008,0,0.008,0,0.016
						c-0.102,0.885-0.187,1.777-0.264,2.67c-0.264,3.025-0.391,6.052-0.391,9.069c0,8.985,1.139,17.918,3.408,26.622
						c0.094,0.374,0.195,0.739,0.298,1.105c0.604,2.252,1.292,4.479,2.049,6.697c0.714,0.111,1.436,0.221,2.15,0.315
						c0.28,0.05,0.569,0.093,0.851,0.118c0.348,0.052,0.696,0.103,1.045,0.152c1.045,0.154,2.082,0.299,3.119,0.434
						c-0.391-1.036-0.773-2.082-1.121-3.128c-0.528-1.512-1.013-3.043-1.463-4.581c-0.441-1.538-0.85-2.686-1.224-4.241v-0.399
						c-2.508-10.515-3.29-21.344-2.305-32.164c0.579-6.4,1.786-12.793,3.612-19.108c0.766-2.635,1.624-5.219,2.586-7.752v-0.009
						c1.274-3.382,2.727-6.663,4.351-9.859c0-0.018,0.009-0.042,0.026-0.06c3.638-7.191,8.108-13.872,13.328-19.933
						c1.207-1.411,2.456-2.787,3.766-4.131c4.13-4.317,8.687-8.271,13.6-11.807h0.008c0.399-0.289,0.791-0.578,1.199-0.85h0.084
						c1.871-1.317,3.715-2.567,5.688-3.749c1.147-0.706,2.32-1.376,3.502-2.031c0.093-0.051,0.179-0.103,0.271-0.145
						c6.783-3.723,13.821-6.562,20.986-8.576c1.25-0.357,2.508-0.68,3.766-0.986c6.503-1.563,13.091-2.448,19.652-2.687
						c1.241-0.05,2.481-0.076,3.723-0.076h0.043c1.139,0,2.286,0.017,3.426,0.06c0,0,0,0,0.008,0
						c1.164,0.043,2.338,0.103,3.502,0.188c1.53,0.102,3.061,0.246,4.573,0.416c1.258,0.145,2.508,0.314,3.748,0.51
						c3.018,0.459,6.019,1.055,8.977,1.785c0.723,0.179,1.444,0.366,2.159,0.561c0.535,0.145,1.071,0.299,1.606,0.451
						c1.335,0.383,2.66,0.8,3.978,1.232c1.471,0.493,2.933,1.02,4.378,1.572c1.267,0.485,2.516,1.003,3.765,1.53
						c1.428,0.621,2.84,1.274,4.242,1.954c1.267,0.621,2.524,1.267,3.766,1.938c1.343,0.723,2.66,1.479,3.961,2.262
						c1.267,0.756,2.524,1.555,3.766,2.379c0.688,0.451,1.368,0.919,2.048,1.395c0.442,0.306,0.894,0.621,1.327,0.943
						c0.008,0,0.008,0,0.008,0c11.671,8.441,21.691,19.508,29.087,32.93c11.101,20.153,14.917,42.977,11.093,65.322
						c1.836-0.638,3.663-1.284,5.482-1.946c0.45-0.162,0.909-0.332,1.36-0.502
						C1658.915,1146.821,1654.691,1123.871,1643.471,1103.488z"/>
				</g>
				<g>
					<path style="fill:#FFA412;" d="M1546.613,1191.795c-2.006-2.023-3.749-4.854-5.227-8.5l-19.279,7.82
						c-0.017,1.139,0.01,2.278,0.086,3.417c0.145,0,0.28,0,0.416-0.009c0.289,0,0.57-0.009,0.858-0.017
						c0.408-0.009,0.808-0.018,1.216-0.034c7.88-0.213,15.699-0.638,23.451-1.292
						C1547.617,1192.756,1547.114,1192.296,1546.613,1191.795z M1546.613,1191.795c-2.006-2.023-3.749-4.854-5.227-8.5l-19.279,7.82
						c-0.017,1.139,0.01,2.278,0.086,3.417c0.145,0,0.28,0,0.416-0.009c0.289,0,0.57-0.009,0.858-0.017
						c0.408-0.009,0.808-0.018,1.216-0.034c7.88-0.213,15.699-0.638,23.451-1.292
						C1547.617,1192.756,1547.114,1192.296,1546.613,1191.795z M1546.613,1191.795c-2.006-2.023-3.749-4.854-5.227-8.5l-19.279,7.82
						c-0.017,1.139,0.01,2.278,0.086,3.417c0.145,0,0.28,0,0.416-0.009c0.289,0,0.57-0.009,0.858-0.017
						c0.408-0.009,0.808-0.018,1.216-0.034c7.88-0.213,15.699-0.638,23.451-1.292
						C1547.617,1192.756,1547.114,1192.296,1546.613,1191.795z M1546.613,1191.795c-2.006-2.023-3.749-4.854-5.227-8.5l-19.279,7.82
						c-0.017,1.139,0.01,2.278,0.086,3.417c0.145,0,0.28,0,0.416-0.009c0.289,0,0.57-0.009,0.858-0.017
						c0.408-0.009,0.808-0.018,1.216-0.034c7.88-0.213,15.699-0.638,23.451-1.292
						C1547.617,1192.756,1547.114,1192.296,1546.613,1191.795z M1546.613,1191.795c-2.006-2.023-3.749-4.854-5.227-8.5l-19.279,7.82
						c-0.017,1.139,0.01,2.278,0.086,3.417c0.145,0,0.28,0,0.416-0.009c0.289,0,0.57-0.009,0.858-0.017
						c0.408-0.009,0.808-0.018,1.216-0.034c7.88-0.213,15.699-0.638,23.451-1.292
						C1547.617,1192.756,1547.114,1192.296,1546.613,1191.795z M1546.613,1191.795c-2.006-2.023-3.749-4.854-5.227-8.5l-19.279,7.82
						c-0.017,1.139,0.01,2.278,0.086,3.417c0.145,0,0.28,0,0.416-0.009c0.289,0,0.57-0.009,0.858-0.017
						c0.408-0.009,0.808-0.018,1.216-0.034c7.88-0.213,15.699-0.638,23.451-1.292
						C1547.617,1192.756,1547.114,1192.296,1546.613,1191.795z M1603.232,1170.919c-0.417-1.818-1.012-3.663-1.769-5.533
						c-0.611-1.497-1.274-2.908-1.989-4.226c-0.646-1.173-1.334-2.277-2.057-3.298c-0.051-0.084-0.11-0.152-0.17-0.229v-0.009
						c-1.097-1.53-2.304-2.882-3.596-4.063c-0.017-0.018-0.025-0.026-0.043-0.043c-1.232-1.122-2.532-2.143-3.918-3.061
						c-1.198-0.773-2.447-1.479-3.757-2.107c-1.14-0.545-2.32-1.028-3.545-1.445c-0.229-0.076-0.468-0.162-0.705-0.229
						c-0.374-0.127-0.747-0.246-1.13-0.357c-0.01-0.008-0.01-0.008-0.01-0.008s0,0-0.008,0c-0.137-0.042-0.281-0.076-0.417-0.11
						c-3.527-1.021-7.36-1.666-11.508-1.947c-0.154-0.016-0.315-0.025-0.477-0.033c-1.079-0.068-2.168-0.119-3.29-0.171
						c-4.318-0.169-8.934-0.194-13.829-0.06c-2.108,0.068-4.046,0.077-5.814,0.026c-1.352-0.034-2.609-0.11-3.766-0.213
						c-0.067-0.009-0.136-0.009-0.204-0.017c-2.702-0.246-4.998-0.748-6.876-1.505c-1.887-0.765-3.417-1.802-4.59-3.111
						c-1.182-1.317-2.15-2.924-2.924-4.819c-0.077-0.195-0.153-0.391-0.222-0.586c-0.629-1.7-0.994-3.392-1.104-5.066
						c-0.06-0.985-0.009-1.938,0.153-2.873c0.145-0.833,0.374-1.648,0.688-2.439c0.672-1.674,1.76-3.221,3.273-4.641
						c0.808-0.757,1.75-1.453,2.839-2.091c0.943-0.569,2.006-1.08,3.161-1.556c1.989-0.808,3.936-1.259,5.814-1.343
						c0.009,0,0.018,0,0.018,0c1.283-0.06,2.532,0.05,3.765,0.331c1.097,0.238,2.177,0.621,3.239,1.139
						c3.97,1.946,7.207,6.002,9.707,12.155l6.689-2.712l3.766-1.529l11.509-4.667l1.972-0.798c-0.612-1.506-1.267-2.95-1.964-4.318
						v-0.4c-0.68-1.275-1.401-2.193-2.167-3.383c-0.008-0.025-0.025-0.042-0.042-0.06c-0.213-0.339-0.435-0.671-0.655-0.994
						c-0.935-1.377-1.938-2.66-2.991-3.851c-0.323-0.357-0.63-0.696-0.979-1.037v-0.018c-1.189-1.249-2.447-2.388-3.757-3.425
						c-1.352-1.07-2.762-2.022-4.241-2.847c-0.536-0.315-1.088-0.604-1.641-0.876c-0.697-0.341-1.411-0.655-2.125-0.944
						c-1.726-0.697-3.502-1.249-5.354-1.666c-0.986-0.221-1.98-0.391-3.001-0.526c-0.782-0.11-1.572-0.187-2.371-0.247
						c-0.289-0.017-0.569-0.034-0.858-0.042c-0.179-0.017-0.357-0.025-0.535-0.034c-2.916-0.102-5.908,0.11-8.968,0.646
						c-1.241,0.213-2.499,0.485-3.767,0.816c-0.11,0.018-0.212,0.052-0.322,0.076l-0.808-1.997l-3.808-9.376l-2.159-5.32
						l-4.403,1.785l-3.766,1.521l-5.091,2.066l5.083,12.537l0.356,0.876l1.241,3.06c-0.544,0.281-1.079,0.569-1.598,0.867
						c-1.683,0.926-3.256,1.904-4.735,2.949h-0.008c-2.142,1.505-4.08,3.111-5.822,4.837c-0.374,0.374-0.739,0.747-1.089,1.122
						c-0.025,0.017-0.042,0.034-0.06,0.06c-2.778,2.958-4.955,6.119-6.536,9.503c-0.799,1.708-1.428,3.468-1.887,5.253
						c0,0.008,0,0.008,0,0.008c-0.57,2.211-0.884,4.488-0.936,6.817c-0.084,4.216,0.757,8.509,2.524,12.869
						c0.323,0.781,0.655,1.547,1.004,2.278c0,0.009,0,0.009,0,0.009c0.875,1.844,1.836,3.526,2.898,5.049
						c0.289,0.425,0.586,0.841,0.9,1.231c0.851,1.123,1.769,2.143,2.745,3.069l0.332,0.307c1.139,1.045,2.354,1.997,3.629,2.847
						c1.19,0.808,2.448,1.53,3.758,2.167c1.224,0.596,2.49,1.113,3.816,1.556c2.822,0.961,5.873,1.666,9.146,2.107
						c1.649,0.23,3.357,0.393,5.126,0.485c0.511,0.025,1.028,0.051,1.556,0.076c1.224,0.052,2.481,0.094,3.757,0.111
						c3.639,0.068,7.472,0.008,11.509-0.18c0.11-0.008,0.229-0.008,0.341-0.017c1.189-0.067,2.337-0.11,3.425-0.128
						c2.177-0.033,4.148,0.034,5.916,0.196c1.079,0.093,2.1,0.238,3.052,0.434c1.377,0.264,2.635,0.629,3.766,1.08
						c0.008,0,0.017,0.008,0.025,0.008c1.921,0.773,3.519,1.862,4.785,3.256c1.275,1.394,2.346,3.17,3.222,5.32
						c0.119,0.221,0.221,0.323,0.331,0.476v0.4c0.553,1.606,0.824,3.204,0.816,4.802c0,0.74-0.068,1.472-0.204,2.193
						c-0.204,1.097-0.561,2.177-1.079,3.213c-0.663,1.344-1.59,2.61-2.771,3.8c9.461-1.402,18.811-3.128,28.033-5.159
						c0.152-0.034,0.314-0.068,0.467-0.103c0.162-0.637,0.299-1.283,0.409-1.938c0.255-1.445,0.407-2.924,0.45-4.429
						C1604.1,1176.027,1603.836,1173.495,1603.232,1170.919z M1546.613,1191.795c-2.006-2.023-3.749-4.854-5.227-8.5l-19.279,7.82
						c-0.017,1.139,0.01,2.278,0.086,3.417c0.145,0,0.28,0,0.416-0.009c0.289,0,0.57-0.009,0.858-0.017
						c0.408-0.009,0.808-0.018,1.216-0.034c7.88-0.213,15.699-0.638,23.451-1.292
						C1547.617,1192.756,1547.114,1192.296,1546.613,1191.795z M1546.613,1191.795c-2.006-2.023-3.749-4.854-5.227-8.5l-19.279,7.82
						c-0.017,1.139,0.01,2.278,0.086,3.417c0.145,0,0.28,0,0.416-0.009c0.289,0,0.57-0.009,0.858-0.017
						c0.408-0.009,0.808-0.018,1.216-0.034c7.88-0.213,15.699-0.638,23.451-1.292
						C1547.617,1192.756,1547.114,1192.296,1546.613,1191.795z M1546.613,1191.795c-2.006-2.023-3.749-4.854-5.227-8.5l-19.279,7.82
						c-0.017,1.139,0.01,2.278,0.086,3.417c0.145,0,0.28,0,0.416-0.009c0.289,0,0.57-0.009,0.858-0.017
						c0.408-0.009,0.808-0.018,1.216-0.034c7.88-0.213,15.699-0.638,23.451-1.292
						C1547.617,1192.756,1547.114,1192.296,1546.613,1191.795z M1546.613,1191.795c-2.006-2.023-3.749-4.854-5.227-8.5l-19.279,7.82
						c-0.017,1.139,0.01,2.278,0.086,3.417c0.145,0,0.28,0,0.416-0.009c0.289,0,0.57-0.009,0.858-0.017
						c0.408-0.009,0.808-0.018,1.216-0.034c7.88-0.213,15.699-0.638,23.451-1.292
						C1547.617,1192.756,1547.114,1192.296,1546.613,1191.795z M1546.613,1191.795c-2.006-2.023-3.749-4.854-5.227-8.5l-19.279,7.82
						c-0.017,1.139,0.01,2.278,0.086,3.417c0.145,0,0.28,0,0.416-0.009c0.289,0,0.57-0.009,0.858-0.017
						c0.408-0.009,0.808-0.018,1.216-0.034c7.88-0.213,15.699-0.638,23.451-1.292
						C1547.617,1192.756,1547.114,1192.296,1546.613,1191.795z M1546.613,1191.795c-2.006-2.023-3.749-4.854-5.227-8.5l-19.279,7.82
						c-0.017,1.139,0.01,2.278,0.086,3.417c0.145,0,0.28,0,0.416-0.009c0.289,0,0.57-0.009,0.858-0.017
						c0.408-0.009,0.808-0.018,1.216-0.034c7.88-0.213,15.699-0.638,23.451-1.292
						C1547.617,1192.756,1547.114,1192.296,1546.613,1191.795z M1546.613,1191.795c-2.006-2.023-3.749-4.854-5.227-8.5l-19.279,7.82
						l-4.666,1.887c0.221,0.544,0.442,1.08,0.68,1.599c0.399,0,0.799-0.01,1.199-0.018c0.399,0,0.79-0.009,1.189-0.018
						c0.562-0.009,1.122-0.017,1.684-0.033c0.145,0,0.28,0,0.416-0.009c0.289,0,0.57-0.009,0.858-0.017
						c0.408-0.009,0.808-0.018,1.216-0.034c7.88-0.213,15.699-0.638,23.451-1.292
						C1547.617,1192.756,1547.114,1192.296,1546.613,1191.795z"/>
				</g>
			</g>
		</g>
	</g>
</g>
</svg>
