<?xml version="1.0" encoding="utf-8"?>
<!-- Generator: Adobe Illustrator 27.5.0, SVG Export Plug-In . SVG Version: 6.00 Build 0)  -->
<svg version="1.1" xmlns="http://www.w3.org/2000/svg" xmlns:xlink="http://www.w3.org/1999/xlink" x="0px" y="0px"
	 viewBox="0 0 500 500" style="enable-background:new 0 0 500 500;" xml:space="preserve">
<g id="BACKGROUND">
	<rect x="-0.01" y="-0.01" style="fill:#95CBE0;" width="500.02" height="500.02"/>
</g>
<g id="OBJECTS">
	<ellipse style="fill:#F6F6F6;" cx="249.951" cy="259.13" rx="179.15" ry="215.334"/>
	<g>
		<g>
			<path style="fill:#72A7BC;" d="M206.279,458.93c-3.659-9.814-8.372-19.226-13.996-28.06c-0.152-0.915-0.305-1.83-0.464-2.744
				c0.068-0.209,0.086-0.45,0.032-0.722c-0.91-4.643-0.226-9.321,0.406-13.954c0.582-4.27,0.988-8.513,0.577-12.82
				c-0.76-7.965-3.866-15.686-8.673-22.066c-2.734-3.63-6.065-6.823-9.817-9.387c-0.788-0.539-1.883-0.243-2.245,0.659
				c-3.005,7.485-3.324,15.864-0.961,23.568c1.264,4.12,3.395,7.87,5.609,11.542c2.292,3.8,4.574,7.598,6.468,11.616
				c0.55,1.166,1.065,2.346,1.541,3.54c-5.363-7.009-11.344-13.556-17.846-19.533c0.009-0.191-0.017-0.392-0.091-0.603
				c-0.526-1.498-1.202-2.896-1.99-4.217c-2.27-15.878-6.085-31.789-14.712-45.501c-2.372-3.769-5.09-7.306-8.17-10.524
				c-0.872-0.911-2.426-0.543-2.612,0.771c-1.363,9.628-1.955,19.762,1.218,29.112c1.486,4.38,3.924,8.298,7.013,11.723
				c2.771,3.073,5.905,5.785,8.825,8.709c1.715,1.717,3.35,3.516,4.739,5.477c-1.984-1.646-4.009-3.243-6.075-4.783
				c-6.19-4.615-12.781-8.583-19.449-12.46c-0.009-0.025-0.019-0.048-0.028-0.073c0.05-0.255,0.032-0.536-0.082-0.833
				c-0.709-1.842-1.418-3.685-2.126-5.527c0.014-0.06,0.028-0.119,0.035-0.184c1.522-13.037-1.056-26.507-7.246-38.081
				c-1.747-3.266-3.776-6.383-6.055-9.302c-0.751-0.962-2.02-0.522-2.52,0.4c-2.003,3.695-2.681,7.974-2.98,12.12
				c-0.321,4.452-0.11,8.961,0.642,13.361c0.731,4.277,1.848,8.732,3.994,12.537c1.809,3.206,4.416,5.697,7.065,8.201
				c1.469,1.389,2.946,2.809,4.189,4.389c-5.13-3.045-10.177-6.227-14.877-9.916c-1.449-1.137-2.863-2.316-4.245-3.532
				c-0.505-1.47-1.135-2.869-1.853-4.219c0-0.007,0-0.014,0-0.022c-0.33-7.531,0.324-15.065,0.08-22.599
				c-0.244-7.525-1.7-14.73-5.011-21.525c-1.84-3.775-4.053-7.349-6.277-10.906c-0.63-1.007-2.119-0.499-2.52,0.4
				c-3.598,8.05-5.094,17.047-4.166,25.825c0.474,4.48,1.676,8.911,3.799,12.898c1.912,3.591,4.392,6.83,6.79,10.102
				c0.91,1.242,1.805,2.496,2.647,3.781c-6.42-6.738-11.958-14.325-16.577-22.397c-2.726-4.764-5.151-9.695-7.285-14.751
				c0.61-7.695,1.143-15.477,0.116-23.158c-1.03-7.697-3.979-14.717-8.05-21.281c-2.264-3.65-4.764-7.141-7.278-10.622
				c-0.675-0.935-2.111-0.565-2.52,0.4c-6.229,14.685-3.816,32.571,6.045,45.107c2.777,3.531,6.387,6.471,8.68,10.364
				c0.031,0.475,0.269,0.834,0.598,1.062c1.319,3.08,2.744,6.115,4.281,9.093c1.514,2.932,3.136,5.808,4.865,8.616
				c-1.817-1.787-3.692-3.515-5.655-5.147c-5.411-4.498-11.525-8.015-17.828-11.101c-3.6-1.763-7.265-3.389-10.93-5.013
				c-1.131-0.501-2.507,0.859-1.882,1.988c4.067,7.351,8.323,14.732,14.604,20.438c2.806,2.549,6.01,4.7,9.519,6.155
				c3.412,1.415,7.081,2.065,10.688,2.771c3.965,0.776,8.017,1.654,11.424,3.937c0.071,0.048,0.142,0.086,0.214,0.12
				c3.333,3.992,6.936,7.759,10.814,11.25c0.043,0.039,0.087,0.076,0.13,0.115c0.018,0.056,0.038,0.112,0.056,0.169
				c0.146,0.464,0.597,0.748,1.077,0.83c3.675,3.184,7.582,6.05,11.635,8.716c-0.375-0.013-0.749-0.026-1.124-0.039
				c-0.288-0.01-0.54,0.051-0.754,0.159c-5.498-4.138-11.718-7.186-18.043-9.84c-6.465-2.713-13.201-5.558-20.246-6.238
				c-3.934-0.379-7.886,0.041-11.548,1.571c-0.821,0.343-1.198,1.606-0.532,2.282c5.842,5.933,11.986,12.116,19.91,15.163
				c8.3,3.192,17.25,1.964,25.879,1.331c4.813-0.353,9.659-0.468,14.405,0.525c1.216,0.717,2.435,1.427,3.655,2.137
				c0.215,0.359,0.636,0.571,1.067,0.621c4.551,2.649,9.095,5.311,13.462,8.258c4.576,3.088,8.969,6.439,13.161,10.021
				c-2.303-0.133-4.656,0.118-6.921,0.453c-0.085-0.062-0.176-0.118-0.272-0.167c-13.991-7.027-29.136-12.7-45.042-11.895
				c-4.474,0.226-8.87,1.034-13.138,2.389c-1.119,0.355-1.047,1.929-0.257,2.541c7.379,5.712,15.439,10.955,24.675,12.983
				c10.216,2.243,20.525-0.467,30.575-2.282c4.834-0.873,10.345-2.096,14.992,0.091c5.012,4.659,9.705,9.661,14.035,14.968
				c2.593,3.179,5.053,6.463,7.375,9.842c-0.285-0.097-0.569-0.194-0.854-0.291c-0.362-0.124-0.694-0.109-0.98-0.004
				c-7.93-6.42-16.118-12.819-26.08-15.685c-9.296-2.675-19.256-2.574-28.51,0.225c-2.339,0.707-4.623,1.586-6.824,2.648
				c-1.802,0.87-4.692,1.924-4.939,4.242c-0.28,2.633,2.656,3.969,4.529,5.042c2.18,1.25,4.374,2.479,6.603,3.64
				c4.385,2.284,8.941,4.299,13.746,5.517c5.131,1.3,10.296,1.516,15.529,0.711c10.136-1.559,22.869-6.875,31.986,0.565
				c0.051,0.042,0.102,0.078,0.153,0.111c3.958,6.48,7.42,13.263,10.331,20.285c0.692,1.668,1.35,3.349,1.981,5.041
				C204.251,461.933,206.941,460.708,206.279,458.93z"/>
			<path style="fill:#72A7BC;" d="M278.416,302.435c1.91-10.299,4.927-20.383,8.942-30.055c-0.009-0.928-0.016-1.855-0.016-2.783
				c-0.103-0.194-0.162-0.429-0.156-0.706c0.094-4.73-1.387-9.22-2.809-13.674c-1.311-4.106-2.443-8.215-2.781-12.528
				c-0.626-7.976,1.101-16.118,4.733-23.232c2.067-4.048,4.797-7.767,8.049-10.941c0.683-0.667,1.813-0.564,2.325,0.261
				c4.252,6.854,6.013,15.052,5.015,23.049c-0.534,4.276-1.985,8.338-3.533,12.337c-1.601,4.138-3.194,8.273-4.366,12.558
				c-0.34,1.243-0.644,2.495-0.907,3.753c4.072-7.83,8.834-15.31,14.206-22.32c-0.042-0.186-0.051-0.39-0.014-0.609
				c0.259-1.566,0.684-3.06,1.233-4.498c-0.504-16.031,0.506-32.362,6.637-47.357c1.685-4.122,3.753-8.075,6.23-11.776
				c0.701-1.048,2.296-0.953,2.706,0.309c3.004,9.248,5.337,19.128,3.826,28.885c-0.708,4.57-2.433,8.851-4.884,12.758
				c-2.198,3.505-4.818,6.717-7.189,10.102c-1.393,1.987-2.692,4.041-3.722,6.213c1.67-1.964,3.389-3.886,5.158-5.76
				c5.3-5.614,11.108-10.661,17.006-15.63c0.005-0.026,0.011-0.051,0.015-0.077c-0.093-0.242-0.124-0.522-0.063-0.835
				c0.38-1.937,0.76-3.874,1.14-5.812c-0.024-0.056-0.048-0.113-0.067-0.176c-3.75-12.579-3.536-26.291,0.564-38.76
				c1.157-3.519,2.617-6.939,4.358-10.208c0.573-1.077,1.9-0.863,2.551-0.042c2.611,3.294,4.017,7.391,5.027,11.423
				c1.085,4.33,1.655,8.807,1.674,13.271c0.019,4.339-0.313,8.92-1.77,13.038c-1.228,3.47-3.366,6.374-5.543,9.298
				c-1.207,1.622-2.417,3.275-3.368,5.046c4.527-3.885,8.95-7.89,12.942-12.335c1.231-1.371,2.421-2.776,3.571-4.212
				c0.244-1.535,0.623-3.022,1.097-4.476c-0.001-0.007-0.003-0.014-0.004-0.021c-0.975-7.475-2.919-14.783-3.98-22.246
				c-1.059-7.454-0.869-14.802,1.22-22.067c1.16-4.035,2.724-7.938,4.3-11.825c0.446-1.101,2.001-0.857,2.551-0.041
				c4.933,7.308,7.96,15.912,8.561,24.718c0.307,4.495-0.113,9.067-1.516,13.36c-1.264,3.867-3.147,7.486-4.944,11.123
				c-0.682,1.38-1.347,2.77-1.954,4.181c5.16-7.745,9.306-16.174,12.462-24.922c1.862-5.163,3.4-10.439,4.629-15.787
				c-1.929-7.474-3.797-15.048-4.111-22.79c-0.314-7.759,1.379-15.183,4.256-22.352c1.6-3.986,3.46-7.856,5.335-11.718
				c0.504-1.037,1.981-0.921,2.551-0.041c8.67,13.389,9.381,31.423,1.833,45.474c-2.126,3.957-5.174,7.477-6.76,11.707
				c0.051,0.474-0.121,0.868-0.406,1.149c-0.767,3.262-1.647,6.497-2.648,9.695c-0.985,3.149-2.086,6.262-3.304,9.327
				c1.482-2.074,3.03-4.1,4.682-6.046c4.553-5.365,9.968-9.884,15.644-14.012c3.242-2.358,6.571-4.592,9.9-6.824
				c1.027-0.689,2.617,0.413,2.197,1.633c-2.737,7.943-5.655,15.947-10.857,22.652c-2.324,2.995-5.109,5.667-8.313,7.706
				c-3.116,1.983-6.618,3.256-10.049,4.574c-3.771,1.449-7.612,3.013-10.573,5.85c-0.062,0.059-0.125,0.109-0.19,0.155
				c-2.594,4.508-5.492,8.84-8.71,12.948c-0.036,0.046-0.072,0.09-0.108,0.136c-0.008,0.059-0.019,0.117-0.026,0.176
				c-0.064,0.482-0.459,0.84-0.918,1.003c-3.07,3.77-6.423,7.268-9.955,10.593c0.367-0.077,0.733-0.155,1.1-0.232
				c0.282-0.06,0.541-0.044,0.77,0.027c4.701-5.025,10.301-9.101,16.073-12.807c5.9-3.788,12.043-7.754,18.865-9.639
				c3.809-1.053,7.775-1.321,11.646-0.446c0.868,0.196,1.457,1.375,0.918,2.156c-4.73,6.853-9.715,14.003-16.994,18.372
				c-7.625,4.577-16.652,4.912-25.261,5.778c-4.802,0.483-9.595,1.206-14.099,3.004c-1.074,0.916-2.152,1.826-3.231,2.736
				c-0.15,0.391-0.527,0.673-0.943,0.796c-4.025,3.395-8.041,6.801-11.835,10.458c-3.974,3.832-7.723,7.89-11.234,12.143
				c2.246-0.528,4.607-0.688,6.896-0.749c0.073-0.076,0.153-0.147,0.239-0.211c12.568-9.337,26.507-17.539,42.313-19.492
				c4.446-0.549,8.915-0.513,13.354,0.085c1.164,0.157,1.365,1.719,0.692,2.458c-6.283,6.9-13.316,13.456-22.063,17.048
				c-9.676,3.973-20.298,3.083-30.51,3.031c-4.912-0.025-10.552-0.279-14.751,2.678c-4.132,5.454-7.892,11.191-11.24,17.166
				c-2.005,3.578-3.862,7.238-5.565,10.967c0.264-0.145,0.527-0.289,0.791-0.434c0.335-0.184,0.665-0.227,0.965-0.174
				c6.702-7.692,13.664-15.409,22.981-19.952c8.695-4.24,18.522-5.859,28.12-4.7c2.426,0.293,4.828,0.764,7.179,1.431
				c1.925,0.546,4.954,1.086,5.597,3.326c0.73,2.546-1.931,4.368-3.59,5.748c-1.932,1.608-3.88,3.197-5.875,4.725
				c-3.925,3.007-8.064,5.778-12.587,7.807c-4.83,2.166-9.88,3.27-15.173,3.381c-10.253,0.214-23.713-2.824-31.409,6.078
				c-0.043,0.05-0.087,0.094-0.132,0.136c-2.78,7.066-5.019,14.345-6.674,21.764c-0.393,1.762-0.752,3.532-1.081,5.307
				C280.932,305.043,278.071,304.301,278.416,302.435z"/>
			<path style="fill:#D6AE5C;" d="M451.52,320.573c-0.667-0.629-1.565-0.459-2.195,0.087c-4.13,3.583-7.147,8.043-10.041,12.604
				c-0.064-0.01-0.129-0.018-0.198-0.021c-7.584-0.376-15.15,1.29-21.964,4.609c-3.431,1.671-6.602,3.796-9.493,6.283
				c-3.282,2.823-5.998,6.215-9.116,9.207c-0.815,0.782-1.666,1.522-2.548,2.221c1.036-1.229,2.051-2.478,3.036-3.752
				c2.142-2.77,4.101-5.652,5.914-8.618c0.333-0.22,0.583-0.577,0.733-0.99c0.067-0.184,0.131-0.369,0.194-0.554
				c0.482-0.819,0.953-1.644,1.414-2.475c5.388-4.832,10.797-9.839,14.513-16.123c4.188-7.082,4.822-15.146,5.018-23.196
				c0.095-3.88,0.033-7.761-0.169-11.636c1.21-4.73,2.283-9.495,3.213-14.291c0.38-1.96-2.653-2.635-3.034-0.668
				c-0.717,3.701-1.52,7.385-2.403,11.051c-0.229,0.076-0.443,0.218-0.616,0.448c-4.803,6.347-9.628,12.79-13.12,19.977
				c-1.698,3.495-3.083,7.176-3.942,10.97c-0.911,4.024-1.197,8.15-1.563,12.249c-0.381,4.279-0.875,8.565-2.221,12.655
				c-1.398,2.33-2.887,4.6-4.486,6.792c-2.188,3-4.527,5.857-6.973,8.613c0.79-3.416,2.465-6.551,3.867-9.777
				c1.536-3.53,2.725-7.216,3.526-10.982c1.568-7.376,1.709-15.084,0.385-22.507c-0.766-4.294-1.975-8.477-3.684-12.492
				c-0.012-0.029-0.028-0.055-0.041-0.083c0.707-5.513,1.413-11.027,2.12-16.54c0.252-1.967-2.78-2.654-3.034-0.668
				c-0.743,5.799-1.487,11.598-2.23,17.398c-4.993,6.143-8.31,13.57-9.63,21.377c-1.39,8.224-0.513,16.47,2.369,24.276
				c1.663,4.505,3.831,9.813,1.186,14.385c-0.172,0.297-0.231,0.585-0.21,0.85c-0.226,0.253-0.346,0.564-0.375,0.883
				c-5.669,5.74-11.713,11.127-17.712,16.559c7.052-11.582,9.736-25.703,7.366-39.091c-0.751-4.241-1.954-8.367-3.686-12.313
				c-0.046-0.105-0.106-0.205-0.173-0.3c0.542-6.889,1.452-13.745,2.71-20.541c0.363-1.962-2.669-2.638-3.034-0.668
				c-1.339,7.235-2.273,14.535-2.821,21.87c-4.408,6.028-7.393,13.031-8.619,20.41c-0.642,3.865-0.828,7.825-0.495,11.73
				c0.358,4.206,1.436,8.297,2.05,12.464c0.673,4.57,0.754,9.401-1.549,13.551c-0.131,0.236-0.193,0.466-0.202,0.684
				c-4.164,3.953-8.206,8.023-11.973,12.357c-1.494,1.719-2.946,3.481-4.344,5.285c5.205-14.165,7.758-29.241,7.439-44.344
				c-0.096-4.553-0.462-9.096-1.079-13.608c-0.065-0.474-0.273-0.832-0.554-1.071c1.178-6.171,2.089-12.389,2.722-18.641
				c0.084-0.835-0.296-1.656-1.183-1.851c-0.747-0.164-1.766,0.343-1.851,1.183c-0.731,7.215-1.831,14.386-3.286,21.491
				c-5.182,7.452-10.298,15.414-11.561,24.552c-1.168,8.448,1.353,16.655,3.158,24.818c1.001,4.527,1.791,9.214,1.38,13.864
				c-0.011,0.119-0.011,0.238-0.004,0.355c-4.565,7.002-8.164,14.594-10.096,22.802c-0.458,1.947,2.576,2.615,3.034,0.668
				c0.936-3.978,2.255-7.766,3.88-11.39c0.33-0.029,0.662-0.18,0.951-0.497c0.96-1.052,1.991-2.007,3.099-2.874
				c0.327,0.054,0.686-0.02,1.044-0.283c1.322-0.973,2.903-1.056,4.492-0.876c1.934,0.219,3.836,0.691,5.76,0.986
				c4.261,0.652,8.6,0.944,12.908,0.732c7.956-0.392,15.867-2.558,22.603-6.883c3.529-2.266,6.699-5.11,9.243-8.449
				c0.157-0.205,0.262-0.44,0.32-0.681c4.483-2.673,9.079-5.151,13.782-7.42c0.762-0.368,0.879-1.494,0.472-2.145
				c-0.488-0.782-1.394-0.835-2.145-0.472c-4.979,2.403-9.84,5.039-14.573,7.894c-8.56-1.6-17.45-2.535-26.145-2.14
				c-4.121,0.187-8.11,1.007-11.791,2.911c-3.183,1.646-5.971,3.938-8.711,6.22c-2.134,1.777-4.269,3.571-6.568,5.123
				c5.835-9.372,13.589-17.642,21.702-25.364c0.291,0.401,0.743,0.679,1.252,0.665c0.118,0.059,0.244,0.101,0.381,0.117
				c4.924,0.59,9.794,1.593,14.752,1.897c3.798,0.233,7.598-0.039,11.337-0.733c7.416-1.376,14.531-4.466,20.578-8.98
				c3.445-2.572,6.55-5.573,9.186-8.97c0.088-0.114,0.157-0.232,0.213-0.352c4.237-2.892,8.474-5.784,12.711-8.677
				c1.65-1.127-0.018-3.748-1.673-2.618c-4.405,3.007-8.81,6.014-13.215,9.021c-7.68-0.226-15.379-0.059-23.037,0.582
				c-3.643,0.305-7.293,0.835-10.637,2.384c-3.428,1.587-6.543,3.815-9.709,5.857c-1.716,1.107-3.431,2.214-5.147,3.32
				c1.699-1.547,3.395-3.077,5.073-4.595c5.162-4.67,10.323-9.386,15.187-14.378c1.888-0.794,3.708-1.735,5.444-2.813
				c9.276,3.138,19.411,1.505,27.77-3.478c4.14-2.468,7.84-5.711,10.967-9.37c3.162-3.699,5.706-7.867,8.296-11.972
				c2.935-4.652,6.008-9.247,10.195-12.879C452.246,322.214,452.082,321.103,451.52,320.573z"/>
			<path style="fill:#D6AE5C;" d="M82.275,157.492c0.645-0.651,1.549-0.512,2.197,0.013c4.249,3.44,7.416,7.795,10.464,12.255
				c0.064-0.012,0.129-0.022,0.197-0.028c7.567-0.634,15.185,0.774,22.108,3.859c3.486,1.553,6.727,3.569,9.701,5.957
				c3.376,2.71,6.206,6.008,9.424,8.892c0.841,0.754,1.716,1.465,2.622,2.133c-1.078-1.193-2.134-2.406-3.162-3.646
				c-2.235-2.695-4.29-5.509-6.203-8.412c-0.34-0.209-0.602-0.557-0.767-0.964c-0.073-0.182-0.143-0.364-0.213-0.547
				c-0.51-0.802-1.008-1.611-1.497-2.425c-5.549-4.646-11.126-9.466-15.053-15.621c-4.426-6.936-5.334-14.973-5.804-23.012
				c-0.226-3.874-0.297-7.755-0.227-11.635c-1.37-4.686-2.605-9.412-3.697-14.174c-0.446-1.946,2.562-2.724,3.01-0.771
				c0.843,3.674,1.77,7.329,2.777,10.963c0.232,0.068,0.45,0.203,0.631,0.426c5.016,6.18,10.057,12.455,13.791,19.52
				c1.816,3.435,3.326,7.067,4.313,10.83c1.047,3.991,1.474,8.104,1.978,12.189c0.527,4.263,1.166,8.53,2.65,12.572
				c1.477,2.281,3.042,4.499,4.714,6.635c2.289,2.924,4.723,5.7,7.262,8.371c-0.906-3.388-2.686-6.464-4.198-9.64
				c-1.654-3.476-2.969-7.119-3.897-10.855c-1.817-7.319-2.221-15.017-1.15-22.481c0.62-4.318,1.686-8.539,3.257-12.611
				c0.011-0.029,0.026-0.056,0.038-0.085c-0.894-5.486-1.787-10.972-2.681-16.459c-0.319-1.957,2.688-2.746,3.01-0.771
				c0.94,5.771,1.88,11.541,2.82,17.312c5.199,5.97,8.767,13.28,10.351,21.038c1.669,8.172,1.072,16.443-1.542,24.342
				c-1.509,4.559-3.495,9.938-0.696,14.417c0.182,0.291,0.251,0.577,0.239,0.843c0.234,0.245,0.365,0.551,0.405,0.87
				c5.861,5.544,12.084,10.722,18.265,15.947c-7.441-11.336-10.604-25.357-8.691-38.818c0.606-4.264,1.669-8.428,3.265-12.432
				c0.042-0.106,0.099-0.208,0.163-0.306c-0.776-6.867-1.919-13.687-3.407-20.437c-0.43-1.948,2.578-2.728,3.01-0.771
				c1.584,7.185,2.765,14.449,3.563,21.761c4.61,5.875,7.832,12.772,9.308,20.105c0.773,3.841,1.093,7.792,0.894,11.707
				c-0.215,4.215-1.153,8.34-1.625,12.526c-0.517,4.59-0.434,9.421,2.009,13.49c0.139,0.232,0.208,0.46,0.225,0.677
				c4.296,3.809,8.473,7.74,12.386,11.943c1.551,1.667,3.063,3.378,4.522,5.134c-5.683-13.98-8.748-28.96-8.942-44.065
				c-0.059-4.554,0.152-9.107,0.616-13.637c0.049-0.476,0.244-0.84,0.517-1.089c-1.387-6.127-2.509-12.311-3.354-18.538
				c-0.113-0.831,0.239-1.665,1.12-1.89c0.741-0.19,1.776,0.283,1.89,1.119c0.976,7.186,2.318,14.316,4.014,21.366
				c5.432,7.271,10.816,15.055,12.389,24.144c1.455,8.404-0.786,16.691-2.313,24.911c-0.847,4.558-1.477,9.269-0.908,13.903
				c0.015,0.119,0.019,0.237,0.016,0.355c4.801,6.843,8.655,14.308,10.865,22.446c0.524,1.93-2.485,2.702-3.01,0.771
				c-1.071-3.944-2.518-7.685-4.265-11.251c-0.331-0.018-0.668-0.158-0.967-0.464c-0.995-1.019-2.058-1.938-3.195-2.767
				c-0.325,0.065-0.687,0.004-1.053-0.247c-1.355-0.927-2.937-0.957-4.519-0.723c-1.925,0.285-3.811,0.821-5.723,1.181
				c-4.237,0.797-8.563,1.236-12.876,1.171c-7.965-0.121-15.945-2.017-22.824-6.111c-3.604-2.145-6.869-4.879-9.525-8.129
				c-0.163-0.2-0.276-0.43-0.342-0.67c-4.571-2.519-9.249-4.839-14.026-6.947c-0.774-0.341-0.929-1.463-0.545-2.128
				c0.461-0.798,1.365-0.882,2.128-0.545c5.058,2.232,10.006,4.701,14.833,7.394c8.501-1.89,17.354-3.127,26.057-3.028
				c4.125,0.047,8.14,0.731,11.883,2.508c3.237,1.537,6.101,3.732,8.918,5.92c2.193,1.703,4.388,3.424,6.738,4.896
				c-6.151-9.169-14.181-17.17-22.552-24.612c-0.277,0.41-0.72,0.704-1.229,0.707c-0.116,0.063-0.241,0.109-0.377,0.13
				c-4.901,0.758-9.735,1.925-14.679,2.398c-3.788,0.362-7.595,0.22-11.355-0.347c-7.458-1.123-14.675-3.969-20.872-8.276
				c-3.53-2.453-6.736-5.347-9.486-8.652c-0.092-0.111-0.164-0.227-0.225-0.344c-4.333-2.747-8.666-5.493-12.998-8.24
				c-1.688-1.07-0.11-3.746,1.583-2.673c4.505,2.855,9.009,5.711,13.514,8.567c7.668-0.487,15.368-0.582,23.043-0.202
				c3.651,0.181,7.317,0.587,10.712,2.021c3.48,1.47,6.669,3.59,9.902,5.523c1.752,1.048,3.505,2.096,5.257,3.144
				c-1.751-1.488-3.497-2.959-5.226-4.42c-5.318-4.492-10.636-9.03-15.667-13.854c-1.914-0.73-3.765-1.608-5.537-2.627
				c-9.164,3.452-19.348,2.164-27.872-2.532c-4.221-2.326-8.03-5.441-11.279-8.991c-3.286-3.59-5.97-7.668-8.698-11.683
				c-3.091-4.55-6.319-9.037-10.627-12.525C81.605,159.157,81.731,158.041,82.275,157.492z"/>
			<path style="fill:#95CBE0;" d="M240.205,386.851c-6.197-15.066-13.246-29.873-22.146-43.548
				c-6.994-10.746-15.215-20.814-24.878-29.264c-0.037-0.145-0.092-0.288-0.165-0.424c-2.222-4.132-2.105-9.072-2.266-13.628
				c-0.097-2.733-0.355-5.447-0.792-8.132c2.333-4.489,4.4-9.312,4.479-14.435c0.038-2.492-0.477-5.192-1.826-7.321
				c-1.224-1.932-3.502-3.7-5.916-3.247c-2.664,0.5-3.928,3.197-4.113,5.669c-0.209,2.785,0.585,5.458,1.516,8.052
				c1.29,3.594,2.361,7.186,3.067,10.876c-0.014,0.027-0.029,0.054-0.043,0.081c-0.338,0.637-0.109,1.206,0.329,1.541
				c0.239,1.494,0.417,3.007,0.52,4.543c0.294,4.373,0.125,8.836,1.168,13.05c-1.19-0.945-2.401-1.866-3.633-2.761
				c-6.874-4.992-14.303-8.951-21.909-12.585c-0.027-0.391-0.204-0.751-0.552-0.988c-0.008-0.077-0.017-0.154-0.023-0.23
				c-0.031-0.409-0.057-0.82-0.056-1.231c0.002-0.844,0.107-1.742,0.527-2.49c0.689-1.226,2.158-1.818,3.302-2.525
				c2.867-1.772,4.404-4.869,5.341-8.008c0.9-3.014,0.323-7.098-3.219-8.041c-2.969-0.79-5.199,1.912-6.257,4.326
				c-1.113,2.542-1.836,5.235-2.23,7.976c-0.42-1.211-0.877-2.41-1.372-3.593c-0.158-0.377-0.322-0.749-0.489-1.12
				c0.043-0.091,0.081-0.185,0.111-0.284c1.567-5.225,1.983-10.809,1.164-16.205c-0.359-2.364-0.864-4.919-2.362-6.855
				c-1.32-1.706-3.473-2.869-5.677-2.581c-5.337,0.698-5.018,7.716-3.73,11.508c1.541,4.537,4.605,8.396,6.736,12.651
				c2.549,5.09,4.397,10.527,5.455,16.12c-5.585-2.594-11.235-5.07-16.805-7.699c-0.012-0.02-0.021-0.04-0.034-0.06
				c-1.852-2.923-4.081-5.572-6.455-8.082c-0.323-2.266-0.646-4.531-0.97-6.797c-0.324-2.27-0.56-4.583-1.182-6.796
				c-0.549-1.952-1.527-3.831-3.052-5.198c-1.456-1.306-3.653-2.245-5.557-1.38c-3.465,1.574-3.053,6.341-1.856,9.23
				c1.51,3.645,4.383,6.483,7.154,9.197c2.43,2.38,4.813,4.811,6.936,7.457c-0.518-0.258-1.034-0.519-1.55-0.781
				c-8.069-4.113-15.647-9.022-22.58-14.728c-0.001-0.001-0.001-0.002-0.001-0.002c-2.727-4.483-4.696-9.297-6.154-14.28
				c7.429-0.763,15.099-5.872,17.314-13.222c1.164-3.861-0.542-8.683-4.959-9.278c-4.174-0.562-7.56,2.333-9.362,5.832
				c-1.15,2.234-1.835,4.698-2.618,7.076c-0.534,1.623-1.069,3.245-1.603,4.868c-0.609-2.66-1.1-5.351-1.507-8.053
				c0.252-0.171,0.447-0.442,0.524-0.825c1.464-7.364,7.641-12.733,9.131-20.132c0.631-3.134,0.383-6.884-1.754-9.435
				c-2.151-2.568-5.526-2.905-8.335-1.197c-3.066,1.865-4.135,5.479-4.264,8.869c-0.13,3.424,0.325,6.899,0.618,10.307
				c0.576,6.698,1.321,13.401,2.757,19.976c1.1,5.039,2.605,9.975,4.702,14.661c-3.3-3.085-6.428-6.37-9.362-9.857
				c-5.467-6.497-10.24-13.568-14.206-21.065c0.173-0.228,0.266-0.53,0.224-0.901c-0.625-5.574-1.17-11.164-1.889-16.726
				c-0.61-4.725-1.88-9.814-5.773-12.947c-1.734-1.396-4.032-2.407-6.294-1.982c-2.124,0.399-3.636,2.027-4.301,4.025
				c-1.403,4.207,0.303,8.852,2.579,12.42c2.758,4.325,6.634,7.911,10.225,11.548c3.617,7.84,8.083,15.29,13.285,22.178
				c3.728,4.936,7.829,9.583,12.259,13.89c-3.411-0.56-6.967-0.445-10.406-0.353c-1.945,0.052-3.889,0.104-5.834,0.155
				c-0.047-0.066-0.1-0.131-0.163-0.194c-4.277-4.26-9.069-8.024-14.263-11.107c-2.446-1.452-5.239-2.711-8.151-2.499
				c-2.725,0.199-5.417,1.877-5.597,4.818c-0.319,5.202,4.712,9.279,9.183,10.729c3.064,0.994,6.286,1.168,9.486,1.145
				c3.319-0.024,6.64-0.158,9.958-0.247c3.588-0.095,7.188-0.282,10.777-0.219c3.268,0.057,6.553,0.481,9.506,1.927
				c5.556,4.877,11.562,9.24,17.946,12.996c4.812,2.831,9.798,5.32,14.848,7.684c-7.06,0.862-14.185,0.965-21.253,0.311
				c-2.725-2.885-5.756-5.489-9.224-7.444c-3.36-1.895-7.705-3.629-11.598-2.627c-3.763,0.968-5.868,4.639-4.64,8.363
				c1.272,3.858,5.505,5.893,9.265,6.409c4.845,0.664,9.575-0.76,14.139-2.229c3.341,0.371,6.701,0.575,10.062,0.614
				c-0.871,0.831-1.865,1.52-2.987,2.043c-1.84,0.858-3.806,1.411-5.627,2.313c-3.462,1.715-6.153,4.762-5.683,8.862
				c0.444,3.872,3.786,6.845,7.663,6.945c3.565,0.092,6.525-2.348,8.294-5.253c2.591-4.252,2.199-9.48,2.496-14.25
				c0.015-0.242-0.017-0.481-0.094-0.697c4.2-0.119,8.393-0.495,12.549-1.135c0.301-0.047,0.54-0.17,0.721-0.34
				c6.498,2.959,13.052,5.807,19.432,8.996c-2.442,0.753-4.805,1.734-7.075,2.929c-0.293,0.154-0.582,0.314-0.868,0.475
				c-0.075-0.034-0.153-0.063-0.233-0.087c-2.292-0.697-4.579-1.417-6.879-2.089c-2.063-0.603-4.264-1.104-6.422-0.769
				c-3.795,0.589-7.069,3.975-5.784,7.97c1.134,3.526,5.18,5.636,8.745,4.943c1.907-0.37,3.449-1.463,4.903-2.697
				c1.563-1.326,3.153-2.593,4.876-3.708c3.745-2.421,7.894-4.143,12.23-5.172c2.643,1.396,5.249,2.864,7.799,4.442
				c7.383,4.569,14.085,10.087,20.15,16.251c-2.499-0.659-5.172-0.677-7.771-0.05c-2.218,0.536-4.339,1.415-6.474,2.221
				c-2.32-5.709-5.763-12.694-12.799-13.107c-1.514-0.089-3.158,0.128-4.39,1.087c-1.27,0.988-1.844,2.584-1.647,4.169
				c0.417,3.353,3.747,5.502,6.446,7.007c2.218,1.237,4.631,2.128,7.119,2.651c-1.449,0.461-2.905,0.9-4.366,1.323
				c-1.733,0.501-3.473,0.98-5.215,1.449c-0.059-0.242-0.204-0.477-0.461-0.677c-2.375-1.846-4.826-3.647-7.524-5
				c-2.371-1.189-5.069-2.168-7.76-2.023c-2.284,0.123-4.605,1.23-5.337,3.539c-0.832,2.624,0.661,5.466,2.744,7.048
				c4.907,3.726,11.144,1.764,16.511,0.345c6.186-1.636,12.37-3.331,18.363-5.589c2.946-1.11,5.968-2.438,9.185-2.295
				c3.079,0.137,5.967,1.469,8.154,3.616c0.264,0.259,0.551,0.367,0.826,0.366c3.097,3.579,6.009,7.322,8.74,11.181
				c9.445,13.347,16.862,28.015,23.286,43.017c0.773,1.805,1.531,3.615,2.277,5.431C238.357,389.354,240.86,388.442,240.205,386.851
				z"/>
			<path style="fill:#95CBE0;" d="M265.565,385.082c6.197-15.066,13.246-29.873,22.146-43.548
				c6.995-10.746,15.215-20.814,24.878-29.264c0.037-0.145,0.092-0.288,0.165-0.423c2.222-4.132,2.105-9.072,2.266-13.628
				c0.097-2.733,0.355-5.447,0.792-8.132c-2.332-4.489-4.4-9.312-4.479-14.435c-0.038-2.492,0.477-5.192,1.826-7.321
				c1.224-1.932,3.502-3.7,5.916-3.247c2.664,0.5,3.928,3.198,4.113,5.669c0.209,2.785-0.585,5.458-1.516,8.052
				c-1.29,3.594-2.361,7.186-3.067,10.876c0.014,0.027,0.029,0.054,0.043,0.081c0.338,0.637,0.109,1.206-0.329,1.541
				c-0.239,1.494-0.417,3.007-0.52,4.543c-0.294,4.373-0.125,8.836-1.168,13.05c1.19-0.945,2.401-1.866,3.633-2.761
				c6.874-4.992,14.302-8.951,21.909-12.585c0.027-0.391,0.204-0.751,0.552-0.988c0.008-0.077,0.017-0.154,0.023-0.23
				c0.031-0.409,0.057-0.821,0.056-1.231c-0.002-0.844-0.107-1.742-0.527-2.489c-0.689-1.226-2.158-1.818-3.302-2.525
				c-2.867-1.772-4.404-4.869-5.341-8.008c-0.9-3.014-0.324-7.098,3.219-8.041c2.969-0.79,5.199,1.912,6.257,4.326
				c1.113,2.542,1.836,5.235,2.23,7.976c0.42-1.211,0.877-2.409,1.372-3.593c0.158-0.377,0.322-0.749,0.489-1.12
				c-0.043-0.091-0.081-0.185-0.111-0.284c-1.566-5.225-1.983-10.809-1.164-16.205c0.359-2.364,0.864-4.919,2.362-6.855
				c1.32-1.706,3.473-2.869,5.677-2.581c5.337,0.698,5.018,7.716,3.729,11.508c-1.541,4.537-4.605,8.396-6.735,12.651
				c-2.549,5.09-4.397,10.527-5.455,16.12c5.585-2.594,11.235-5.07,16.805-7.699c0.012-0.02,0.021-0.04,0.034-0.06
				c1.852-2.923,4.081-5.572,6.455-8.082c0.323-2.266,0.647-4.531,0.97-6.797c0.324-2.27,0.56-4.583,1.182-6.796
				c0.549-1.952,1.527-3.831,3.052-5.198c1.457-1.306,3.653-2.245,5.557-1.38c3.465,1.575,3.053,6.341,1.856,9.231
				c-1.509,3.645-4.383,6.483-7.154,9.197c-2.43,2.38-4.813,4.811-6.936,7.457c0.518-0.258,1.034-0.518,1.55-0.781
				c8.069-4.113,15.647-9.022,22.58-14.729c0.001-0.001,0.001-0.002,0.001-0.002c2.727-4.483,4.696-9.297,6.154-14.28
				c-7.429-0.763-15.099-5.872-17.314-13.222c-1.164-3.861,0.542-8.683,4.959-9.278c4.174-0.562,7.56,2.333,9.361,5.832
				c1.151,2.234,1.835,4.698,2.618,7.076c0.534,1.623,1.069,3.246,1.603,4.868c0.609-2.659,1.1-5.351,1.507-8.053
				c-0.252-0.171-0.447-0.442-0.524-0.825c-1.464-7.364-7.641-12.733-9.131-20.132c-0.631-3.134-0.383-6.884,1.754-9.435
				c2.151-2.568,5.526-2.904,8.335-1.196c3.066,1.865,4.135,5.479,4.264,8.869c0.13,3.423-0.325,6.899-0.618,10.307
				c-0.576,6.698-1.321,13.401-2.757,19.976c-1.1,5.039-2.605,9.975-4.702,14.661c3.3-3.084,6.428-6.37,9.362-9.857
				c5.467-6.497,10.24-13.568,14.206-21.065c-0.173-0.228-0.266-0.53-0.224-0.901c0.625-5.574,1.17-11.164,1.889-16.726
				c0.61-4.726,1.88-9.814,5.773-12.947c1.734-1.396,4.032-2.407,6.294-1.982c2.124,0.399,3.635,2.027,4.301,4.025
				c1.403,4.207-0.304,8.852-2.579,12.42c-2.758,4.325-6.634,7.911-10.225,11.548c-3.617,7.84-8.083,15.29-13.285,22.178
				c-3.727,4.936-7.829,9.583-12.259,13.89c3.411-0.56,6.967-0.445,10.406-0.353c1.945,0.052,3.889,0.104,5.834,0.155
				c0.047-0.066,0.1-0.131,0.163-0.194c4.277-4.26,9.069-8.024,14.263-11.107c2.446-1.452,5.239-2.711,8.151-2.499
				c2.725,0.199,5.416,1.878,5.597,4.818c0.319,5.202-4.712,9.279-9.183,10.729c-3.064,0.994-6.286,1.168-9.486,1.145
				c-3.319-0.024-6.64-0.158-9.958-0.247c-3.588-0.095-7.188-0.282-10.777-0.219c-3.268,0.057-6.553,0.481-9.506,1.927
				c-5.556,4.877-11.562,9.24-17.946,12.996c-4.812,2.831-9.798,5.32-14.848,7.684c7.06,0.862,14.185,0.965,21.253,0.311
				c2.724-2.885,5.756-5.489,9.224-7.444c3.36-1.895,7.705-3.63,11.598-2.628c3.762,0.968,5.868,4.64,4.64,8.363
				c-1.272,3.858-5.505,5.893-9.265,6.409c-4.845,0.664-9.575-0.76-14.139-2.229c-3.342,0.37-6.701,0.575-10.062,0.614
				c0.871,0.831,1.865,1.52,2.987,2.043c1.84,0.858,3.806,1.411,5.627,2.313c3.462,1.715,6.153,4.762,5.683,8.862
				c-0.444,3.872-3.786,6.845-7.663,6.945c-3.565,0.092-6.525-2.348-8.294-5.253c-2.591-4.252-2.199-9.48-2.496-14.25
				c-0.015-0.243,0.017-0.481,0.094-0.697c-4.2-0.119-8.393-0.495-12.549-1.135c-0.301-0.046-0.54-0.17-0.721-0.339
				c-6.498,2.959-13.052,5.807-19.432,8.996c2.442,0.754,4.805,1.734,7.075,2.929c0.293,0.154,0.582,0.314,0.868,0.475
				c0.075-0.034,0.153-0.063,0.233-0.087c2.292-0.697,4.579-1.417,6.879-2.089c2.063-0.603,4.264-1.104,6.422-0.769
				c3.795,0.589,7.069,3.975,5.784,7.97c-1.134,3.526-5.18,5.636-8.745,4.943c-1.907-0.37-3.449-1.463-4.904-2.697
				c-1.563-1.326-3.153-2.593-4.876-3.708c-3.745-2.421-7.894-4.144-12.23-5.172c-2.643,1.396-5.249,2.864-7.799,4.442
				c-7.383,4.569-14.085,10.087-20.15,16.251c2.499-0.659,5.172-0.677,7.771-0.05c2.218,0.536,4.339,1.415,6.474,2.221
				c2.32-5.709,5.763-12.694,12.799-13.107c1.514-0.089,3.158,0.128,4.39,1.087c1.27,0.988,1.844,2.585,1.647,4.169
				c-0.417,3.353-3.747,5.502-6.446,7.008c-2.218,1.237-4.631,2.128-7.119,2.651c1.449,0.461,2.905,0.9,4.366,1.323
				c1.733,0.501,3.473,0.98,5.215,1.449c0.059-0.242,0.204-0.477,0.461-0.677c2.375-1.846,4.827-3.647,7.524-5
				c2.371-1.189,5.069-2.168,7.76-2.023c2.284,0.123,4.605,1.23,5.337,3.539c0.832,2.624-0.661,5.466-2.744,7.048
				c-4.907,3.726-11.144,1.764-16.511,0.345c-6.186-1.636-12.37-3.331-18.363-5.589c-2.946-1.11-5.968-2.438-9.185-2.295
				c-3.079,0.137-5.966,1.469-8.154,3.616c-0.264,0.259-0.551,0.367-0.826,0.366c-3.097,3.579-6.009,7.322-8.74,11.181
				c-9.445,13.347-16.862,28.015-23.287,43.017c-0.773,1.805-1.531,3.615-2.277,5.431
				C267.414,387.584,264.911,386.673,265.565,385.082z"/>
		</g>
		<g>
			<path style="fill:#CCF3FF;" d="M373.581,86.783c-0.155-1.042-1.074-1.465-1.951-1.796c-3.536-1.334-7.238-3.067-11.064-3.421
				c0.755-1.722,1.227-3.588,1.531-5.428c0.312-1.881,0.548-3.838,0.586-5.747c0.018-0.935-0.173-2.054-1.024-2.603
				c-0.886-0.57-1.81-0.159-2.637,0.283c-3.334,1.78-7.078,3.42-9.866,6.064c-0.797-1.703-1.89-3.288-3.072-4.73
				c-1.209-1.475-2.524-2.943-3.935-4.229c-0.691-0.63-1.658-1.224-2.632-0.946c-1.013,0.29-1.312,1.256-1.526,2.169
				c-1.024,4.383-2.58,9.072-1.697,13.606c0.064,0.326,0.147,0.652,0.248,0.975c-2.578-0.907-5.439-0.99-8.154-0.745
				c-1.899,0.171-3.853,0.435-5.709,0.879c-0.909,0.217-1.945,0.684-2.261,1.646c-0.329,1.001,0.302,1.791,0.937,2.481
				c3.05,3.31,6.056,7.231,10.303,9.048c0.062,0.026,0.125,0.05,0.187,0.076c-1.616,1.682-2.837,3.771-3.798,5.886
				c-0.789,1.736-1.525,3.565-2.055,5.398c-0.26,0.898-0.366,2.029,0.315,2.779c0.708,0.781,1.707,0.622,2.62,0.41
				c3.682-0.854,7.723-1.469,11.101-3.299c0.328,1.851,0.973,3.665,1.741,5.364c0.785,1.738,1.675,3.497,2.704,5.104
				c0.504,0.788,1.284,1.613,2.297,1.596c1.053-0.018,1.593-0.873,2.036-1.7c1.785-3.332,3.987-6.775,4.838-10.521
				c1.608,0.974,3.397,1.685,5.181,2.228c1.824,0.555,3.734,1.046,5.621,1.332c0.924,0.14,2.059,0.097,2.714-0.675
				c0.681-0.804,0.394-1.774,0.064-2.652c-1.328-3.538-2.466-7.464-4.722-10.574c1.793-0.567,3.507-1.444,5.091-2.427
				c1.62-1.006,3.248-2.118,4.707-3.348C373.015,88.666,373.731,87.785,373.581,86.783z"/>
			<path style="fill:#CCF3FF;" d="M158.657,84.911c-0.091-0.608-0.627-0.856-1.139-1.049c-2.065-0.779-4.227-1.791-6.46-1.998
				c0.441-1.005,0.716-2.095,0.894-3.169c0.182-1.098,0.32-2.241,0.342-3.356c0.011-0.546-0.101-1.199-0.598-1.52
				c-0.517-0.333-1.057-0.093-1.54,0.165c-1.947,1.039-4.133,1.997-5.761,3.541c-0.465-0.994-1.103-1.92-1.794-2.762
				c-0.706-0.861-1.474-1.718-2.298-2.469c-0.403-0.368-0.968-0.715-1.537-0.552c-0.591,0.169-0.766,0.734-0.891,1.267
				c-0.598,2.559-1.507,5.298-0.991,7.945c0.037,0.19,0.086,0.381,0.145,0.57c-1.505-0.53-3.176-0.578-4.761-0.435
				c-1.109,0.1-2.25,0.254-3.334,0.513c-0.531,0.127-1.136,0.399-1.32,0.961c-0.192,0.584,0.176,1.046,0.547,1.449
				c1.781,1.933,3.536,4.222,6.016,5.283c0.036,0.015,0.073,0.03,0.109,0.044c-0.944,0.982-1.657,2.202-2.218,3.437
				c-0.461,1.014-0.89,2.082-1.2,3.152c-0.152,0.524-0.214,1.185,0.184,1.623c0.413,0.456,0.997,0.363,1.53,0.24
				c2.15-0.499,4.509-0.858,6.482-1.926c0.191,1.081,0.568,2.14,1.016,3.132c0.458,1.014,0.978,2.042,1.579,2.981
				c0.294,0.46,0.75,0.942,1.341,0.932c0.615-0.01,0.93-0.51,1.189-0.993c1.042-1.945,2.328-3.956,2.825-6.144
				c0.939,0.569,1.984,0.984,3.025,1.301c1.065,0.324,2.18,0.611,3.282,0.778c0.54,0.082,1.202,0.057,1.585-0.394
				c0.398-0.469,0.23-1.036,0.037-1.548c-0.776-2.066-1.44-4.358-2.757-6.174c1.047-0.331,2.048-0.843,2.973-1.417
				c0.946-0.587,1.896-1.237,2.749-1.955C158.326,86.011,158.744,85.497,158.657,84.911z"/>
			<path style="fill:#CCF3FF;" d="M444.25,218.775c-0.128-0.86-0.887-1.21-1.611-1.483c-2.92-1.102-5.977-2.532-9.136-2.825
				c0.624-1.422,1.013-2.963,1.264-4.482c0.258-1.553,0.453-3.169,0.484-4.745c0.015-0.772-0.142-1.696-0.846-2.149
				c-0.731-0.471-1.494-0.131-2.178,0.234c-2.753,1.469-5.844,2.824-8.147,5.007c-0.658-1.406-1.56-2.715-2.536-3.906
				c-0.998-1.218-2.085-2.43-3.249-3.492c-0.57-0.52-1.369-1.011-2.173-0.781c-0.836,0.24-1.084,1.037-1.26,1.791
				c-0.846,3.619-2.13,7.491-1.401,11.235c0.052,0.269,0.122,0.538,0.205,0.805c-2.129-0.749-4.491-0.817-6.733-0.615
				c-1.568,0.142-3.181,0.359-4.714,0.726c-0.751,0.18-1.606,0.565-1.867,1.359c-0.272,0.826,0.249,1.479,0.774,2.049
				c2.519,2.733,5,5.971,8.507,7.471c0.051,0.022,0.103,0.042,0.154,0.062c-1.334,1.389-2.342,3.114-3.136,4.86
				c-0.651,1.433-1.259,2.944-1.697,4.458c-0.215,0.742-0.302,1.675,0.26,2.295c0.584,0.644,1.41,0.514,2.164,0.339
				c3.04-0.706,6.377-1.213,9.166-2.724c0.271,1.529,0.803,3.026,1.437,4.43c0.648,1.435,1.383,2.887,2.233,4.215
				c0.416,0.65,1.06,1.331,1.897,1.318c0.87-0.014,1.316-0.721,1.681-1.404c1.474-2.751,3.292-5.594,3.995-8.688
				c1.328,0.804,2.805,1.391,4.278,1.84c1.506,0.458,3.083,0.863,4.641,1.1c0.763,0.116,1.7,0.081,2.241-0.558
				c0.563-0.664,0.325-1.464,0.053-2.189c-1.097-2.922-2.036-6.163-3.899-8.731c1.48-0.468,2.896-1.192,4.204-2.004
				c1.338-0.83,2.682-1.749,3.887-2.765C443.782,220.33,444.373,219.602,444.25,218.775z"/>
			<path style="fill:#CCF3FF;" d="M102.154,212.189c-0.155-1.042-1.074-1.465-1.951-1.796c-3.536-1.334-7.238-3.067-11.064-3.421
				c0.755-1.722,1.226-3.588,1.531-5.428c0.312-1.881,0.549-3.838,0.586-5.747c0.018-0.935-0.172-2.054-1.024-2.603
				c-0.886-0.57-1.81-0.159-2.637,0.283c-3.334,1.78-7.078,3.42-9.866,6.064c-0.797-1.703-1.89-3.288-3.072-4.73
				c-1.209-1.475-2.525-2.943-3.935-4.229c-0.691-0.63-1.658-1.224-2.632-0.946c-1.013,0.29-1.313,1.256-1.526,2.169
				c-1.024,4.383-2.58,9.072-1.697,13.606c0.063,0.326,0.147,0.652,0.248,0.975c-2.578-0.907-5.439-0.99-8.154-0.745
				c-1.899,0.171-3.853,0.435-5.709,0.879c-0.909,0.217-1.945,0.684-2.261,1.646c-0.329,1.001,0.302,1.792,0.937,2.481
				c3.05,3.31,6.056,7.231,10.303,9.048c0.062,0.026,0.125,0.05,0.187,0.076c-1.616,1.682-2.837,3.771-3.798,5.886
				c-0.789,1.736-1.525,3.565-2.055,5.398c-0.26,0.898-0.366,2.029,0.315,2.779c0.708,0.781,1.707,0.622,2.62,0.41
				c3.682-0.854,7.722-1.469,11.101-3.299c0.328,1.851,0.973,3.665,1.741,5.364c0.785,1.738,1.675,3.497,2.704,5.104
				c0.504,0.788,1.284,1.613,2.297,1.596c1.053-0.018,1.593-0.873,2.036-1.7c1.785-3.332,3.987-6.775,4.838-10.522
				c1.608,0.974,3.397,1.685,5.181,2.228c1.824,0.555,3.734,1.046,5.621,1.332c0.924,0.14,2.059,0.097,2.714-0.675
				c0.681-0.804,0.394-1.774,0.064-2.652c-1.328-3.538-2.466-7.464-4.722-10.574c1.793-0.567,3.507-1.444,5.091-2.427
				c1.62-1.006,3.248-2.118,4.707-3.348C101.588,214.072,102.304,213.191,102.154,212.189z"/>
		</g>
	</g>
	<g>
		<g>
			<g>
				<path style="fill:#95CBE0;" d="M354.367,401.055c2.585-12.28-6.786-39.748-13.573-62.046
					c-6.786-22.298-15.512-47.504-20.359-59.784c-4.847-12.28-12.926-15.188-18.743-18.743
					c-5.817-3.555-30.054-10.018-30.054-10.018l6.786,6.786l-5.947,92.459c-0.19-0.374-0.382-0.751-0.576-1.134
					c-15.704-30.903-45.505-89.642-45.505-90.356c0-0.969-3.555-5.494-3.555-5.494l-13.896,9.695l-18.097,12.926
					c0,0-16.804,0.323-23.914,16.158c-7.11,15.835-12.926,66.247-14.865,79.173c-1.939,12.926,8.402,35.224,18.743,40.072
					c10.341,4.847,17.451,7.433,17.451,7.433l-9.372,74.972h166.103l-6.463-66.893C338.532,426.261,351.782,413.335,354.367,401.055
					z"/>
				<polygon style="fill:#F6F6F6;" points="222.842,252.725 230.87,245.567 252.854,264.455 266.787,244.948 278.425,257.25 
					272.478,349.709 				"/>
				<polygon style="fill:#CB9999;" points="230.677,238.276 230.87,245.567 252.854,264.455 266.787,244.948 267.492,238.846 				
					"/>
				<path style="fill:#9B79DC;" d="M240.548,285.986l12.305-21.531l22.948,18.383c0,0-4.132,4.662-10.912,8.813l10.073,6.715
					l-3.061,50.209l-21.91-45.382l6.085-10.492C256.077,292.7,249.235,293.29,240.548,285.986z"/>
				<path style="fill:#E3B5B3;" d="M271.166,414.81l-2.164-40.346c0,0,19.323-11.13,23.188-11.748
					c3.865-0.618,13.449,1.391,13.449,1.391s8.348-4.174,10.666-4.174c2.319,0,3.865-0.464,3.865-0.464s3.092-2.783,5.256-2.319
					c2.164,0.464,4.483,1.855,4.792,3.092c0.309,1.237,0,4.792,0,4.792s1.7,0.464,2.628,2.01c0.928,1.546,1.701,6.029,1.701,6.029
					l-2.01,2.319c0,0,2.164,2.473,2.164,4.019c0,1.546-3.246,7.111-4.792,8.038l1.082,5.101c0,0,1.391,7.42-1.082,10.512
					c-2.473,3.092-5.565,5.874-6.956,6.183c-1.391,0.309-6.338,2.937-7.729,2.628c-1.391-0.309-4.792-2.473-4.792-2.473
					l-4.483-3.092c0,0-2.628,0.155-3.555,0.464c-0.928,0.309-4.947-0.618-4.947-0.618L271.166,414.81z"/>
				<path style="fill:#352A22;" d="M201.255,370.356c-0.352-0.619-1.068-0.704-1.662-0.436c-3.25,1.468-6.499,2.937-9.749,4.405
					c-0.603,0.272-0.736,1.135-0.436,1.662c0.352,0.619,1.068,0.704,1.662,0.436l9.749-4.405
					C201.422,371.745,201.555,370.883,201.255,370.356z"/>
			</g>
			<path style="fill:#352A22;" d="M344.052,366.132c-3.955-1.283-7.911-2.567-11.866-3.85c-0.167-0.054-0.322-0.071-0.466-0.061
				c0.006-0.348-0.021-0.698-0.077-1.044c2.395,0.706,4.834,1.199,7.317,1.512c0.652,0.082,1.215-0.617,1.215-1.215
				c0-0.725-0.561-1.132-1.215-1.215c-2.672-0.337-5.302-0.956-7.86-1.793c-0.255-0.083-0.485-0.082-0.684-0.023
				c-0.093-0.113-0.19-0.223-0.293-0.329c-2.587-2.655-6.553-2.459-9.561-0.719c-1.485-8.387-2.747-16.813-3.769-25.27
				c-0.079-0.651-0.502-1.215-1.215-1.215c-0.595,0-1.294,0.559-1.215,1.215c1.073,8.879,2.394,17.726,3.965,26.53
				c-2.666-0.016-5.117,1.281-7.456,2.413l-3.585,1.734c-0.124-0.087-0.276-0.154-0.461-0.19c-2.053-0.405-4.129-0.797-6.209-1.034
				c4.122-13.519,10.298-33.448,14.101-47.028c1.068-3.815,2.124-7.634,3.169-11.456c0.147-0.539-0.057-0.966-0.398-1.226
				c0.095-0.282,0.083-0.608-0.099-0.944c-0.665-1.226-2.018-1.589-3.253-1.995c-1.362-0.448-2.734-0.868-4.114-1.259
				c-2.858-0.811-5.751-1.499-8.668-2.063c-5.373-1.039-10.825-1.662-16.293-1.869c4.23-6.69,8.383-13.429,12.454-20.218
				c1.892-3.155,3.765-6.32,5.622-9.495c0.791-1.352-1.308-2.577-2.098-1.226c-6.58,11.248-13.376,22.37-20.387,33.354
				c-1.258,1.97-2.525,3.935-3.797,5.896c0.48-8.015,0.961-16.029,1.441-24.044c0.397-6.62,0.793-13.239,1.19-19.859
				c0.094-1.562-2.336-1.556-2.429,0c-0.703,11.733-1.406,23.465-2.109,35.198c-0.7,11.679-1.4,23.357-2.1,35.036
				c-0.343,5.72-0.686,11.441-1.028,17.161c-4.14-8.177-8.279-16.355-12.419-24.532c-7.29-14.401-14.58-28.802-21.871-43.203
				c-4.096-8.092-8.192-16.183-12.288-24.275c-0.706-1.395-2.803-0.167-2.098,1.226c7.29,14.401,14.58,28.802,21.871,43.203
				l3.12,6.164c-14.332-7.519-28.664-15.038-42.996-22.557c-4.29-2.251-8.58-4.502-12.871-6.752
				c-1.383-0.726-2.613,1.37-1.226,2.098c15.155,7.951,30.311,15.902,45.466,23.853c-2.121,0.064-4.248,0.329-6.346,0.512
				c-3.31,0.289-6.62,0.581-9.928,0.887c-6.723,0.622-13.441,1.306-20.143,2.133c-0.651,0.08-1.215,0.501-1.215,1.215
				c0,0.518,0.426,1.118,0.97,1.209c3.64,5.489,7.392,10.904,11.253,16.239c-0.237,0.195-0.398,0.492-0.401,0.891l-0.276,32.655
				c-6.173-4.851-13.67-7.863-21.519-8.64c-0.654-0.065-1.215,0.605-1.215,1.215c0,0.711,0.559,1.15,1.215,1.215
				c7.926,0.784,15.516,4.122,21.505,9.349c-3.137-0.349-6.285-0.595-9.442-0.717c-6.436-0.249-12.871,0.053-19.251,0.941
				c-0.648,0.09-1.009,0.922-0.848,1.494c0.196,0.7,0.839,0.94,1.494,0.848c11.147-1.552,22.52-1.091,33.622,0.607
				c11.275,1.724,22.331,4.65,33.227,7.981c0.688,0.211,1.376,0.423,2.063,0.637c0.143,0.152,11.579,3.72,16.397,5.322
				c0.021,0.007,0.041,0.011,0.062,0.017c0.828,13.879,1.644,27.76,2.448,41.641c0.223,3.854,0.446,7.709,0.667,11.564
				c-10.557-0.611-21.091-1.606-31.575-2.993c-10.85-1.435-21.646-3.302-32.353-5.57c-6.048-1.281-12.067-2.695-18.054-4.235
				c-1.515-0.39-2.161,1.953-0.646,2.343c10.706,2.753,21.516,5.098,32.403,7.02c10.838,1.913,21.75,3.412,32.702,4.495
				c6.204,0.614,12.422,1.09,18.647,1.434c0.846,0.047,1.231-0.644,1.161-1.301c0.123-0.181,0.191-0.414,0.175-0.701
				c-0.269-4.689-0.542-9.378-0.814-14.066c4.976-1.619,9.913-3.358,14.804-5.217l1.229,60.143
				c0.119,5.82,0.238,11.639,0.357,17.459c0.032,1.561,2.462,1.566,2.43,0l-1.255-61.428c-0.116-5.701-0.233-11.401-0.349-17.101
				c2.046-0.797,4.083-1.613,6.112-2.452c0.185,0.323,0.517,0.562,0.997,0.576c1.451,0.041,2.884-0.056,4.296-0.266
				c-0.034,0.171-0.031,0.36,0.026,0.567c1.571,5.746,3.9,11.428,7.097,16.47c2.63,4.147,6.691,8.257,12.025,7.729
				c0.257,0.342,0.684,0.54,1.223,0.374c5.667-1.738,11.335-3.476,17.002-5.215c1.49-0.457,0.855-2.803-0.646-2.343
				c-3.169,0.972-6.339,1.944-9.508,2.916c1.496-1.643,2.679-3.62,3.534-5.689c1.111-2.689,1.771-5.547,2.342-8.391
				c0.624-3.103,1.084-6.242,1.389-9.393c0.694-7.188,0.491-14.42-0.508-21.569c-0.009-0.064-0.027-0.124-0.049-0.183
				c0.293-0.657,0.501-1.365,0.598-2.134c0.257-2.042-0.606-4.065-2.092-5.271c2.245-2.086,3.186-5.61,1.552-8.37
				c-0.951-1.605-2.357-2.522-3.954-3.012c0.024-0.047,0.043-0.096,0.066-0.143c0.096,0.065,0.206,0.121,0.332,0.161
				c3.955,1.284,7.911,2.567,11.866,3.85C344.897,368.959,345.535,366.614,344.052,366.132z M328.065,359.513
				c1.424,1.18,1.729,3.403,0.405,4.635c-1.279-0.081-2.585-0.005-3.811,0.124c-0.004-0.847-0.197-1.699-0.598-2.498
				c-0.507-1.009-1.32-1.76-2.277-2.274C323.739,358.387,326.194,357.962,328.065,359.513z M274.089,348.239
				c0.703-11.733,1.406-23.465,2.109-35.198c0.123-2.053,0.246-4.106,0.369-6.159c0.07-0.067,0.136-0.145,0.196-0.236
				c2.286-3.496,4.547-7.008,6.789-10.532c0.028,0.002,0.055,0.005,0.083,0.006c5.527,0.135,11.035,0.695,16.47,1.713
				c2.719,0.509,5.417,1.126,8.087,1.85c1.285,0.348,2.564,0.721,3.835,1.119c0.685,0.214,1.367,0.434,2.047,0.663
				c0.436,0.147,0.986,0.258,1.217,0.685c0.071,0.13,0.154,0.237,0.245,0.323c-3.723,13.627-7.6,27.212-11.634,40.75
				c-1.131,3.797-4.502,14.014-5.658,17.804c-0.038,0.124-0.055,0.241-0.057,0.352c-2.565-0.117-5.127,0.084-7.651,0.869
				c-2.871,0.893-5.588,2.272-8.237,3.774c-2.539-5.006-6.184-11.994-8.664-16.893C273.887,348.934,274.065,348.638,274.089,348.239
				z M235.07,364.287c-6.954-1.765-14.007-3.238-21.123-4.205c0.004-0.279-0.103-0.568-0.365-0.822
				c-0.568-0.55-1.152-1.081-1.749-1.595c0.533-0.078,1.016-0.463,1.022-1.158c0.087-10.263,0.173-20.526,0.26-30.789
				c1.805,2.457,3.631,4.899,5.484,7.321c6.623,8.661,13.532,17.101,20.727,25.294c2.829,3.221,5.704,6.401,8.618,9.544
				C243.676,366.594,239.389,365.383,235.07,364.287z M252.606,369.307c-7.139-7.566-14.036-15.358-20.668-23.372
				c-6.882-8.317-13.479-16.868-19.777-25.636c-3.28-4.566-6.473-9.193-9.591-13.871c5.879-0.695,11.77-1.288,17.666-1.834
				c3.308-0.306,6.618-0.598,9.928-0.887c3.342-0.291,6.758-0.793,10.107-0.353c0.268,0.035,0.521-0.065,0.726-0.235
				c2.893,1.518,5.787,3.036,8.68,4.554c0.107,0.056,0.212,0.093,0.316,0.118c5.631,11.124,11.263,22.248,16.894,33.372
				c4.03,7.961,9.245,18.049,13.313,26.078c-1.309,0.771-2.607,1.548-3.904,2.288c-2.785,1.587-5.57,3.174-8.355,4.762
				C262.841,372.596,257.736,370.911,252.606,369.307z M284.673,409.595c-4.078,1.52-8.189,2.951-12.326,4.303
				c-0.504-8.675-1.011-17.349-1.525-26.024c-0.237-4.008-0.475-8.016-0.714-12.023c4.373-2.493,8.745-4.988,13.12-7.477
				c4.379-2.491,8.759-4.683,13.917-4.63c2.238,0.023,4.449,0.346,6.645,0.75l-0.961,0.465c-3.016,1.459-6.033,2.918-9.049,4.377
				c-1.407,0.681-0.177,2.776,1.226,2.098l17.38-8.407c2.304-1.115,4.987-2.558,7.608-1.68c2.019,0.676,3.041,3.21,1.594,4.964
				c-0.042,0.051-0.079,0.104-0.114,0.158c-1.076,0.332-2.122,0.765-3.167,1.176c-1.529,0.601-3.055,1.208-4.579,1.82
				c-3.048,1.224-6.088,2.471-9.119,3.739c-3.47,1.452-6.928,2.93-10.374,4.436c-0.606,0.265-0.733,1.14-0.436,1.662
				c0.355,0.624,1.064,0.697,1.662,0.436c5.293-2.313,10.615-4.56,15.965-6.738c2.699-1.099,5.405-2.18,8.118-3.244
				c2.12-0.832,4.869-2.118,7.139-1.106c1.786,0.797,2.582,3.218,1.696,4.937c-0.066,0.128-0.108,0.255-0.129,0.378
				c-1.608-0.072-3.377,0.772-4.857,1.304l-16.935,6.09c-3.226,1.16-6.452,2.32-9.677,3.48c-1.46,0.525-0.831,2.874,0.646,2.343
				c6.351-2.284,12.701-4.567,19.052-6.851c3.125-1.124,6.25-2.247,9.375-3.371c0.876-0.315,2-0.875,2.782-0.4
				c0.109,0.264,0.296,0.499,0.549,0.643c0.494,1.009,0.158,2.167-0.275,3.186c-0.054,0.045-0.107,0.096-0.158,0.155
				c-1.559,1.817-3.664,2.918-5.793,3.935c-2.44,1.166-4.91,2.274-7.402,3.325c-5.061,2.135-10.221,4.03-15.453,5.702
				c-1.484,0.474-0.849,2.821,0.646,2.343c5.432-1.736,10.778-3.722,16.03-5.945c1.01-0.427,2.015-0.865,3.017-1.309
				c-1.304,5.999-7.46,9.202-12.564,11.578C299.844,403.613,292.311,406.749,284.673,409.595z M331.795,377.687
				c0.347,0.219,0.653,0.509,0.89,0.836c0.71,0.98,0.697,2.237,0.346,3.35c-0.767,2.435-3.063,3.864-5.251,4.945
				c-0.375-0.534-0.854-0.996-1.439-1.344c1.249-0.698,2.437-1.498,3.458-2.498c0.346-0.012,0.678-0.197,0.878-0.625
				C331.356,380.895,331.938,379.244,331.795,377.687z M328.699,389.065c0.287-0.14,0.575-0.287,0.859-0.44
				c0.395,2.859,0.458,5.78,0.179,8.652c-0.246,2.528-0.905,5.086-2.693,6.975c-1.755,1.854-4.126,3.105-6.355,4.296
				c-1.162,0.621-2.414,1.208-3.745,1.322c-1.153,0.098-2.273-0.126-3.36-0.497c-2.15-0.733-4.095-1.945-6.148-2.913
				c2.485-0.911,4.893-2.071,7.209-3.319c2.822-1.522,5.586-3.164,8.276-4.91c2.262-1.468,4.604-3.216,5.53-5.861
				C328.816,391.33,328.901,390.165,328.699,389.065z M300.764,405.715c2.343-1.013,4.675-2.05,6.993-3.12
				c2.985-1.377,5.931-2.857,8.541-4.877c2.814-2.178,5.135-5.034,5.868-8.589c0.126-0.612-0.176-1.084-0.602-1.33
				c0.916-0.418,1.828-0.842,2.735-1.278c0.005,0.359,0.183,0.711,0.607,0.934c1.616,0.85,1.792,3.05,1.073,4.57
				c-1.029,2.175-3.314,3.501-5.267,4.736c-4.669,2.954-9.556,5.88-14.804,7.679C304.224,405.019,302.508,405.46,300.764,405.715z
				 M333.422,401.889c-0.345,5.725-1.168,11.52-2.747,17.043c-1.317,4.604-3.786,9.514-8.658,11.122
				c-2.158,0.712-4.409,0.538-6.395-0.586c-1.962-1.111-3.493-2.872-4.749-4.716c-3.42-5.024-5.795-10.872-7.392-16.712
				c-0.036-0.131-0.087-0.245-0.149-0.344c0.366-0.085,0.731-0.175,1.095-0.273c0.121,0.293,0.355,0.547,0.724,0.684
				c2.61,0.968,4.926,2.581,7.549,3.527c2.857,1.029,5.607,0.768,8.327-0.533c2.545-1.217,5.213-2.723,7.274-4.669
				c2.181-2.059,3.275-4.806,3.693-7.732c0.525-3.669,0.404-7.392-0.137-11.051c-0.02-0.135-0.073-0.257-0.148-0.366
				c0.455-0.333,0.887-0.692,1.289-1.075C333.602,391.408,333.736,396.666,333.422,401.889z M332.784,368.512
				c1.433,1.88,0.551,4.783-1.291,6.04c-0.156,0.107-0.275,0.232-0.362,0.368c-0.224-0.032-0.452-0.05-0.685-0.049
				c0.011-0.019,0.023-0.037,0.033-0.057c1.072-2.08,0.858-4.638-0.541-6.522c-0.455-0.613-0.991-1.089-1.58-1.451
				c0.215,0.021,0.445-0.017,0.681-0.138c0.065-0.033,0.127-0.069,0.189-0.104C330.619,366.808,331.895,367.347,332.784,368.512z"/>
			<g>
				<path style="fill:#F9ED95;" d="M317.268,432.888c-0.518,2.637-1.668,5.299-3.883,6.949c-2.212,1.648-5.048,2.024-7.492,0.664
					c-2.448-1.363-4.005-3.819-5-6.372c-1.155-2.964-1.913-6.112-2.62-9.208c-0.012-0.052-0.023-0.104-0.035-0.156
					c0.173,0.383,0.355,0.761,0.553,1.132c1.158,2.173,2.861,4.06,5.15,5.046c2.235,0.963,4.81,1.046,6.937-0.243
					c1.336-0.809,0.116-2.911-1.226-2.098c-1.659,1.005-3.684,0.745-5.331-0.165c-1.922-1.062-3.163-2.988-4.008-4.962
					c-0.968-2.263-1.556-4.711-2.123-7.099c-0.621-2.617-1.126-5.259-1.586-7.909c-0.145-0.835-0.901-1.023-1.52-0.777
					c-0.225-4.358-0.45-8.717-0.675-13.075c-0.293-5.661-0.939-11.508-0.04-17.143c0.804-5.038,3.052-10.159,7.531-12.943
					c1.325-0.824,0.107-2.926-1.226-2.098c-4.054,2.52-6.664,6.736-7.961,11.259c-1.586,5.527-1.226,11.375-0.933,17.046
					c0.624,12.072,1.247,24.143,1.87,36.215c0.333,6.456,0.667,12.911,1,19.366c-0.028,0.004-0.056,0.008-0.085,0.011
					c-0.455-0.153-0.98-0.073-1.294,0.242c-0.732,0.339-0.697,1.307-0.184,1.862c0.155,1.755,0.311,3.509,0.466,5.264
					c-1.557,0.14-3.115,0.279-4.672,0.419c-0.924,0.083-1.3,0.986-1.119,1.669c-0.03,0.173-0.031,0.356-0.003,0.54l0.496,3.254
					c0.103,0.675,0.915,0.971,1.494,0.848c1.439-0.305,2.886-0.522,4.342-0.66c0.291,3.281,0.581,6.561,0.872,9.842
					c0.054,0.613,0.514,1.271,1.215,1.215c1.083-0.087,2.167-0.175,3.25-0.262c0.604-0.049,1.283-0.519,1.215-1.215
					c-0.32-3.258-0.588-6.52-0.807-9.786c1.765-0.04,3.522-0.181,5.209-0.751c0.796,0.064,1.628-0.556,1.814-1.346
					c0.229-0.971-0.243-2.143-0.458-3.084c-0.044-0.193-0.12-0.35-0.218-0.476c0.058-0.651-0.325-1.309-1.158-1.234
					c-1.853,0.166-3.705,0.332-5.558,0.498c-0.079-1.653-0.146-3.307-0.199-4.961c0.467-0.678,0.145-1.928-0.96-2.002
					c-0.414-0.028-0.826-0.041-1.237-0.04c-0.347-6.714-0.694-13.427-1.04-20.14c0.719,3.181,1.528,6.404,2.783,9.406
					c1.239,2.964,3.153,5.767,6.069,7.288c2.905,1.515,6.282,1.354,9.077-0.347c3.137-1.908,4.957-5.312,5.649-8.835
					C319.911,432.006,317.569,431.353,317.268,432.888z"/>
				<path style="fill:#F8E75B;" d="M300.02,436.815c-0.146-0.222-0.312-0.434-0.496-0.634c-0.473-0.58-1.08-1.026-1.752-1.316
					c-1.722-0.883-3.865-1.058-5.432-0.041c-2.266,1.472-2.816,4.638-1.477,6.918c0.207,0.353,0.452,0.667,0.719,0.948
					c0.116,0.143,0.241,0.283,0.377,0.417c1.879,1.856,5.039,2.109,7.087,0.391C300.966,441.887,301.391,438.906,300.02,436.815z"/>
				<path style="fill:#F8E75B;" d="M297.836,392.204c-0.146-0.222-0.312-0.434-0.496-0.634c-0.473-0.58-1.08-1.026-1.752-1.316
					c-1.722-0.883-3.865-1.058-5.432-0.041c-2.266,1.472-2.816,4.638-1.477,6.918c0.207,0.353,0.452,0.667,0.719,0.948
					c0.116,0.143,0.241,0.283,0.377,0.417c1.879,1.856,5.039,2.109,7.087,0.391C298.782,397.276,299.207,394.295,297.836,392.204z"
					/>
				<path style="fill:#F8E75B;" d="M312.966,429.796c-0.145-0.222-0.312-0.434-0.496-0.634c-0.473-0.58-1.08-1.026-1.752-1.316
					c-1.722-0.883-3.865-1.058-5.432-0.041c-2.266,1.472-2.816,4.638-1.477,6.918c0.207,0.353,0.452,0.667,0.719,0.948
					c0.116,0.143,0.241,0.283,0.377,0.417c1.879,1.856,5.039,2.109,7.087,0.391C313.913,434.867,314.338,431.887,312.966,429.796z"
					/>
				<path style="fill:#F8E75B;" d="M296.95,427.331c-0.082-0.125-0.176-0.245-0.28-0.358c-0.267-0.327-0.609-0.579-0.988-0.742
					c-0.971-0.498-2.18-0.597-3.064-0.023c-1.278,0.83-1.589,2.616-0.833,3.902c0.117,0.199,0.255,0.376,0.406,0.535
					c0.065,0.081,0.136,0.16,0.213,0.235c1.06,1.047,2.842,1.19,3.998,0.22C297.484,430.192,297.723,428.511,296.95,427.331z"/>
				<path style="fill:#F8E75B;" d="M294.61,380.693c-0.082-0.125-0.176-0.245-0.28-0.358c-0.267-0.327-0.609-0.579-0.988-0.742
					c-0.971-0.498-2.18-0.597-3.064-0.023c-1.278,0.83-1.588,2.616-0.833,3.902c0.117,0.199,0.255,0.376,0.406,0.535
					c0.065,0.081,0.136,0.16,0.212,0.235c1.06,1.047,2.842,1.19,3.997,0.22C295.144,383.553,295.383,381.872,294.61,380.693z"/>
				<path style="fill:#F8E75B;" d="M296.638,372.269c-0.082-0.125-0.176-0.245-0.28-0.358c-0.267-0.327-0.609-0.579-0.988-0.742
					c-0.971-0.498-2.18-0.597-3.064-0.023c-1.278,0.83-1.588,2.616-0.833,3.902c0.117,0.199,0.255,0.376,0.406,0.535
					c0.065,0.081,0.136,0.16,0.212,0.235c1.06,1.047,2.842,1.19,3.998,0.22C297.172,375.13,297.411,373.449,296.638,372.269z"/>
				<path style="fill:#F8E75B;" d="M309.272,441.526c-0.082-0.125-0.176-0.245-0.28-0.358c-0.266-0.327-0.609-0.579-0.988-0.742
					c-0.971-0.498-2.18-0.597-3.064-0.023c-1.278,0.83-1.588,2.616-0.833,3.902c0.117,0.199,0.255,0.376,0.406,0.535
					c0.065,0.081,0.136,0.16,0.212,0.235c1.06,1.047,2.842,1.19,3.998,0.22C309.806,444.386,310.046,442.705,309.272,441.526z"/>
				<path style="fill:#F8E75B;" d="M317.696,438.718c-0.082-0.125-0.176-0.245-0.28-0.358c-0.267-0.327-0.609-0.579-0.988-0.742
					c-0.971-0.498-2.18-0.597-3.064-0.023c-1.278,0.83-1.589,2.616-0.833,3.902c0.117,0.199,0.255,0.376,0.406,0.535
					c0.065,0.081,0.136,0.16,0.212,0.235c1.06,1.047,2.842,1.19,3.998,0.22C318.229,441.579,318.469,439.898,317.696,438.718z"/>
				<path style="fill:#F8E75B;" d="M320.971,432.479c-0.082-0.125-0.176-0.245-0.28-0.358c-0.266-0.327-0.609-0.579-0.988-0.742
					c-0.971-0.498-2.18-0.597-3.064-0.023c-1.278,0.83-1.588,2.616-0.833,3.902c0.117,0.199,0.255,0.376,0.406,0.535
					c0.065,0.081,0.136,0.159,0.212,0.235c1.06,1.047,2.842,1.19,3.998,0.22C321.505,435.339,321.745,433.658,320.971,432.479z"/>
				<path style="fill:#F8E75B;" d="M300.069,364.938c-0.082-0.125-0.176-0.245-0.28-0.358c-0.266-0.327-0.609-0.579-0.988-0.742
					c-0.971-0.498-2.18-0.597-3.064-0.023c-1.278,0.83-1.588,2.616-0.833,3.902c0.117,0.199,0.255,0.376,0.406,0.535
					c0.065,0.081,0.136,0.16,0.212,0.235c1.06,1.047,2.842,1.19,3.997,0.22C300.603,367.799,300.843,366.118,300.069,364.938z"/>
				<path style="fill:#F8E75B;" d="M305.061,361.195c-0.082-0.125-0.176-0.245-0.28-0.358c-0.267-0.327-0.609-0.579-0.988-0.742
					c-0.971-0.498-2.18-0.597-3.064-0.023c-1.278,0.83-1.589,2.616-0.833,3.902c0.117,0.199,0.255,0.376,0.406,0.535
					c0.065,0.081,0.136,0.159,0.213,0.235c1.06,1.047,2.842,1.19,3.998,0.22C305.595,364.055,305.834,362.374,305.061,361.195z"/>
				<path style="fill:#F8E75B;" d="M297.262,419.376c-0.082-0.125-0.176-0.245-0.28-0.358c-0.267-0.327-0.609-0.579-0.988-0.742
					c-0.971-0.498-2.18-0.597-3.064-0.023c-1.278,0.83-1.588,2.616-0.833,3.902c0.117,0.199,0.255,0.376,0.406,0.535
					c0.065,0.081,0.136,0.159,0.212,0.235c1.06,1.047,2.842,1.19,3.997,0.22C297.796,422.237,298.035,420.556,297.262,419.376z"/>
				<path style="fill:#F8E75B;" d="M296.95,412.669c-0.082-0.125-0.176-0.245-0.28-0.358c-0.267-0.327-0.609-0.579-0.988-0.742
					c-0.971-0.498-2.18-0.597-3.064-0.023c-1.278,0.83-1.589,2.616-0.833,3.902c0.117,0.199,0.255,0.376,0.406,0.535
					c0.065,0.081,0.136,0.16,0.213,0.235c1.06,1.047,2.842,1.19,3.998,0.22C297.484,415.53,297.723,413.849,296.95,412.669z"/>
				<path style="fill:#F8E75B;" d="M297.106,405.338c-0.082-0.125-0.176-0.245-0.28-0.358c-0.267-0.327-0.609-0.579-0.988-0.742
					c-0.971-0.498-2.18-0.597-3.064-0.023c-1.278,0.83-1.589,2.616-0.833,3.902c0.117,0.199,0.255,0.376,0.406,0.535
					c0.065,0.081,0.136,0.159,0.212,0.235c1.06,1.047,2.842,1.19,3.998,0.22C297.64,408.198,297.879,406.517,297.106,405.338z"/>
			</g>
		</g>
		<g>
			<path style="fill:#E3B5B3;" d="M179.389,200.605c0,0,23.116,40.81,72.773,41.952c49.657,1.142,101.096-22.016,93.892-73.915
				c0,0,1.998-46.232-14.555-67.066c-16.552-20.833-28.539-30.251-37.671-32.534c-9.132-2.283-55.936,2.569-70.49,3.995
				c-14.555,1.427-33.676,19.406-38.527,27.397c-4.852,7.991-4.281,55.65-4.281,55.65s-7.705-1.998-14.555,1.142
				c-6.849,3.139-12.272,22.831-4.852,33.39C168.544,201.176,179.389,200.605,179.389,200.605z"/>
			<path style="fill:#48423F;" d="M331.933,74.225c-1.831-4.843-4.43-9.345-7.91-13.193c-3.323-3.674-7.359-6.677-11.67-9.092
				c-8.95-5.013-18.997-7.675-28.901-10.07c-12.349-2.986-24.832-5.354-37.593-4.926c-12.031,0.404-24.049,2.688-35.584,6.073
				c-10.143,2.976-20.085,7.041-28.962,12.831c-8.89,5.799-16.465,13.336-21.931,22.461c-5.551,9.267-8.94,19.697-11.057,30.245
				c-2.095,10.441-3.316,21.259-3.226,31.916c0.087,10.246,1.646,20.797,6.646,29.879c1.206,2.19,2.618,4.247,4.188,6.191
				c0.982,1.217,2.692-0.512,1.718-1.718c-0.203-0.251-0.402-0.505-0.597-0.76c0.147-0.196,0.23-0.432,0.2-0.681
				c-0.342-2.807,0.564-5.454,1.868-7.907c1.202-2.263,2.618-4.494,4.351-6.389c0.75-0.82,1.57-1.549,2.447-2.18
				c0.301,0.129,0.66,0.135,1.03-0.069c3.478-1.911,7.621-1.95,11.489-1.875c0.002,0,0.003,0,0.004,0
				c0.075,0.083,0.158,0.159,0.25,0.226c3.313,2.42,6.625,4.839,9.937,7.259c0.152,0.719,0.95,1.356,1.811,0.913
				c8.013-4.121,14.883-10.351,19.849-17.864c5.374-8.13,8.301-17.732,8.531-27.467c0.133-5.622-0.645-11.271-2.297-16.646
				c4.114-3.067,7.291-7.162,9.246-11.905c8.353-1.074,15.986-6.187,20.021-13.607c0.03-0.007,0.06-0.013,0.09-0.023
				c0.794-0.242,1.579-0.235,2.362-0.118c0.222,0.466,0.703,0.777,1.342,0.554c0.163-0.057,0.326-0.103,0.49-0.141
				c1.139,0.299,2.267,0.602,3.438,0.767c0.47,0.066,0.941,0.118,1.412,0.161c0.283,0.137,0.56,0.28,0.831,0.424
				c0.579,0.307,1.148,0.635,1.705,0.983c1.353,2.475,2.317,5.166,2.834,7.973c1.174,6.383-0.15,13.649-4.695,18.487
				c-2.405,2.56-5.535,4.288-9.02,4.799c-0.648,0.095-1.01,0.918-0.848,1.494c0.195,0.696,0.84,0.944,1.494,0.848
				c7.192-1.054,12.669-6.858,14.769-13.6c1.715-5.507,1.399-11.487-0.498-16.9c2.316,2.156,4.265,4.682,5.761,7.478
				c3.635,6.794,4.1,14.773,1.531,22.013c-1.47,4.143-3.928,7.897-7.133,10.903c-0.8,0.75-0.152,2.034,0.859,2.074
				c5.171,0.204,9.243-3.83,12.075-7.705c2.898-3.965,4.864-8.648,5.751-13.475c1.556-8.468-0.261-17.043-4.956-24.119
				c1.349,0.586,2.73,1.093,4.133,1.524c2.003,2.31,3.344,5.164,4.03,8.151c0.512,2.229,0.629,4.517,0.412,6.791
				c-0.087,0.911,1.099,1.524,1.828,1.049c3.885-2.532,6.054-7.224,5.335-11.825c-0.13-0.833-0.358-1.642-0.671-2.415
				c0.104,0.002,0.207,0.006,0.311,0.007c2.959,0.031,5.932-0.275,8.824-0.901c1.44-0.311,2.861-0.708,4.253-1.189
				c0.026-0.009,0.052-0.018,0.078-0.027c0.299,0.268,0.597,0.535,0.896,0.803c0.137,0.477,0.293,0.948,0.463,1.412
				c0.896,2.447,1.98,4.858,3.103,7.208c2.099,4.395,4.832,8.577,8.943,11.328c2.184,1.461,4.659,2.365,7.277,2.591
				c1.557,0.135,1.548-2.296,0-2.429c-5.443-0.471-9.607-4.718-12.251-9.174c-1.404-2.366-2.521-4.887-3.603-7.413
				c8.165,7.306,16.371,14.549,25.007,21.31c0.092,0.073,0.191,0.134,0.292,0.185c0,0.013,0.001,0.027,0.001,0.04
				c0.04,1.561,2.47,1.567,2.429,0C336.2,95.189,335.719,84.238,331.933,74.225z"/>
			<g>
				<path style="fill:#352A22;" d="M170.506,154.451c7.121-1.785,14.591,1.383,18.639,7.404c0.369,0.548-0.009,1.358-0.54,1.631
					c-0.644,0.332-1.267,0.002-1.631-0.54c-3.063-4.555-8.777-7.199-14.226-6.454c-2.939,0.402-5.743,1.631-7.989,3.576
					c-0.802,0.694-1.51,1.471-2.138,2.309c3.728-1.658,8.079-1.703,11.959-0.461c4.774,1.529,8.585,5.088,11.053,9.383
					c1.428,2.486,2.395,5.24,2.946,8.049c0.104,0.531-0.114,0.936-0.456,1.174c-0.069,0.297-0.257,0.573-0.597,0.762
					c-3.782,2.098-5.079,7.131-2.595,10.741c0.375,0.544,0.426,1.236-0.102,1.715c-0.44,0.399-1.344,0.437-1.715-0.102
					c-1.707-2.481-2.338-5.487-1.558-8.425c0.658-2.479,2.357-4.58,4.532-5.897c-0.911-4.209-2.861-8.199-5.952-11.239
					c-3.082-3.03-7.248-4.711-11.573-4.604c-0.369,0.009-0.737,0.036-1.102,0.077c-2.816,6.453-2.513,13.973,0.874,20.159
					c0.753,1.375-1.422,2.461-2.171,1.092c-3.418-6.244-3.99-13.908-1.578-20.59c-0.944,0.334-1.852,0.775-2.705,1.317
					c-0.341,0.217-0.77,0.168-1.116-0.025c-0.304,0.652-0.574,1.32-0.81,2.001c-3.69,10.627,0.064,24.314,10.947,29.043
					c5.432,2.36,11.818,2.391,16.967-0.702c1.343-0.807,2.424,1.37,1.092,2.171c-5.121,3.076-11.525,3.376-17.121,1.494
					c-5.945-1.999-10.675-6.456-13.265-12.144C153.266,175.708,156.51,157.958,170.506,154.451z"/>
				<path style="fill:#352A22;" d="M246.581,74.757c-4.431-8.226-12.655-14.249-21.848-15.944c-1.528-0.282-2.184,2.059-0.646,2.343
					c8.623,1.59,16.236,7.104,20.396,14.828C245.224,77.36,247.323,76.134,246.581,74.757z"/>
				<path style="fill:#352A22;" d="M252.44,74.249c-2.162-6.399-6.123-12.12-11.425-16.318c-0.518-0.41-1.211-0.496-1.718,0
					c-0.427,0.418-0.513,1.312,0,1.718c4.976,3.939,8.767,9.226,10.801,15.245C250.596,76.368,252.943,75.736,252.44,74.249z"/>
				<path style="fill:#352A22;" d="M277.707,76.244c-6.58-5.552-11.333-13.031-13.523-21.36c-0.397-1.511-2.741-0.87-2.343,0.646
					c2.287,8.701,7.269,16.629,14.147,22.432C277.177,78.964,278.904,77.254,277.707,76.244z"/>
				<path style="fill:#352A22;" d="M285.145,76.741c-5.927-3.931-10.425-9.86-12.622-16.623c-0.481-1.481-2.828-0.847-2.343,0.646
					c2.4,7.386,7.268,13.784,13.739,18.075C285.225,79.705,286.443,77.602,285.145,76.741z"/>
				<path style="fill:#352A22;" d="M296.82,73.754c-5.198-2.535-9.582-6.479-12.601-11.417c-0.814-1.332-2.916-0.113-2.098,1.226
					c3.223,5.271,7.915,9.578,13.472,12.288C296.994,76.535,298.227,74.44,296.82,73.754z"/>
				<path style="fill:#352A22;" d="M221.507,87.769c-8.588,1.015-16.736,4.536-23.305,10.175c-3.354,2.879-6.11,6.355-9.272,9.43
					c-3.078,2.992-6.628,5.354-10.709,6.741c-4.432,1.507-9.219,1.925-13.832,1.081c-1.529-0.28-2.184,2.061-0.646,2.343
					c8.49,1.553,17.395-0.627,24.156-6.009c3.559-2.832,6.393-6.421,9.6-9.619c3.054-3.044,6.532-5.587,10.372-7.551
					c4.245-2.17,8.898-3.602,13.635-4.162c0.651-0.077,1.215-0.503,1.215-1.215C222.722,88.386,222.163,87.691,221.507,87.769z"/>
				<path style="fill:#352A22;" d="M186.571,98.369c-4.689,7.019-13.333,10.866-21.681,9.878c-0.653-0.077-1.215,0.614-1.215,1.215
					c0,0.721,0.56,1.137,1.215,1.215c9.21,1.09,18.646-3.4,23.779-11.082C189.54,98.291,187.436,97.074,186.571,98.369z"/>
				<path style="fill:#352A22;" d="M313.132,66.321c-0.074-0.652-0.506-1.215-1.215-1.215c-0.599,0-1.289,0.559-1.215,1.215
					c0.585,5.173-1.134,10.403-4.77,14.147c-1.09,1.122,0.626,2.842,1.718,1.718C311.696,78.021,313.785,72.104,313.132,66.321z"/>
				<path style="fill:#352A22;" d="M314.966,74.991c-0.304,3.617-2.114,6.933-4.874,9.261c-1.197,1.009,0.529,2.72,1.718,1.718
					c3.264-2.754,5.229-6.741,5.586-10.979C317.527,73.433,315.097,73.441,314.966,74.991z"/>
			</g>
			<g>
				
					<ellipse transform="matrix(0.2282 -0.9736 0.9736 0.2282 -3.5945 382.8584)" style="fill:#C48080;" cx="239.691" cy="193.696" rx="15.761" ry="15.761"/>
				<circle style="fill:#C48080;" cx="317.895" cy="193.358" r="15.761"/>
				<g>
					<path style="fill:#F6F6F6;" d="M250.994,166.74c0.524-2.895,0.976-5.996,0.591-8.935c-0.408-3.118-2.02-5.546-4.124-7.8
						c-1.059-1.134-2.119-2.324-3.523-3.036c-1.253-0.635-2.734-0.768-4.108-0.555c-2.802,0.434-5.797,1.926-7.986,3.705
						c-2.601,2.115-3.686,5.099-4.327,8.301c-1.068,5.333-0.726,11.221,2.048,15.967c-0.197,0.634,0.144,1.232,0.706,1.555
						c0.192,0.11,0.387,0.216,0.583,0.32c0.211,0.209,0.456,0.32,0.705,0.351c4.892,2.308,11.007,2.501,15.246-1.287
						C249.3,173.097,250.412,169.956,250.994,166.74z"/>
					<path style="fill:#352A22;" d="M254.74,164.601c0.234-4.165-0.71-8.374-2.325-12.201c-0.851-2.018-2.01-3.806-3.901-4.983
						c-1.789-1.113-3.923-1.656-6.011-1.818c-3.736-0.291-7.685,0.571-10.671,2.921c-3.953,3.111-5.386,8.233-5.551,13.073
						c-0.161,4.718,0.797,9.429,2.836,13.69c0.715,1.493,3.141,0.589,2.42-0.916c-1.493-3.119-2.399-6.458-2.639-9.91
						c-0.248-3.584,0.127-7.43,1.825-10.648c1.511-2.862,4.279-4.742,7.421-5.388c1.102-0.227,2.319-0.346,3.545-0.313
						c-0.546,0.261-1.063,0.588-1.53,0.98c-3.486,2.925-4.207,7.9-4.268,12.189c-0.057,4.064,0.489,8.852,3.195,12.092
						c2.584,3.094,7.022,4.368,10.484,1.914C252.908,172.917,254.518,168.549,254.74,164.601z"/>
					<polygon style="fill:#F6F6F6;" points="233.903,156.977 241.991,157.746 235.802,151.955 					"/>
				</g>
				<g>
					<path style="fill:#F6F6F6;" d="M327.437,165.326c0.524-2.895,0.976-5.996,0.591-8.935c-0.408-3.118-2.02-5.546-4.124-7.8
						c-1.059-1.134-2.119-2.324-3.523-3.036c-1.253-0.635-2.734-0.768-4.109-0.555c-2.802,0.434-5.797,1.926-7.986,3.705
						c-2.601,2.115-3.686,5.099-4.327,8.301c-1.068,5.333-0.726,11.221,2.048,15.967c-0.197,0.633,0.144,1.232,0.706,1.555
						c0.192,0.11,0.387,0.216,0.583,0.32c0.211,0.21,0.456,0.32,0.705,0.351c4.892,2.308,11.007,2.501,15.246-1.287
						C325.742,171.683,326.854,168.543,327.437,165.326z"/>
					<path style="fill:#352A22;" d="M331.183,163.188c0.234-4.165-0.71-8.374-2.325-12.201c-0.851-2.018-2.01-3.806-3.901-4.983
						c-1.789-1.113-3.922-1.656-6.011-1.818c-3.736-0.29-7.685,0.571-10.671,2.921c-3.953,3.111-5.386,8.233-5.551,13.073
						c-0.161,4.718,0.797,9.429,2.836,13.691c0.715,1.493,3.141,0.589,2.421-0.916c-1.493-3.119-2.4-6.458-2.638-9.91
						c-0.248-3.585,0.126-7.43,1.825-10.648c1.511-2.862,4.279-4.742,7.421-5.388c1.102-0.227,2.319-0.346,3.544-0.313
						c-0.546,0.261-1.063,0.588-1.53,0.98c-3.486,2.925-4.207,7.9-4.267,12.189c-0.057,4.064,0.489,8.852,3.195,12.092
						c2.584,3.094,7.022,4.368,10.484,1.914C329.35,171.503,330.961,167.135,331.183,163.188z"/>
					<polygon style="fill:#F6F6F6;" points="310.345,155.563 318.434,156.332 312.245,150.542 					"/>
				</g>
				<path style="fill:#352A22;" d="M295.19,187.61c-1.297-3.123-2.593-6.247-3.89-9.37c-1.262-3.039-2.576-6.065-3.664-9.173
					c-2.037-5.82-3.18-12.224-0.755-18.113c0.252-0.611-0.273-1.33-0.848-1.494c-0.695-0.199-1.246,0.244-1.494,0.848
					c-4.051,9.839,0.963,20.253,4.723,29.31l3.298,7.943c-3.453,2.803-6.906,5.607-10.359,8.41c-0.513,0.417-0.425,1.283,0,1.718
					c0.498,0.509,1.211,0.411,1.718,0c3.653-2.966,7.306-5.932,10.96-8.898C295.175,188.551,295.338,187.967,295.19,187.61z"/>
				<path style="fill:#352A22;" d="M291.518,209.733c-4.378,2.271-9.739,2.383-14.272,0.479c-5.216-2.191-8.233-7.024-11.034-11.674
					c-0.806-1.338-2.907-0.118-2.098,1.226c2.472,4.104,5.083,8.32,9.141,11.042c3.589,2.407,8.108,3.486,12.4,3.088
					c2.487-0.231,4.871-0.912,7.089-2.063C294.132,211.111,292.905,209.014,291.518,209.733z"/>
			</g>
		</g>
	</g>
</g>
</svg>
