<svg id="evxF4zbl2oW1" xmlns="http://www.w3.org/2000/svg" xmlns:xlink="http://www.w3.org/1999/xlink" viewBox="0 0 200 165" shape-rendering="geometricPrecision" text-rendering="geometricPrecision"><rect width="24.227042" height="125.288417" rx="0" ry="0" transform="matrix(.828572 0 0 0.812154 55.228947 62.772467)" fill="#00befd" stroke="#272727" stroke-width="3"/><rect width="24.227042" height="125.288417" rx="0" ry="0" transform="matrix(.828572 0 0 0.414363 28.958872 112.61107)" fill="#00befd" stroke="#272727" stroke-width="3"/><rect width="24.227042" height="125.288417" rx="0" ry="0" transform="matrix(.828572 0 0 0.646406 82.916996 83.538769)" fill="#00befd" stroke="#272727" stroke-width="3"/><rect width="24.227042" height="125.288417" rx="0" ry="0" transform="matrix(.828572 0 0 1.055252 110.605045 32.315103)" fill="#00befd" stroke="#272727" stroke-width="3"/><rect width="24.227042" height="125.288417" rx="0" ry="0" transform="matrix(.828572 0 0 1.309394 138.293094 0.474055)" fill="#00befd" stroke="#272727" stroke-width="3"/><path d="M66.90439,210.72859l-9.85831-13.3716l65.29734-48.14096.56684.76884.24096-.27821l21.42842,18.55916l81.33572-59.96537-7.01344-8.14258l33.82191-3.14854-8.12553,32.98197-7.80995-9.06733-91.77476,67.66163-1.00638,1.16197-.26195-.22688-.30773.22688-1.00638-1.36503L121.6394,170.3748L66.90439,210.72859Z" transform="translate(-57.04608-51.179055)" fill="#ffbd00" stroke="#272727" stroke-width="3"/></svg>
