<svg id="exYwZEASQGV1" xmlns="http://www.w3.org/2000/svg" xmlns:xlink="http://www.w3.org/1999/xlink" viewBox="0 0 107 175" shape-rendering="geometricPrecision" text-rendering="geometricPrecision" project-id="acf121b7f0b34c24940cee3ce664d5a5" export-id="4224d937cf224e6393f3758e5de80a8c" cached="false"><ellipse rx="25" ry="25" transform="translate(53.796246 40.586501)" fill="#ffbd00" stroke-width="0"/><rect width="42.758632" height="148.76441" rx="21.38" ry="21.38" transform="matrix(.85731 0 0 0.656548 34.866781 71.923058)" fill="#ffbd00" stroke-width="0"/><path d="M40.27743,75.5095c-.01597.01215-.03193.02432-.04789.03651-.00666-.01084-.01329-.02162-.01989-.03236l.04802-.03618.01976.03203Zm12.06608-4.56332c-.01657.00048-.03314.00098-.04971.00151h-10.0427l-.00114-.00151h10.09355Zm1.15433,25.99434L40.27742,75.50951c3.8236-2.9083,7.82906-4.4289,12.01638-4.56182h1.2082c4.22089.13287,9.017895,1.341763,13.20791,4.55919l.00958-.01579.007.00507L53.49784,96.94052ZM53.502,70.94769c-.0167-.00052-.0334-.00103-.0501-.00151h11.54593l-.00109.00151h-11.49474Zm-.0501-.00151h-1.10839c.36806-.01071.73752-.01071,1.10839,0Z" fill="#272727" stroke-width="0"/><polygon points="0,-40.856794 35.383022,20.428397 -35.383022,20.428397 0,-40.856794" transform="matrix(.233346 0 0 1.363725 53.49784 131.140514)" fill="#272727" stroke-width="0"/><path d="M179.32432,60.006297q15.8625,25,0,50" transform="translate(-96.203754-44.419796)" fill="none" stroke="#ffbd00" stroke-width="5"/><path d="M179.32432,60.006297q15.8625,25,0,50" transform="matrix(-1 0 0-1 203.776264 125.503598)" fill="none" stroke="#ffbd00" stroke-width="5"/><path d="M171.393071,49.991315q23.012844,35.014982,0,69.851563" transform="translate(-80.341256-44.419796)" fill="none" stroke="#ffbd00" stroke-width="5"/><path d="M171.393071,49.991315q23.012844,35.014982,0,69.851563" transform="matrix(-1 0 0-1 187.913766 125.681999)" fill="none" stroke="#ffbd00" stroke-width="5"/></svg>
